<svg width="580" height="260" viewBox="0 0 580 260" fill="none" xmlns="http://www.w3.org/2000/svg">
<g filter="url(#filter0_d)">
<rect x="20" y="16" width="540" height="220" rx="8" fill="white"/>
</g>
<path d="M533.516 86.7305L538.246 82L533.516 77.2695L534.555 76.2305L540.324 82L534.555 87.7695L533.516 86.7305Z" fill="black"/>
<path d="M532.992 173.931L537.723 169.2L532.992 164.47L534.032 163.431L539.801 169.2L534.032 174.97L532.992 173.931Z" fill="black"/>
<path d="M533.315 130.73L538.045 126L533.315 121.27L534.354 120.23L540.123 126L534.354 131.77L533.315 130.73Z" fill="#141728"/>
<path d="M532.791 216.931L537.522 212.2L532.791 207.47L533.83 206.431L539.6 212.2L533.83 217.97L532.791 216.931Z" fill="#141728"/>
<line x1="19.6729" y1="59.5" x2="559.62" y2="59.5" stroke="#F1F4F5"/>
<line x1="22" y1="103.5" x2="561.947" y2="103.5" stroke="#F1F4F5"/>
<line x1="14" y1="147.5" x2="553.947" y2="147.5" stroke="#F1F4F5"/>
<line x1="19" y1="191.5" x2="558.947" y2="191.5" stroke="#F1F4F5"/>
<path d="M226.225 33.032H229.893C231.527 33.032 232.791 33.466 233.687 34.334C234.593 35.202 235.045 36.4247 235.045 38.002C235.045 39.5887 234.593 40.8207 233.687 41.698C232.791 42.566 231.527 43 229.893 43H226.225V33.032ZM229.781 41.53C232.077 41.53 233.225 40.354 233.225 38.002C233.225 35.6687 232.077 34.502 229.781 34.502H228.031V41.53H229.781ZM243.204 35.93V43H241.496V41.908C241.272 42.3 240.973 42.5987 240.6 42.804C240.226 43.0093 239.797 43.112 239.312 43.112C237.585 43.112 236.722 42.1413 236.722 40.2V35.93H238.458V40.214C238.458 40.7273 238.56 41.1053 238.766 41.348C238.98 41.5907 239.307 41.712 239.746 41.712C240.259 41.712 240.67 41.544 240.978 41.208C241.286 40.872 241.44 40.424 241.44 39.864V35.93H243.204ZM239.396 35.02L240.796 32.136H242.588L240.53 35.02H239.396ZM251.795 35.944L248.701 43H247.175L244.123 35.944H245.957L247.987 41.012L250.059 35.944H251.795ZM252.705 35.93H254.441V43H252.705V35.93ZM254.539 32.724V34.446H252.593V32.724H254.539ZM263.117 32.696V43H261.395V41.866C261.181 42.258 260.873 42.566 260.471 42.79C260.07 43.0047 259.613 43.112 259.099 43.112C258.493 43.112 257.951 42.958 257.475 42.65C256.999 42.342 256.626 41.908 256.355 41.348C256.094 40.7787 255.963 40.13 255.963 39.402C255.963 38.674 256.094 38.0347 256.355 37.484C256.617 36.9333 256.985 36.5087 257.461 36.21C257.937 35.902 258.483 35.748 259.099 35.748C259.603 35.748 260.051 35.8553 260.443 36.07C260.845 36.2753 261.153 36.5693 261.367 36.952V32.696H263.117ZM259.561 41.74C260.14 41.74 260.588 41.5393 260.905 41.138C261.232 40.7367 261.395 40.1673 261.395 39.43C261.395 38.6927 261.237 38.1233 260.919 37.722C260.602 37.3207 260.154 37.12 259.575 37.12C258.987 37.12 258.53 37.3207 258.203 37.722C257.886 38.114 257.727 38.674 257.727 39.402C257.727 40.1393 257.886 40.7133 258.203 41.124C258.53 41.5347 258.983 41.74 259.561 41.74ZM271.785 35.93V43H270.063V41.866C269.849 42.258 269.541 42.566 269.139 42.79C268.738 43.0047 268.281 43.112 267.767 43.112C267.151 43.112 266.605 42.9627 266.129 42.664C265.653 42.3653 265.285 41.9407 265.023 41.39C264.762 40.8393 264.631 40.2 264.631 39.472C264.631 38.744 264.762 38.1 265.023 37.54C265.294 36.9707 265.667 36.532 266.143 36.224C266.619 35.9067 267.161 35.748 267.767 35.748C268.281 35.748 268.738 35.86 269.139 36.084C269.541 36.2987 269.849 36.602 270.063 36.994V35.93H271.785ZM268.243 41.74C268.822 41.74 269.27 41.5393 269.587 41.138C269.905 40.7367 270.063 40.172 270.063 39.444C270.063 38.6973 269.905 38.1233 269.587 37.722C269.27 37.3207 268.817 37.12 268.229 37.12C267.651 37.12 267.198 37.33 266.871 37.75C266.554 38.1607 266.395 38.7347 266.395 39.472C266.395 40.2 266.554 40.76 266.871 41.152C267.198 41.544 267.655 41.74 268.243 41.74ZM276.281 43.112C275.003 43.112 273.985 42.8133 273.229 42.216L273.719 40.984C274.475 41.544 275.339 41.824 276.309 41.824C276.729 41.824 277.051 41.754 277.275 41.614C277.509 41.474 277.625 41.278 277.625 41.026C277.625 40.8113 277.546 40.6433 277.387 40.522C277.229 40.3913 276.958 40.2793 276.575 40.186L275.399 39.92C274.111 39.64 273.467 38.982 273.467 37.946C273.467 37.5167 273.589 37.1387 273.831 36.812C274.074 36.476 274.415 36.2147 274.853 36.028C275.292 35.8413 275.801 35.748 276.379 35.748C276.883 35.748 277.369 35.8273 277.835 35.986C278.302 36.1353 278.713 36.3547 279.067 36.644L278.549 37.834C277.84 37.3113 277.112 37.05 276.365 37.05C275.964 37.05 275.651 37.1247 275.427 37.274C275.203 37.4233 275.091 37.6287 275.091 37.89C275.091 38.0953 275.157 38.2587 275.287 38.38C275.427 38.5013 275.661 38.604 275.987 38.688L277.191 38.954C277.891 39.1127 278.4 39.36 278.717 39.696C279.044 40.0227 279.207 40.452 279.207 40.984C279.207 41.6373 278.946 42.1553 278.423 42.538C277.901 42.9207 277.187 43.112 276.281 43.112ZM287.893 34.082C287.137 34.082 286.759 34.4973 286.759 35.328V35.93H288.341V37.246H286.759V43H285.009V37.246H283.665V35.93H285.009V35.244C285.009 34.404 285.219 33.76 285.639 33.312C286.068 32.8547 286.679 32.626 287.473 32.626C287.911 32.626 288.28 32.682 288.579 32.794V34.18C288.317 34.1147 288.089 34.082 287.893 34.082ZM293.495 35.762C293.766 35.762 293.999 35.7993 294.195 35.874L294.181 37.47C293.883 37.3487 293.575 37.288 293.257 37.288C292.66 37.288 292.203 37.4607 291.885 37.806C291.577 38.1513 291.423 38.6087 291.423 39.178V43H289.687V37.932C289.687 37.1853 289.65 36.518 289.575 35.93H291.213L291.353 37.176C291.531 36.7187 291.811 36.3687 292.193 36.126C292.576 35.8833 293.01 35.762 293.495 35.762ZM301.221 39.556H296.349C296.386 40.312 296.573 40.872 296.909 41.236C297.254 41.5907 297.763 41.768 298.435 41.768C299.21 41.768 299.928 41.516 300.591 41.012L301.095 42.216C300.759 42.4867 300.344 42.706 299.849 42.874C299.364 43.0327 298.869 43.112 298.365 43.112C297.208 43.112 296.298 42.7853 295.635 42.132C294.972 41.4787 294.641 40.5827 294.641 39.444C294.641 38.7253 294.786 38.086 295.075 37.526C295.364 36.966 295.77 36.532 296.293 36.224C296.816 35.9067 297.408 35.748 298.071 35.748C299.042 35.748 299.807 36.0653 300.367 36.7C300.936 37.3253 301.221 38.1887 301.221 39.29V39.556ZM298.113 37.008C297.646 37.008 297.264 37.148 296.965 37.428C296.676 37.6987 296.489 38.0953 296.405 38.618H299.695C299.639 38.086 299.476 37.6847 299.205 37.414C298.944 37.1433 298.58 37.008 298.113 37.008ZM309.591 35.93C309.507 36.49 309.465 37.1573 309.465 37.932V46.024H307.715V41.922C307.5 42.3047 307.192 42.5987 306.791 42.804C306.399 43.0093 305.951 43.112 305.447 43.112C304.831 43.112 304.285 42.9627 303.809 42.664C303.333 42.3653 302.964 41.9407 302.703 41.39C302.442 40.8393 302.311 40.2 302.311 39.472C302.311 38.744 302.442 38.1 302.703 37.54C302.974 36.9707 303.347 36.532 303.823 36.224C304.299 35.9067 304.84 35.748 305.447 35.748C305.988 35.748 306.469 35.8693 306.889 36.112C307.309 36.3547 307.617 36.6953 307.813 37.134L307.939 35.93H309.591ZM305.923 41.74C306.502 41.74 306.95 41.5393 307.267 41.138C307.584 40.7367 307.743 40.172 307.743 39.444C307.743 38.6973 307.584 38.1233 307.267 37.722C306.95 37.3207 306.497 37.12 305.909 37.12C305.33 37.12 304.878 37.33 304.551 37.75C304.234 38.1607 304.075 38.7347 304.075 39.472C304.075 40.2 304.234 40.76 304.551 41.152C304.878 41.544 305.335 41.74 305.923 41.74ZM317.811 35.93V43H316.103V41.908C315.879 42.3 315.58 42.5987 315.207 42.804C314.834 43.0093 314.404 43.112 313.919 43.112C312.192 43.112 311.329 42.1413 311.329 40.2V35.93H313.065V40.214C313.065 40.7273 313.168 41.1053 313.373 41.348C313.588 41.5907 313.914 41.712 314.353 41.712C314.866 41.712 315.277 41.544 315.585 41.208C315.893 40.872 316.047 40.424 316.047 39.864V35.93H317.811ZM325.899 39.556H321.027C321.064 40.312 321.251 40.872 321.587 41.236C321.932 41.5907 322.441 41.768 323.113 41.768C323.887 41.768 324.606 41.516 325.269 41.012L325.773 42.216C325.437 42.4867 325.021 42.706 324.527 42.874C324.041 43.0327 323.547 43.112 323.043 43.112C321.885 43.112 320.975 42.7853 320.313 42.132C319.65 41.4787 319.319 40.5827 319.319 39.444C319.319 38.7253 319.463 38.086 319.753 37.526C320.042 36.966 320.448 36.532 320.971 36.224C321.493 35.9067 322.086 35.748 322.749 35.748C323.719 35.748 324.485 36.0653 325.045 36.7C325.614 37.3253 325.899 38.1887 325.899 39.29V39.556ZM322.791 37.008C322.324 37.008 321.941 37.148 321.643 37.428C321.353 37.6987 321.167 38.0953 321.083 38.618H324.373C324.317 38.086 324.153 37.6847 323.883 37.414C323.621 37.1433 323.257 37.008 322.791 37.008ZM331.427 35.748C333.116 35.748 333.961 36.7187 333.961 38.66V43H332.211V38.744C332.211 38.184 332.103 37.778 331.889 37.526C331.674 37.2647 331.343 37.134 330.895 37.134C330.363 37.134 329.933 37.3067 329.607 37.652C329.28 37.988 329.117 38.436 329.117 38.996V43H327.381V37.932C327.381 37.1853 327.343 36.518 327.269 35.93H328.907L329.033 37.092C329.275 36.6627 329.602 36.3313 330.013 36.098C330.433 35.8647 330.904 35.748 331.427 35.748ZM338.042 37.246V40.41C338.042 41.2407 338.43 41.656 339.204 41.656C339.419 41.656 339.652 41.6187 339.904 41.544V42.93C339.596 43.042 339.223 43.098 338.784 43.098C337.982 43.098 337.366 42.874 336.936 42.426C336.507 41.978 336.292 41.334 336.292 40.494V37.246H334.934V35.93H336.292V34.208L338.042 33.62V35.93H339.918V37.246H338.042ZM347.309 39.556H342.437C342.474 40.312 342.661 40.872 342.997 41.236C343.342 41.5907 343.851 41.768 344.523 41.768C345.298 41.768 346.016 41.516 346.679 41.012L347.183 42.216C346.847 42.4867 346.432 42.706 345.937 42.874C345.452 43.0327 344.957 43.112 344.453 43.112C343.296 43.112 342.386 42.7853 341.723 42.132C341.06 41.4787 340.729 40.5827 340.729 39.444C340.729 38.7253 340.874 38.086 341.163 37.526C341.452 36.966 341.858 36.532 342.381 36.224C342.904 35.9067 343.496 35.748 344.159 35.748C345.13 35.748 345.895 36.0653 346.455 36.7C347.024 37.3253 347.309 38.1887 347.309 39.29V39.556ZM344.201 37.008C343.734 37.008 343.352 37.148 343.053 37.428C342.764 37.6987 342.577 38.0953 342.493 38.618H345.783C345.727 38.086 345.564 37.6847 345.293 37.414C345.032 37.1433 344.668 37.008 344.201 37.008ZM351.381 43.112C350.102 43.112 349.085 42.8133 348.329 42.216L348.819 40.984C349.575 41.544 350.438 41.824 351.409 41.824C351.829 41.824 352.151 41.754 352.375 41.614C352.608 41.474 352.725 41.278 352.725 41.026C352.725 40.8113 352.646 40.6433 352.487 40.522C352.328 40.3913 352.058 40.2793 351.675 40.186L350.499 39.92C349.211 39.64 348.567 38.982 348.567 37.946C348.567 37.5167 348.688 37.1387 348.931 36.812C349.174 36.476 349.514 36.2147 349.953 36.028C350.392 35.8413 350.9 35.748 351.479 35.748C351.983 35.748 352.468 35.8273 352.935 35.986C353.402 36.1353 353.812 36.3547 354.167 36.644L353.649 37.834C352.94 37.3113 352.212 37.05 351.465 37.05C351.064 37.05 350.751 37.1247 350.527 37.274C350.303 37.4233 350.191 37.6287 350.191 37.89C350.191 38.0953 350.256 38.2587 350.387 38.38C350.527 38.5013 350.76 38.604 351.087 38.688L352.291 38.954C352.991 39.1127 353.5 39.36 353.817 39.696C354.144 40.0227 354.307 40.452 354.307 40.984C354.307 41.6373 354.046 42.1553 353.523 42.538C353 42.9207 352.286 43.112 351.381 43.112Z" fill="black"/>
<path d="M42.0678 89.292C41.7238 89.036 41.3838 88.704 41.0478 88.296C40.7118 87.888 40.4198 87.472 40.1718 87.048L41.1318 86.724C41.3398 87.132 41.5838 87.492 41.8638 87.804C42.1438 88.116 42.4398 88.404 42.7518 88.668L42.0678 89.292ZM39.7638 87.096C38.9638 87.096 38.2718 86.92 37.6878 86.568C37.1118 86.216 36.6638 85.712 36.3438 85.056C36.0318 84.4 35.8758 83.624 35.8758 82.728C35.8758 81.824 36.0318 81.048 36.3438 80.4C36.6558 79.744 37.0998 79.24 37.6758 78.888C38.2598 78.536 38.9558 78.36 39.7638 78.36C40.5638 78.36 41.2558 78.536 41.8398 78.888C42.4238 79.24 42.8718 79.744 43.1838 80.4C43.4958 81.048 43.6518 81.82 43.6518 82.716C43.6518 83.62 43.4918 84.4 43.1718 85.056C42.8598 85.712 42.4118 86.216 41.8278 86.568C41.2518 86.92 40.5638 87.096 39.7638 87.096ZM39.7638 86.256C40.6678 86.256 41.3718 85.952 41.8758 85.344C42.3798 84.728 42.6318 83.852 42.6318 82.716C42.6318 81.58 42.3798 80.712 41.8758 80.112C41.3718 79.504 40.6678 79.2 39.7638 79.2C38.8598 79.2 38.1518 79.504 37.6398 80.112C37.1358 80.72 36.8838 81.588 36.8838 82.716C36.8838 83.844 37.1358 84.716 37.6398 85.332C38.1518 85.948 38.8598 86.256 39.7638 86.256ZM47.4733 87.084C46.7533 87.084 46.2093 86.884 45.8413 86.484C45.4813 86.084 45.3013 85.492 45.3013 84.708V80.964H46.2733V84.684C46.2733 85.228 46.3853 85.628 46.6093 85.884C46.8333 86.14 47.1733 86.268 47.6293 86.268C48.1653 86.268 48.5973 86.096 48.9253 85.752C49.2533 85.408 49.4173 84.948 49.4173 84.372V80.964H50.3893V87H49.4413V85.692L49.5853 85.62C49.4253 86.1 49.1533 86.464 48.7693 86.712C48.3933 86.96 47.9613 87.084 47.4733 87.084ZM54.5791 87.084C54.0431 87.084 53.5711 86.96 53.1631 86.712C52.7631 86.456 52.4511 86.096 52.2271 85.632C52.0111 85.16 51.9031 84.608 51.9031 83.976C51.9031 83.344 52.0151 82.792 52.2391 82.32C52.4631 81.848 52.7751 81.48 53.1751 81.216C53.5831 80.952 54.0511 80.82 54.5791 80.82C55.1311 80.82 55.5991 80.956 55.9831 81.228C56.3671 81.5 56.6271 81.888 56.7631 82.392L56.6191 82.488V80.964H57.5791V87H56.6191V85.44L56.7631 85.512C56.6271 86.016 56.3671 86.404 55.9831 86.676C55.5991 86.948 55.1311 87.084 54.5791 87.084ZM54.7711 86.28C55.3631 86.28 55.8191 86.08 56.1391 85.68C56.4591 85.272 56.6191 84.696 56.6191 83.952C56.6191 83.208 56.4551 82.636 56.1271 82.236C55.8071 81.836 55.3551 81.636 54.7711 81.636C54.1791 81.636 53.7151 81.844 53.3791 82.26C53.0511 82.668 52.8871 83.24 52.8871 83.976C52.8871 84.712 53.0511 85.28 53.3791 85.68C53.7151 86.08 54.1791 86.28 54.7711 86.28ZM59.4584 87V80.964H60.4304V87H59.4584ZM59.3624 78.408H60.5504V79.512H59.3624V78.408ZM64.3578 87.084C63.3418 87.084 62.5378 86.824 61.9458 86.304L62.2698 85.584C62.5898 85.832 62.9178 86.016 63.2538 86.136C63.5978 86.248 63.9778 86.304 64.3938 86.304C64.8498 86.304 65.1938 86.228 65.4258 86.076C65.6658 85.916 65.7858 85.688 65.7858 85.392C65.7858 85.152 65.7058 84.964 65.5458 84.828C65.3858 84.684 65.1218 84.568 64.7538 84.48L63.7338 84.24C63.2298 84.128 62.8378 83.928 62.5578 83.64C62.2858 83.352 62.1498 83.008 62.1498 82.608C62.1498 82.256 62.2458 81.948 62.4378 81.684C62.6298 81.412 62.8978 81.2 63.2418 81.048C63.5858 80.896 63.9938 80.82 64.4658 80.82C64.8898 80.82 65.2898 80.888 65.6658 81.024C66.0418 81.16 66.3578 81.356 66.6138 81.612L66.2898 82.32C66.0018 82.08 65.7058 81.904 65.4018 81.792C65.1058 81.672 64.7938 81.612 64.4658 81.612C64.0338 81.612 63.6978 81.696 63.4578 81.864C63.2258 82.032 63.1098 82.26 63.1098 82.548C63.1098 82.796 63.1818 82.992 63.3258 83.136C63.4778 83.28 63.7178 83.392 64.0458 83.472L65.0658 83.724C65.6338 83.844 66.0498 84.044 66.3138 84.324C66.5858 84.596 66.7218 84.944 66.7218 85.368C66.7218 85.888 66.5098 86.304 66.0858 86.616C65.6618 86.928 65.0858 87.084 64.3578 87.084ZM73.4398 87.084C72.4238 87.084 71.6198 86.824 71.0278 86.304L71.3518 85.584C71.6718 85.832 71.9998 86.016 72.3358 86.136C72.6798 86.248 73.0598 86.304 73.4758 86.304C73.9318 86.304 74.2758 86.228 74.5078 86.076C74.7478 85.916 74.8678 85.688 74.8678 85.392C74.8678 85.152 74.7878 84.964 74.6278 84.828C74.4678 84.684 74.2038 84.568 73.8358 84.48L72.8158 84.24C72.3118 84.128 71.9198 83.928 71.6398 83.64C71.3678 83.352 71.2318 83.008 71.2318 82.608C71.2318 82.256 71.3278 81.948 71.5198 81.684C71.7118 81.412 71.9798 81.2 72.3238 81.048C72.6678 80.896 73.0758 80.82 73.5478 80.82C73.9718 80.82 74.3718 80.888 74.7478 81.024C75.1238 81.16 75.4398 81.356 75.6958 81.612L75.3718 82.32C75.0838 82.08 74.7878 81.904 74.4838 81.792C74.1878 81.672 73.8758 81.612 73.5478 81.612C73.1158 81.612 72.7798 81.696 72.5398 81.864C72.3078 82.032 72.1918 82.26 72.1918 82.548C72.1918 82.796 72.2638 82.992 72.4078 83.136C72.5598 83.28 72.7998 83.392 73.1278 83.472L74.1478 83.724C74.7158 83.844 75.1318 84.044 75.3958 84.324C75.6678 84.596 75.8038 84.944 75.8038 85.368C75.8038 85.888 75.5918 86.304 75.1678 86.616C74.7438 86.928 74.1678 87.084 73.4398 87.084ZM79.6689 87.084C79.1329 87.084 78.6609 86.96 78.2529 86.712C77.8529 86.456 77.5409 86.096 77.3169 85.632C77.1009 85.16 76.9929 84.608 76.9929 83.976C76.9929 83.344 77.1049 82.792 77.3289 82.32C77.5529 81.848 77.8649 81.48 78.2649 81.216C78.6729 80.952 79.1409 80.82 79.6689 80.82C80.2209 80.82 80.6889 80.956 81.0729 81.228C81.4569 81.5 81.7169 81.888 81.8529 82.392L81.7089 82.488V80.964H82.6689V87H81.7089V85.44L81.8529 85.512C81.7169 86.016 81.4569 86.404 81.0729 86.676C80.6889 86.948 80.2209 87.084 79.6689 87.084ZM79.8609 86.28C80.4529 86.28 80.9089 86.08 81.2289 85.68C81.5489 85.272 81.7089 84.696 81.7089 83.952C81.7089 83.208 81.5449 82.636 81.2169 82.236C80.8969 81.836 80.4449 81.636 79.8609 81.636C79.2689 81.636 78.8049 81.844 78.4689 82.26C78.1409 82.668 77.9769 83.24 77.9769 83.976C77.9769 84.712 78.1409 85.28 78.4689 85.68C78.8049 86.08 79.2689 86.28 79.8609 86.28ZM78.0729 79.62C78.0729 79.18 78.1729 78.84 78.3729 78.6C78.5729 78.36 78.8329 78.24 79.1529 78.24C79.3769 78.24 79.5889 78.3 79.7889 78.42C79.9969 78.532 80.1889 78.648 80.3649 78.768C80.5489 78.88 80.7169 78.936 80.8689 78.936C81.0529 78.936 81.1929 78.872 81.2889 78.744C81.3849 78.608 81.4329 78.452 81.4329 78.276H81.9729C81.9729 78.716 81.8729 79.056 81.6729 79.296C81.4729 79.536 81.2129 79.656 80.8929 79.656C80.6689 79.656 80.4529 79.6 80.2449 79.488C80.0449 79.368 79.8529 79.252 79.6689 79.14C79.4929 79.02 79.3289 78.96 79.1769 78.96C78.9929 78.96 78.8529 79.028 78.7569 79.164C78.6609 79.3 78.6129 79.452 78.6129 79.62H78.0729ZM87.0442 87.084C86.4682 87.084 85.9642 86.956 85.5322 86.7C85.1082 86.444 84.7762 86.084 84.5362 85.62C84.3042 85.148 84.1882 84.592 84.1882 83.952C84.1882 83.32 84.3042 82.768 84.5362 82.296C84.7762 81.824 85.1082 81.46 85.5322 81.204C85.9642 80.948 86.4682 80.82 87.0442 80.82C87.6202 80.82 88.1202 80.948 88.5442 81.204C88.9762 81.46 89.3082 81.824 89.5402 82.296C89.7802 82.768 89.9002 83.32 89.9002 83.952C89.9002 84.592 89.7802 85.148 89.5402 85.62C89.3082 86.084 88.9762 86.444 88.5442 86.7C88.1202 86.956 87.6202 87.084 87.0442 87.084ZM87.0442 86.28C87.6362 86.28 88.0922 86.084 88.4122 85.692C88.7402 85.292 88.9042 84.712 88.9042 83.952C88.9042 83.208 88.7402 82.636 88.4122 82.236C88.0842 81.836 87.6282 81.636 87.0442 81.636C86.4602 81.636 86.0002 81.836 85.6642 82.236C85.3362 82.636 85.1722 83.208 85.1722 83.952C85.1722 84.712 85.3322 85.292 85.6522 85.692C85.9802 86.084 86.4442 86.28 87.0442 86.28ZM96.8603 87.084C96.3243 87.084 95.8523 86.96 95.4443 86.712C95.0443 86.456 94.7323 86.096 94.5083 85.632C94.2923 85.16 94.1843 84.608 94.1843 83.976C94.1843 83.344 94.2963 82.792 94.5203 82.32C94.7443 81.848 95.0563 81.48 95.4563 81.216C95.8643 80.952 96.3323 80.82 96.8603 80.82C97.4123 80.82 97.8803 80.956 98.2643 81.228C98.6483 81.5 98.9083 81.888 99.0443 82.392L98.9003 82.488V80.964H99.8603V87H98.9003V85.44L99.0443 85.512C98.9083 86.016 98.6483 86.404 98.2643 86.676C97.8803 86.948 97.4123 87.084 96.8603 87.084ZM97.0523 86.28C97.6443 86.28 98.1003 86.08 98.4203 85.68C98.7403 85.272 98.9003 84.696 98.9003 83.952C98.9003 83.208 98.7363 82.636 98.4083 82.236C98.0883 81.836 97.6363 81.636 97.0523 81.636C96.4603 81.636 95.9963 81.844 95.6603 82.26C95.3323 82.668 95.1683 83.24 95.1683 83.976C95.1683 84.712 95.3323 85.28 95.6603 85.68C95.9963 86.08 96.4603 86.28 97.0523 86.28ZM103.78 87.084C102.764 87.084 101.96 86.824 101.368 86.304L101.692 85.584C102.012 85.832 102.34 86.016 102.676 86.136C103.02 86.248 103.4 86.304 103.816 86.304C104.272 86.304 104.616 86.228 104.848 86.076C105.088 85.916 105.208 85.688 105.208 85.392C105.208 85.152 105.128 84.964 104.968 84.828C104.808 84.684 104.544 84.568 104.176 84.48L103.156 84.24C102.652 84.128 102.26 83.928 101.98 83.64C101.708 83.352 101.572 83.008 101.572 82.608C101.572 82.256 101.668 81.948 101.86 81.684C102.052 81.412 102.32 81.2 102.664 81.048C103.008 80.896 103.416 80.82 103.888 80.82C104.312 80.82 104.712 80.888 105.088 81.024C105.464 81.16 105.78 81.356 106.036 81.612L105.712 82.32C105.424 82.08 105.128 81.904 104.824 81.792C104.528 81.672 104.216 81.612 103.888 81.612C103.456 81.612 103.12 81.696 102.88 81.864C102.648 82.032 102.532 82.26 102.532 82.548C102.532 82.796 102.604 82.992 102.748 83.136C102.9 83.28 103.14 83.392 103.468 83.472L104.488 83.724C105.056 83.844 105.472 84.044 105.736 84.324C106.008 84.596 106.144 84.944 106.144 85.368C106.144 85.888 105.932 86.304 105.508 86.616C105.084 86.928 104.508 87.084 103.78 87.084ZM109.97 81.732V80.964H113.594V81.732H109.97ZM113.762 79.056C113.538 78.992 113.33 78.96 113.138 78.96C112.946 78.96 112.77 78.996 112.61 79.068C112.458 79.132 112.338 79.252 112.25 79.428C112.162 79.604 112.118 79.848 112.118 80.16V87H111.146V80.04C111.146 79.392 111.306 78.912 111.626 78.6C111.946 78.28 112.386 78.12 112.946 78.12C113.082 78.12 113.218 78.128 113.354 78.144C113.49 78.16 113.626 78.188 113.762 78.228V79.056ZM117.302 87.084C116.726 87.084 116.222 86.956 115.79 86.7C115.366 86.444 115.034 86.084 114.794 85.62C114.562 85.148 114.446 84.592 114.446 83.952C114.446 83.32 114.562 82.768 114.794 82.296C115.034 81.824 115.366 81.46 115.79 81.204C116.222 80.948 116.726 80.82 117.302 80.82C117.878 80.82 118.378 80.948 118.802 81.204C119.234 81.46 119.566 81.824 119.798 82.296C120.038 82.768 120.158 83.32 120.158 83.952C120.158 84.592 120.038 85.148 119.798 85.62C119.566 86.084 119.234 86.444 118.802 86.7C118.378 86.956 117.878 87.084 117.302 87.084ZM117.302 86.28C117.894 86.28 118.35 86.084 118.67 85.692C118.998 85.292 119.162 84.712 119.162 83.952C119.162 83.208 118.998 82.636 118.67 82.236C118.342 81.836 117.886 81.636 117.302 81.636C116.718 81.636 116.258 81.836 115.922 82.236C115.594 82.636 115.43 83.208 115.43 83.952C115.43 84.712 115.59 85.292 115.91 85.692C116.238 86.084 116.702 86.28 117.302 86.28ZM121.673 87V82.656C121.673 82.376 121.665 82.096 121.649 81.816C121.641 81.528 121.617 81.244 121.577 80.964H122.501L122.633 82.452L122.501 82.416C122.613 81.888 122.853 81.492 123.221 81.228C123.597 80.956 124.017 80.82 124.481 80.82C124.585 80.82 124.681 80.828 124.769 80.844C124.865 80.852 124.953 80.868 125.033 80.892L125.009 81.78C124.825 81.716 124.613 81.684 124.373 81.684C123.957 81.684 123.621 81.776 123.365 81.96C123.117 82.144 122.933 82.38 122.813 82.668C122.701 82.948 122.645 83.244 122.645 83.556V87H121.673ZM126.021 87V82.656C126.021 82.376 126.013 82.096 125.997 81.816C125.989 81.528 125.965 81.244 125.925 80.964H126.849L126.957 82.212L126.837 82.296C126.981 81.824 127.229 81.46 127.581 81.204C127.941 80.948 128.365 80.82 128.853 80.82C129.437 80.82 129.889 80.964 130.209 81.252C130.537 81.54 130.745 81.98 130.833 82.572L130.545 82.416C130.673 81.928 130.929 81.54 131.313 81.252C131.705 80.964 132.173 80.82 132.717 80.82C133.381 80.82 133.881 81.02 134.217 81.42C134.553 81.812 134.721 82.408 134.721 83.208V87H133.749V83.256C133.749 82.696 133.649 82.288 133.449 82.032C133.249 81.768 132.933 81.636 132.501 81.636C131.997 81.636 131.597 81.808 131.301 82.152C131.013 82.496 130.869 82.964 130.869 83.556V87H129.897V83.256C129.897 82.696 129.793 82.288 129.585 82.032C129.385 81.768 129.069 81.636 128.637 81.636C128.125 81.636 127.721 81.808 127.425 82.152C127.137 82.496 126.993 82.964 126.993 83.556V87H126.021ZM138.884 87.084C138.348 87.084 137.876 86.96 137.468 86.712C137.068 86.456 136.756 86.096 136.532 85.632C136.316 85.16 136.208 84.608 136.208 83.976C136.208 83.344 136.32 82.792 136.544 82.32C136.768 81.848 137.08 81.48 137.48 81.216C137.888 80.952 138.356 80.82 138.884 80.82C139.436 80.82 139.904 80.956 140.288 81.228C140.672 81.5 140.932 81.888 141.068 82.392L140.924 82.488V80.964H141.884V87H140.924V85.44L141.068 85.512C140.932 86.016 140.672 86.404 140.288 86.676C139.904 86.948 139.436 87.084 138.884 87.084ZM139.076 86.28C139.668 86.28 140.124 86.08 140.444 85.68C140.764 85.272 140.924 84.696 140.924 83.952C140.924 83.208 140.76 82.636 140.432 82.236C140.112 81.836 139.66 81.636 139.076 81.636C138.484 81.636 138.02 81.844 137.684 82.26C137.356 82.668 137.192 83.24 137.192 83.976C137.192 84.712 137.356 85.28 137.684 85.68C138.02 86.08 138.484 86.28 139.076 86.28ZM145.803 87.084C144.787 87.084 143.983 86.824 143.391 86.304L143.715 85.584C144.035 85.832 144.363 86.016 144.699 86.136C145.043 86.248 145.423 86.304 145.839 86.304C146.295 86.304 146.639 86.228 146.871 86.076C147.111 85.916 147.231 85.688 147.231 85.392C147.231 85.152 147.151 84.964 146.991 84.828C146.831 84.684 146.567 84.568 146.199 84.48L145.179 84.24C144.675 84.128 144.283 83.928 144.003 83.64C143.731 83.352 143.595 83.008 143.595 82.608C143.595 82.256 143.691 81.948 143.883 81.684C144.075 81.412 144.343 81.2 144.687 81.048C145.031 80.896 145.439 80.82 145.911 80.82C146.335 80.82 146.735 80.888 147.111 81.024C147.487 81.16 147.803 81.356 148.059 81.612L147.735 82.32C147.447 82.08 147.151 81.904 146.847 81.792C146.551 81.672 146.239 81.612 145.911 81.612C145.479 81.612 145.143 81.696 144.903 81.864C144.671 82.032 144.555 82.26 144.555 82.548C144.555 82.796 144.627 82.992 144.771 83.136C144.923 83.28 145.163 83.392 145.491 83.472L146.511 83.724C147.079 83.844 147.495 84.044 147.759 84.324C148.031 84.596 148.167 84.944 148.167 85.368C148.167 85.888 147.955 86.304 147.531 86.616C147.107 86.928 146.531 87.084 145.803 87.084ZM158.161 87H157.201V85.38L157.345 85.512C157.209 86.016 156.949 86.404 156.565 86.676C156.181 86.948 155.713 87.084 155.161 87.084C154.633 87.084 154.165 86.956 153.757 86.7C153.357 86.436 153.045 86.068 152.821 85.596C152.597 85.116 152.485 84.56 152.485 83.928C152.485 83.296 152.593 82.748 152.809 82.284C153.033 81.82 153.345 81.46 153.745 81.204C154.153 80.948 154.625 80.82 155.161 80.82C155.713 80.82 156.181 80.96 156.565 81.24C156.949 81.512 157.209 81.896 157.345 82.392L157.189 82.512V78.168H158.161V87ZM155.353 86.28C155.937 86.28 156.389 86.08 156.709 85.68C157.037 85.272 157.201 84.696 157.201 83.952C157.201 83.216 157.041 82.648 156.721 82.248C156.401 81.84 155.945 81.636 155.353 81.636C154.761 81.636 154.297 81.836 153.961 82.236C153.633 82.636 153.469 83.2 153.469 83.928C153.469 84.672 153.633 85.252 153.961 85.668C154.297 86.076 154.761 86.28 155.353 86.28ZM164.984 86.28C164.72 86.528 164.38 86.724 163.964 86.868C163.556 87.012 163.136 87.084 162.704 87.084C162.08 87.084 161.54 86.96 161.084 86.712C160.636 86.464 160.288 86.108 160.04 85.644C159.8 85.172 159.68 84.612 159.68 83.964C159.68 83.34 159.8 82.792 160.04 82.32C160.28 81.848 160.612 81.48 161.036 81.216C161.468 80.952 161.964 80.82 162.524 80.82C163.06 80.82 163.52 80.94 163.904 81.18C164.288 81.412 164.58 81.748 164.78 82.188C164.988 82.628 165.092 83.156 165.092 83.772V83.952H160.532V83.316H164.54L164.228 83.76C164.244 83.056 164.104 82.516 163.808 82.14C163.52 81.764 163.096 81.576 162.536 81.576C161.952 81.576 161.492 81.784 161.156 82.2C160.828 82.608 160.664 83.176 160.664 83.904C160.664 84.688 160.836 85.28 161.18 85.68C161.532 86.08 162.044 86.28 162.716 86.28C163.068 86.28 163.404 86.224 163.724 86.112C164.052 85.992 164.364 85.812 164.66 85.572L164.984 86.28ZM169.697 89.592V82.656C169.697 82.376 169.689 82.096 169.673 81.816C169.665 81.528 169.641 81.244 169.601 80.964H170.525L170.633 82.212L170.537 82.392C170.673 81.888 170.933 81.5 171.317 81.228C171.701 80.956 172.165 80.82 172.709 80.82C173.237 80.82 173.701 80.952 174.101 81.216C174.509 81.48 174.825 81.848 175.049 82.32C175.281 82.792 175.397 83.344 175.397 83.976C175.397 84.608 175.281 85.16 175.049 85.632C174.825 86.096 174.513 86.456 174.113 86.712C173.713 86.96 173.245 87.084 172.709 87.084C172.165 87.084 171.701 86.948 171.317 86.676C170.933 86.404 170.673 86.016 170.537 85.512L170.669 85.392V89.592H169.697ZM172.529 86.28C173.113 86.28 173.569 86.08 173.897 85.68C174.225 85.28 174.389 84.712 174.389 83.976C174.389 83.24 174.225 82.668 173.897 82.26C173.569 81.844 173.113 81.636 172.529 81.636C171.929 81.636 171.469 81.836 171.149 82.236C170.829 82.636 170.669 83.208 170.669 83.952C170.669 84.696 170.829 85.272 171.149 85.68C171.469 86.08 171.929 86.28 172.529 86.28ZM179.208 87.084C178.672 87.084 178.2 86.96 177.792 86.712C177.392 86.456 177.08 86.096 176.856 85.632C176.64 85.16 176.532 84.608 176.532 83.976C176.532 83.344 176.644 82.792 176.868 82.32C177.092 81.848 177.404 81.48 177.804 81.216C178.212 80.952 178.68 80.82 179.208 80.82C179.76 80.82 180.228 80.956 180.612 81.228C180.996 81.5 181.256 81.888 181.392 82.392L181.248 82.488V80.964H182.208V87H181.248V85.44L181.392 85.512C181.256 86.016 180.996 86.404 180.612 86.676C180.228 86.948 179.76 87.084 179.208 87.084ZM179.4 86.28C179.992 86.28 180.448 86.08 180.768 85.68C181.088 85.272 181.248 84.696 181.248 83.952C181.248 83.208 181.084 82.636 180.756 82.236C180.436 81.836 179.984 81.636 179.4 81.636C178.808 81.636 178.344 81.844 178.008 82.26C177.68 82.668 177.516 83.24 177.516 83.976C177.516 84.712 177.68 85.28 178.008 85.68C178.344 86.08 178.808 86.28 179.4 86.28ZM186.739 89.676C185.827 89.676 185.035 89.468 184.363 89.052L184.531 88.26C184.907 88.476 185.263 88.632 185.599 88.728C185.935 88.824 186.315 88.872 186.739 88.872C187.315 88.872 187.751 88.716 188.047 88.404C188.351 88.1 188.503 87.644 188.503 87.036V85.404L188.635 85.248C188.539 85.568 188.387 85.848 188.179 86.088C187.979 86.32 187.731 86.5 187.435 86.628C187.139 86.756 186.803 86.82 186.427 86.82C185.891 86.82 185.419 86.696 185.011 86.448C184.611 86.192 184.295 85.84 184.063 85.392C183.839 84.944 183.727 84.42 183.727 83.82C183.727 83.22 183.839 82.696 184.063 82.248C184.295 81.8 184.611 81.452 185.011 81.204C185.419 80.948 185.891 80.82 186.427 80.82C186.987 80.82 187.459 80.96 187.843 81.24C188.235 81.512 188.499 81.896 188.635 82.392L188.491 82.26V80.964H189.463V86.952C189.463 87.856 189.231 88.536 188.767 88.992C188.311 89.448 187.635 89.676 186.739 89.676ZM186.619 86.004C187.203 86.004 187.659 85.812 187.987 85.428C188.323 85.036 188.491 84.5 188.491 83.82C188.491 83.14 188.323 82.608 187.987 82.224C187.659 81.832 187.203 81.636 186.619 81.636C186.027 81.636 185.559 81.832 185.215 82.224C184.879 82.608 184.711 83.14 184.711 83.82C184.711 84.508 184.879 85.044 185.215 85.428C185.559 85.812 186.027 86.004 186.619 86.004ZM193.645 87.084C193.109 87.084 192.637 86.96 192.229 86.712C191.829 86.456 191.517 86.096 191.293 85.632C191.077 85.16 190.969 84.608 190.969 83.976C190.969 83.344 191.081 82.792 191.305 82.32C191.529 81.848 191.841 81.48 192.241 81.216C192.649 80.952 193.117 80.82 193.645 80.82C194.197 80.82 194.665 80.956 195.049 81.228C195.433 81.5 195.693 81.888 195.829 82.392L195.685 82.488V80.964H196.645V87H195.685V85.44L195.829 85.512C195.693 86.016 195.433 86.404 195.049 86.676C194.665 86.948 194.197 87.084 193.645 87.084ZM193.837 86.28C194.429 86.28 194.885 86.08 195.205 85.68C195.525 85.272 195.685 84.696 195.685 83.952C195.685 83.208 195.521 82.636 195.193 82.236C194.873 81.836 194.421 81.636 193.837 81.636C193.245 81.636 192.781 81.844 192.445 82.26C192.117 82.668 191.953 83.24 191.953 83.976C191.953 84.712 192.117 85.28 192.445 85.68C192.781 86.08 193.245 86.28 193.837 86.28ZM198.525 87V82.656C198.525 82.376 198.517 82.096 198.501 81.816C198.493 81.528 198.469 81.244 198.429 80.964H199.353L199.461 82.212L199.341 82.296C199.485 81.824 199.733 81.46 200.085 81.204C200.445 80.948 200.869 80.82 201.357 80.82C201.941 80.82 202.393 80.964 202.713 81.252C203.041 81.54 203.249 81.98 203.337 82.572L203.049 82.416C203.177 81.928 203.433 81.54 203.817 81.252C204.209 80.964 204.677 80.82 205.221 80.82C205.885 80.82 206.385 81.02 206.721 81.42C207.057 81.812 207.225 82.408 207.225 83.208V87H206.253V83.256C206.253 82.696 206.153 82.288 205.953 82.032C205.753 81.768 205.437 81.636 205.005 81.636C204.501 81.636 204.101 81.808 203.805 82.152C203.517 82.496 203.373 82.964 203.373 83.556V87H202.401V83.256C202.401 82.696 202.297 82.288 202.089 82.032C201.889 81.768 201.573 81.636 201.141 81.636C200.629 81.636 200.225 81.808 199.929 82.152C199.641 82.496 199.497 82.964 199.497 83.556V87H198.525ZM214.016 86.28C213.752 86.528 213.412 86.724 212.996 86.868C212.588 87.012 212.168 87.084 211.736 87.084C211.112 87.084 210.572 86.96 210.116 86.712C209.668 86.464 209.32 86.108 209.072 85.644C208.832 85.172 208.712 84.612 208.712 83.964C208.712 83.34 208.832 82.792 209.072 82.32C209.312 81.848 209.644 81.48 210.068 81.216C210.5 80.952 210.996 80.82 211.556 80.82C212.092 80.82 212.552 80.94 212.936 81.18C213.32 81.412 213.612 81.748 213.812 82.188C214.02 82.628 214.124 83.156 214.124 83.772V83.952H209.564V83.316H213.572L213.26 83.76C213.276 83.056 213.136 82.516 212.84 82.14C212.552 81.764 212.128 81.576 211.568 81.576C210.984 81.576 210.524 81.784 210.188 82.2C209.86 82.608 209.696 83.176 209.696 83.904C209.696 84.688 209.868 85.28 210.212 85.68C210.564 86.08 211.076 86.28 211.748 86.28C212.1 86.28 212.436 86.224 212.756 86.112C213.084 85.992 213.396 85.812 213.692 85.572L214.016 86.28ZM215.599 87V82.656C215.599 82.376 215.591 82.096 215.575 81.816C215.567 81.528 215.543 81.244 215.503 80.964H216.427L216.535 82.212L216.415 82.308C216.583 81.82 216.863 81.452 217.255 81.204C217.647 80.948 218.099 80.82 218.611 80.82C220.059 80.82 220.783 81.616 220.783 83.208V87H219.811V83.256C219.811 82.696 219.699 82.288 219.475 82.032C219.251 81.768 218.899 81.636 218.419 81.636C217.859 81.636 217.411 81.808 217.075 82.152C216.739 82.496 216.571 82.96 216.571 83.544V87H215.599ZM221.767 81.732V80.964H225.643V81.732H221.767ZM225.619 86.136V86.964C225.483 87.004 225.347 87.032 225.211 87.048C225.083 87.072 224.939 87.084 224.779 87.084C224.219 87.084 223.771 86.924 223.435 86.604C223.107 86.284 222.943 85.804 222.943 85.164V79.416L223.915 79.068V85.032C223.915 85.352 223.959 85.6 224.047 85.776C224.143 85.952 224.271 86.076 224.431 86.148C224.591 86.212 224.771 86.244 224.971 86.244C225.091 86.244 225.199 86.236 225.295 86.22C225.391 86.204 225.499 86.176 225.619 86.136ZM229.31 87.084C228.734 87.084 228.23 86.956 227.798 86.7C227.374 86.444 227.042 86.084 226.802 85.62C226.57 85.148 226.454 84.592 226.454 83.952C226.454 83.32 226.57 82.768 226.802 82.296C227.042 81.824 227.374 81.46 227.798 81.204C228.23 80.948 228.734 80.82 229.31 80.82C229.886 80.82 230.386 80.948 230.81 81.204C231.242 81.46 231.574 81.824 231.806 82.296C232.046 82.768 232.166 83.32 232.166 83.952C232.166 84.592 232.046 85.148 231.806 85.62C231.574 86.084 231.242 86.444 230.81 86.7C230.386 86.956 229.886 87.084 229.31 87.084ZM229.31 86.28C229.902 86.28 230.358 86.084 230.678 85.692C231.006 85.292 231.17 84.712 231.17 83.952C231.17 83.208 231.006 82.636 230.678 82.236C230.35 81.836 229.894 81.636 229.31 81.636C228.726 81.636 228.266 81.836 227.93 82.236C227.602 82.636 227.438 83.208 227.438 83.952C227.438 84.712 227.598 85.292 227.918 85.692C228.246 86.084 228.71 86.28 229.31 86.28ZM233.684 78.804C233.948 78.652 234.228 78.54 234.524 78.468C234.828 78.396 235.116 78.36 235.388 78.36C235.852 78.36 236.256 78.44 236.6 78.6C236.952 78.76 237.224 78.98 237.416 79.26C237.608 79.54 237.704 79.872 237.704 80.256C237.704 80.624 237.632 80.952 237.488 81.24C237.352 81.528 237.176 81.796 236.96 82.044C236.752 82.284 236.536 82.528 236.312 82.776C236.096 83.024 235.908 83.292 235.748 83.58C235.588 83.86 235.492 84.184 235.46 84.552L235.424 84.768H234.848V84.468C234.848 84.052 234.908 83.688 235.028 83.376C235.156 83.064 235.312 82.784 235.496 82.536C235.68 82.288 235.864 82.052 236.048 81.828C236.232 81.596 236.384 81.36 236.504 81.12C236.632 80.88 236.696 80.612 236.696 80.316C236.696 79.972 236.576 79.7 236.336 79.5C236.096 79.3 235.764 79.2 235.34 79.2C235.076 79.2 234.8 79.244 234.512 79.332C234.232 79.412 233.956 79.536 233.684 79.704V78.804ZM234.524 87V85.764H235.76V87H234.524Z" fill="#616161"/>
<path d="M39.7638 131.096C38.9638 131.096 38.2718 130.92 37.6878 130.568C37.1118 130.216 36.6638 129.712 36.3438 129.056C36.0318 128.4 35.8758 127.624 35.8758 126.728C35.8758 125.824 36.0318 125.048 36.3438 124.4C36.6558 123.744 37.0998 123.24 37.6758 122.888C38.2598 122.536 38.9558 122.36 39.7638 122.36C40.5638 122.36 41.2558 122.536 41.8398 122.888C42.4238 123.24 42.8718 123.744 43.1838 124.4C43.4958 125.048 43.6518 125.82 43.6518 126.716C43.6518 127.62 43.4918 128.4 43.1718 129.056C42.8598 129.712 42.4118 130.216 41.8278 130.568C41.2518 130.92 40.5638 131.096 39.7638 131.096ZM39.7638 130.256C40.6678 130.256 41.3718 129.952 41.8758 129.344C42.3798 128.728 42.6318 127.852 42.6318 126.716C42.6318 125.58 42.3798 124.712 41.8758 124.112C41.3718 123.504 40.6678 123.2 39.7638 123.2C38.8598 123.2 38.1518 123.504 37.6398 124.112C37.1358 124.72 36.8838 125.588 36.8838 126.716C36.8838 127.844 37.1358 128.716 37.6398 129.332C38.1518 129.948 38.8598 130.256 39.7638 130.256ZM53.7823 133.592H52.8103V129.392L52.9663 129.512C52.8303 130.016 52.5703 130.404 52.1863 130.676C51.8023 130.948 51.3343 131.084 50.7823 131.084C50.2463 131.084 49.7743 130.96 49.3663 130.712C48.9663 130.456 48.6543 130.096 48.4303 129.632C48.2143 129.16 48.1063 128.608 48.1063 127.976C48.1063 127.344 48.2183 126.792 48.4423 126.32C48.6663 125.848 48.9783 125.48 49.3783 125.216C49.7863 124.952 50.2543 124.82 50.7823 124.82C51.3343 124.82 51.8023 124.956 52.1863 125.228C52.5703 125.5 52.8303 125.888 52.9663 126.392L52.8463 126.212L52.9783 124.964H53.8783C53.8463 125.244 53.8223 125.528 53.8063 125.816C53.7903 126.096 53.7823 126.376 53.7823 126.656V133.592ZM50.9743 130.28C51.5663 130.28 52.0223 130.08 52.3423 129.68C52.6623 129.272 52.8223 128.696 52.8223 127.952C52.8223 127.208 52.6583 126.636 52.3303 126.236C52.0103 125.836 51.5583 125.636 50.9743 125.636C50.3823 125.636 49.9183 125.844 49.5823 126.26C49.2543 126.668 49.0903 127.24 49.0903 127.976C49.0903 128.712 49.2543 129.28 49.5823 129.68C49.9183 130.08 50.3823 130.28 50.9743 130.28ZM57.7976 131.084C57.0776 131.084 56.5336 130.884 56.1656 130.484C55.8056 130.084 55.6256 129.492 55.6256 128.708V124.964H56.5976V128.684C56.5976 129.228 56.7096 129.628 56.9336 129.884C57.1576 130.14 57.4976 130.268 57.9536 130.268C58.4896 130.268 58.9216 130.096 59.2496 129.752C59.5776 129.408 59.7416 128.948 59.7416 128.372V124.964H60.7136V131H59.7656V129.692L59.9096 129.62C59.7496 130.1 59.4776 130.464 59.0936 130.712C58.7176 130.96 58.2856 131.084 57.7976 131.084ZM67.5314 130.28C67.2674 130.528 66.9274 130.724 66.5114 130.868C66.1034 131.012 65.6834 131.084 65.2514 131.084C64.6274 131.084 64.0874 130.96 63.6314 130.712C63.1834 130.464 62.8354 130.108 62.5874 129.644C62.3474 129.172 62.2274 128.612 62.2274 127.964C62.2274 127.34 62.3474 126.792 62.5874 126.32C62.8274 125.848 63.1594 125.48 63.5834 125.216C64.0154 124.952 64.5114 124.82 65.0714 124.82C65.6074 124.82 66.0674 124.94 66.4514 125.18C66.8354 125.412 67.1274 125.748 67.3274 126.188C67.5354 126.628 67.6394 127.156 67.6394 127.772V127.952H63.0794V127.316H67.0874L66.7754 127.76C66.7914 127.056 66.6514 126.516 66.3554 126.14C66.0674 125.764 65.6434 125.576 65.0834 125.576C64.4994 125.576 64.0394 125.784 63.7034 126.2C63.3754 126.608 63.2114 127.176 63.2114 127.904C63.2114 128.688 63.3834 129.28 63.7274 129.68C64.0794 130.08 64.5914 130.28 65.2634 130.28C65.6154 130.28 65.9514 130.224 66.2714 130.112C66.5994 129.992 66.9114 129.812 67.2074 129.572L67.5314 130.28ZM77.1876 130.28C76.9236 130.528 76.5836 130.724 76.1676 130.868C75.7596 131.012 75.3396 131.084 74.9076 131.084C74.2836 131.084 73.7436 130.96 73.2876 130.712C72.8396 130.464 72.4916 130.108 72.2436 129.644C72.0036 129.172 71.8836 128.612 71.8836 127.964C71.8836 127.34 72.0036 126.792 72.2436 126.32C72.4836 125.848 72.8156 125.48 73.2396 125.216C73.6716 124.952 74.1676 124.82 74.7276 124.82C75.2636 124.82 75.7236 124.94 76.1076 125.18C76.4916 125.412 76.7836 125.748 76.9836 126.188C77.1916 126.628 77.2956 127.156 77.2956 127.772V127.952H72.7356V127.316H76.7436L76.4316 127.76C76.4476 127.056 76.3076 126.516 76.0116 126.14C75.7236 125.764 75.2996 125.576 74.7396 125.576C74.1556 125.576 73.6956 125.784 73.3596 126.2C73.0316 126.608 72.8676 127.176 72.8676 127.904C72.8676 128.688 73.0396 129.28 73.3836 129.68C73.7356 130.08 74.2476 130.28 74.9196 130.28C75.2716 130.28 75.6076 130.224 75.9276 130.112C76.2556 129.992 76.5676 129.812 76.8636 129.572L77.1876 130.28ZM75.0636 124.184H74.3796L75.5796 121.736H76.7076L75.0636 124.184ZM84.4319 131.084C83.8399 131.084 83.3279 130.956 82.8959 130.7C82.4639 130.444 82.1279 130.084 81.8879 129.62C81.6559 129.156 81.5399 128.608 81.5399 127.976C81.5399 127.352 81.6599 126.804 81.8999 126.332C82.1399 125.852 82.4799 125.48 82.9199 125.216C83.3599 124.952 83.8799 124.82 84.4799 124.82C84.8879 124.82 85.2799 124.892 85.6559 125.036C86.0399 125.172 86.3559 125.364 86.6039 125.612L86.2799 126.332C85.9839 126.1 85.6919 125.928 85.4039 125.816C85.1239 125.696 84.8319 125.636 84.5279 125.636C83.9199 125.636 83.4359 125.84 83.0759 126.248C82.7239 126.656 82.5479 127.232 82.5479 127.976C82.5479 128.712 82.7239 129.28 83.0759 129.68C83.4279 130.08 83.9119 130.28 84.5279 130.28C84.8239 130.28 85.1159 130.224 85.4039 130.112C85.6919 129.992 85.9839 129.816 86.2799 129.584L86.6039 130.304C86.3479 130.544 86.0239 130.736 85.6319 130.88C85.2479 131.016 84.8479 131.084 84.4319 131.084ZM90.1573 131.084C89.6213 131.084 89.1493 130.96 88.7413 130.712C88.3413 130.456 88.0293 130.096 87.8053 129.632C87.5893 129.16 87.4813 128.608 87.4813 127.976C87.4813 127.344 87.5933 126.792 87.8173 126.32C88.0413 125.848 88.3533 125.48 88.7533 125.216C89.1613 124.952 89.6293 124.82 90.1573 124.82C90.7093 124.82 91.1773 124.956 91.5613 125.228C91.9453 125.5 92.2053 125.888 92.3413 126.392L92.1973 126.488V124.964H93.1573V131H92.1973V129.44L92.3413 129.512C92.2053 130.016 91.9453 130.404 91.5613 130.676C91.1773 130.948 90.7093 131.084 90.1573 131.084ZM90.3493 130.28C90.9413 130.28 91.3973 130.08 91.7173 129.68C92.0373 129.272 92.1973 128.696 92.1973 127.952C92.1973 127.208 92.0333 126.636 91.7053 126.236C91.3853 125.836 90.9333 125.636 90.3493 125.636C89.7573 125.636 89.2933 125.844 88.9573 126.26C88.6293 126.668 88.4653 127.24 88.4653 127.976C88.4653 128.712 88.6293 129.28 88.9573 129.68C89.2933 130.08 89.7573 130.28 90.3493 130.28ZM97.1726 131.084C96.4526 131.084 95.9086 130.884 95.5406 130.484C95.1806 130.084 95.0006 129.492 95.0006 128.708V124.964H95.9726V128.684C95.9726 129.228 96.0846 129.628 96.3086 129.884C96.5326 130.14 96.8726 130.268 97.3286 130.268C97.8646 130.268 98.2966 130.096 98.6246 129.752C98.9526 129.408 99.1166 128.948 99.1166 128.372V124.964H100.089V131H99.1406V129.692L99.2846 129.62C99.1246 130.1 98.8526 130.464 98.4686 130.712C98.0926 130.96 97.6606 131.084 97.1726 131.084ZM104.494 131.084C103.902 131.084 103.39 130.956 102.958 130.7C102.526 130.444 102.19 130.084 101.95 129.62C101.718 129.156 101.602 128.608 101.602 127.976C101.602 127.352 101.722 126.804 101.962 126.332C102.202 125.852 102.542 125.48 102.982 125.216C103.422 124.952 103.942 124.82 104.542 124.82C104.95 124.82 105.342 124.892 105.718 125.036C106.102 125.172 106.418 125.364 106.666 125.612L106.342 126.332C106.046 126.1 105.754 125.928 105.466 125.816C105.186 125.696 104.894 125.636 104.59 125.636C103.982 125.636 103.498 125.84 103.138 126.248C102.786 126.656 102.61 127.232 102.61 127.976C102.61 128.712 102.786 129.28 103.138 129.68C103.49 130.08 103.974 130.28 104.59 130.28C104.886 130.28 105.178 130.224 105.466 130.112C105.754 129.992 106.046 129.816 106.342 129.584L106.666 130.304C106.41 130.544 106.086 130.736 105.694 130.88C105.31 131.016 104.91 131.084 104.494 131.084ZM104.422 133.34C104.262 133.34 104.082 133.32 103.882 133.28C103.682 133.248 103.506 133.192 103.354 133.112L103.51 132.584C103.678 132.648 103.834 132.692 103.978 132.716C104.13 132.74 104.278 132.752 104.422 132.752C104.646 132.752 104.814 132.712 104.926 132.632C105.038 132.56 105.094 132.46 105.094 132.332C105.094 132.116 104.954 132.008 104.674 132.008C104.57 132.008 104.47 132.016 104.374 132.032C104.286 132.056 104.202 132.084 104.122 132.116L103.882 131.924L104.014 130.76H104.698L104.602 131.636L104.302 131.612C104.406 131.572 104.506 131.54 104.602 131.516C104.706 131.5 104.806 131.492 104.902 131.492C105.134 131.492 105.346 131.56 105.538 131.696C105.73 131.832 105.826 132.044 105.826 132.332C105.826 132.62 105.702 132.86 105.454 133.052C105.214 133.244 104.87 133.34 104.422 133.34ZM110.22 131.084C109.684 131.084 109.212 130.96 108.804 130.712C108.404 130.456 108.092 130.096 107.868 129.632C107.652 129.16 107.544 128.608 107.544 127.976C107.544 127.344 107.656 126.792 107.88 126.32C108.104 125.848 108.416 125.48 108.816 125.216C109.224 124.952 109.692 124.82 110.22 124.82C110.772 124.82 111.24 124.956 111.624 125.228C112.008 125.5 112.268 125.888 112.404 126.392L112.26 126.488V124.964H113.22V131H112.26V129.44L112.404 129.512C112.268 130.016 112.008 130.404 111.624 130.676C111.24 130.948 110.772 131.084 110.22 131.084ZM110.412 130.28C111.004 130.28 111.46 130.08 111.78 129.68C112.1 129.272 112.26 128.696 112.26 127.952C112.26 127.208 112.096 126.636 111.768 126.236C111.448 125.836 110.996 125.636 110.412 125.636C109.82 125.636 109.356 125.844 109.02 126.26C108.692 126.668 108.528 127.24 108.528 127.976C108.528 128.712 108.692 129.28 109.02 129.68C109.356 130.08 109.82 130.28 110.412 130.28ZM108.624 123.62C108.624 123.18 108.724 122.84 108.924 122.6C109.124 122.36 109.384 122.24 109.704 122.24C109.928 122.24 110.14 122.3 110.34 122.42C110.548 122.532 110.74 122.648 110.916 122.768C111.1 122.88 111.268 122.936 111.42 122.936C111.604 122.936 111.744 122.872 111.84 122.744C111.936 122.608 111.984 122.452 111.984 122.276H112.524C112.524 122.716 112.424 123.056 112.224 123.296C112.024 123.536 111.764 123.656 111.444 123.656C111.22 123.656 111.004 123.6 110.796 123.488C110.596 123.368 110.404 123.252 110.22 123.14C110.044 123.02 109.88 122.96 109.728 122.96C109.544 122.96 109.404 123.028 109.308 123.164C109.212 123.3 109.164 123.452 109.164 123.62H108.624ZM117.595 131.084C117.019 131.084 116.515 130.956 116.083 130.7C115.659 130.444 115.327 130.084 115.087 129.62C114.855 129.148 114.739 128.592 114.739 127.952C114.739 127.32 114.855 126.768 115.087 126.296C115.327 125.824 115.659 125.46 116.083 125.204C116.515 124.948 117.019 124.82 117.595 124.82C118.171 124.82 118.671 124.948 119.095 125.204C119.527 125.46 119.859 125.824 120.091 126.296C120.331 126.768 120.451 127.32 120.451 127.952C120.451 128.592 120.331 129.148 120.091 129.62C119.859 130.084 119.527 130.444 119.095 130.7C118.671 130.956 118.171 131.084 117.595 131.084ZM117.595 130.28C118.187 130.28 118.643 130.084 118.963 129.692C119.291 129.292 119.455 128.712 119.455 127.952C119.455 127.208 119.291 126.636 118.963 126.236C118.635 125.836 118.179 125.636 117.595 125.636C117.011 125.636 116.551 125.836 116.215 126.236C115.887 126.636 115.723 127.208 115.723 127.952C115.723 128.712 115.883 129.292 116.203 129.692C116.531 130.084 116.995 130.28 117.595 130.28ZM121.969 122.804C122.233 122.652 122.513 122.54 122.809 122.468C123.113 122.396 123.401 122.36 123.673 122.36C124.137 122.36 124.541 122.44 124.885 122.6C125.237 122.76 125.509 122.98 125.701 123.26C125.893 123.54 125.989 123.872 125.989 124.256C125.989 124.624 125.917 124.952 125.773 125.24C125.637 125.528 125.461 125.796 125.245 126.044C125.037 126.284 124.821 126.528 124.597 126.776C124.381 127.024 124.193 127.292 124.033 127.58C123.873 127.86 123.777 128.184 123.745 128.552L123.709 128.768H123.133V128.468C123.133 128.052 123.193 127.688 123.313 127.376C123.441 127.064 123.597 126.784 123.781 126.536C123.965 126.288 124.149 126.052 124.333 125.828C124.517 125.596 124.669 125.36 124.789 125.12C124.917 124.88 124.981 124.612 124.981 124.316C124.981 123.972 124.861 123.7 124.621 123.5C124.381 123.3 124.049 123.2 123.625 123.2C123.361 123.2 123.085 123.244 122.797 123.332C122.517 123.412 122.241 123.536 121.969 123.704V122.804ZM122.809 131V129.764H124.045V131H122.809Z" fill="#616161"/>
<path d="M42.0678 177.292C41.7238 177.036 41.3838 176.704 41.0478 176.296C40.7118 175.888 40.4198 175.472 40.1718 175.048L41.1318 174.724C41.3398 175.132 41.5838 175.492 41.8638 175.804C42.1438 176.116 42.4398 176.404 42.7518 176.668L42.0678 177.292ZM39.7638 175.096C38.9638 175.096 38.2718 174.92 37.6878 174.568C37.1118 174.216 36.6638 173.712 36.3438 173.056C36.0318 172.4 35.8758 171.624 35.8758 170.728C35.8758 169.824 36.0318 169.048 36.3438 168.4C36.6558 167.744 37.0998 167.24 37.6758 166.888C38.2598 166.536 38.9558 166.36 39.7638 166.36C40.5638 166.36 41.2558 166.536 41.8398 166.888C42.4238 167.24 42.8718 167.744 43.1838 168.4C43.4958 169.048 43.6518 169.82 43.6518 170.716C43.6518 171.62 43.4918 172.4 43.1718 173.056C42.8598 173.712 42.4118 174.216 41.8278 174.568C41.2518 174.92 40.5638 175.096 39.7638 175.096ZM39.7638 174.256C40.6678 174.256 41.3718 173.952 41.8758 173.344C42.3798 172.728 42.6318 171.852 42.6318 170.716C42.6318 169.58 42.3798 168.712 41.8758 168.112C41.3718 167.504 40.6678 167.2 39.7638 167.2C38.8598 167.2 38.1518 167.504 37.6398 168.112C37.1358 168.72 36.8838 169.588 36.8838 170.716C36.8838 171.844 37.1358 172.716 37.6398 173.332C38.1518 173.948 38.8598 174.256 39.7638 174.256ZM47.4734 175.084C46.7534 175.084 46.2094 174.884 45.8414 174.484C45.4814 174.084 45.3014 173.492 45.3014 172.708V168.964H46.2734V172.684C46.2734 173.228 46.3854 173.628 46.6094 173.884C46.8334 174.14 47.1734 174.268 47.6294 174.268C48.1654 174.268 48.5974 174.096 48.9254 173.752C49.2534 173.408 49.4174 172.948 49.4174 172.372V168.964H50.3894V175H49.4414V173.692L49.5854 173.62C49.4254 174.1 49.1534 174.464 48.7694 174.712C48.3934 174.96 47.9614 175.084 47.4734 175.084ZM54.5791 175.084C54.0431 175.084 53.5711 174.96 53.1631 174.712C52.7631 174.456 52.4511 174.096 52.2271 173.632C52.0111 173.16 51.9031 172.608 51.9031 171.976C51.9031 171.344 52.0151 170.792 52.2391 170.32C52.4631 169.848 52.7751 169.48 53.1751 169.216C53.5831 168.952 54.0511 168.82 54.5791 168.82C55.1311 168.82 55.5991 168.956 55.9831 169.228C56.3671 169.5 56.6271 169.888 56.7631 170.392L56.6191 170.488V168.964H57.5791V175H56.6191V173.44L56.7631 173.512C56.6271 174.016 56.3671 174.404 55.9831 174.676C55.5991 174.948 55.1311 175.084 54.5791 175.084ZM54.7711 174.28C55.3631 174.28 55.8191 174.08 56.1391 173.68C56.4591 173.272 56.6191 172.696 56.6191 171.952C56.6191 171.208 56.4551 170.636 56.1271 170.236C55.8071 169.836 55.3551 169.636 54.7711 169.636C54.1791 169.636 53.7151 169.844 53.3791 170.26C53.0511 170.668 52.8871 171.24 52.8871 171.976C52.8871 172.712 53.0511 173.28 53.3791 173.68C53.7151 174.08 54.1791 174.28 54.7711 174.28ZM59.4585 175V170.656C59.4585 170.376 59.4505 170.096 59.4345 169.816C59.4265 169.528 59.4025 169.244 59.3625 168.964H60.2865L60.3945 170.212L60.2745 170.308C60.4425 169.82 60.7225 169.452 61.1145 169.204C61.5065 168.948 61.9585 168.82 62.4705 168.82C63.9185 168.82 64.6425 169.616 64.6425 171.208V175H63.6705V171.256C63.6705 170.696 63.5585 170.288 63.3345 170.032C63.1105 169.768 62.7585 169.636 62.2785 169.636C61.7185 169.636 61.2705 169.808 60.9345 170.152C60.5985 170.496 60.4305 170.96 60.4305 171.544V175H59.4585ZM71.794 175H70.834V173.38L70.978 173.512C70.842 174.016 70.582 174.404 70.198 174.676C69.814 174.948 69.346 175.084 68.794 175.084C68.266 175.084 67.798 174.956 67.39 174.7C66.99 174.436 66.678 174.068 66.454 173.596C66.23 173.116 66.118 172.56 66.118 171.928C66.118 171.296 66.226 170.748 66.442 170.284C66.666 169.82 66.978 169.46 67.378 169.204C67.786 168.948 68.258 168.82 68.794 168.82C69.346 168.82 69.814 168.96 70.198 169.24C70.582 169.512 70.842 169.896 70.978 170.392L70.822 170.512V166.168H71.794V175ZM68.986 174.28C69.57 174.28 70.022 174.08 70.342 173.68C70.67 173.272 70.834 172.696 70.834 171.952C70.834 171.216 70.674 170.648 70.354 170.248C70.034 169.84 69.578 169.636 68.986 169.636C68.394 169.636 67.93 169.836 67.594 170.236C67.266 170.636 67.102 171.2 67.102 171.928C67.102 172.672 67.266 173.252 67.594 173.668C67.93 174.076 68.394 174.28 68.986 174.28ZM76.1693 175.084C75.5933 175.084 75.0893 174.956 74.6573 174.7C74.2333 174.444 73.9013 174.084 73.6613 173.62C73.4293 173.148 73.3133 172.592 73.3133 171.952C73.3133 171.32 73.4293 170.768 73.6613 170.296C73.9013 169.824 74.2333 169.46 74.6573 169.204C75.0893 168.948 75.5933 168.82 76.1693 168.82C76.7453 168.82 77.2453 168.948 77.6693 169.204C78.1013 169.46 78.4333 169.824 78.6653 170.296C78.9053 170.768 79.0253 171.32 79.0253 171.952C79.0253 172.592 78.9053 173.148 78.6653 173.62C78.4333 174.084 78.1013 174.444 77.6693 174.7C77.2453 174.956 76.7453 175.084 76.1693 175.084ZM76.1693 174.28C76.7613 174.28 77.2173 174.084 77.5373 173.692C77.8653 173.292 78.0293 172.712 78.0293 171.952C78.0293 171.208 77.8653 170.636 77.5373 170.236C77.2093 169.836 76.7533 169.636 76.1693 169.636C75.5853 169.636 75.1253 169.836 74.7893 170.236C74.4613 170.636 74.2973 171.208 74.2973 171.952C74.2973 172.712 74.4573 173.292 74.7773 173.692C75.1053 174.084 75.5693 174.28 76.1693 174.28ZM82.8174 169.732V168.964H86.6934V169.732H82.8174ZM86.6694 174.136V174.964C86.5334 175.004 86.3974 175.032 86.2614 175.048C86.1334 175.072 85.9894 175.084 85.8294 175.084C85.2694 175.084 84.8214 174.924 84.4854 174.604C84.1574 174.284 83.9934 173.804 83.9934 173.164V167.416L84.9654 167.068V173.032C84.9654 173.352 85.0094 173.6 85.0974 173.776C85.1934 173.952 85.3214 174.076 85.4814 174.148C85.6414 174.212 85.8214 174.244 86.0214 174.244C86.1414 174.244 86.2494 174.236 86.3454 174.22C86.4414 174.204 86.5494 174.176 86.6694 174.136ZM92.8087 174.28C92.5447 174.528 92.2047 174.724 91.7887 174.868C91.3807 175.012 90.9607 175.084 90.5287 175.084C89.9047 175.084 89.3647 174.96 88.9087 174.712C88.4607 174.464 88.1127 174.108 87.8647 173.644C87.6247 173.172 87.5047 172.612 87.5047 171.964C87.5047 171.34 87.6247 170.792 87.8647 170.32C88.1047 169.848 88.4367 169.48 88.8607 169.216C89.2927 168.952 89.7887 168.82 90.3487 168.82C90.8847 168.82 91.3447 168.94 91.7287 169.18C92.1127 169.412 92.4047 169.748 92.6047 170.188C92.8127 170.628 92.9167 171.156 92.9167 171.772V171.952H88.3567V171.316H92.3647L92.0527 171.76C92.0687 171.056 91.9287 170.516 91.6327 170.14C91.3447 169.764 90.9207 169.576 90.3607 169.576C89.7767 169.576 89.3167 169.784 88.9807 170.2C88.6527 170.608 88.4887 171.176 88.4887 171.904C88.4887 172.688 88.6607 173.28 89.0047 173.68C89.3567 174.08 89.8687 174.28 90.5407 174.28C90.8927 174.28 91.2287 174.224 91.5487 174.112C91.8767 173.992 92.1887 173.812 92.4847 173.572L92.8087 174.28ZM94.3921 175V170.656C94.3921 170.376 94.3841 170.096 94.3681 169.816C94.3601 169.528 94.3361 169.244 94.2961 168.964H95.2201L95.3521 170.452L95.2201 170.416C95.3321 169.888 95.5721 169.492 95.9401 169.228C96.3161 168.956 96.7361 168.82 97.2001 168.82C97.3041 168.82 97.4001 168.828 97.4881 168.844C97.5841 168.852 97.6721 168.868 97.7521 168.892L97.7281 169.78C97.5441 169.716 97.3321 169.684 97.0921 169.684C96.6761 169.684 96.3401 169.776 96.0841 169.96C95.8361 170.144 95.6521 170.38 95.5321 170.668C95.4201 170.948 95.3641 171.244 95.3641 171.556V175H94.3921ZM103.567 174.28C103.303 174.528 102.963 174.724 102.547 174.868C102.139 175.012 101.719 175.084 101.287 175.084C100.663 175.084 100.123 174.96 99.6665 174.712C99.2185 174.464 98.8705 174.108 98.6225 173.644C98.3825 173.172 98.2625 172.612 98.2625 171.964C98.2625 171.34 98.3825 170.792 98.6225 170.32C98.8625 169.848 99.1945 169.48 99.6185 169.216C100.051 168.952 100.547 168.82 101.107 168.82C101.643 168.82 102.103 168.94 102.487 169.18C102.871 169.412 103.163 169.748 103.363 170.188C103.571 170.628 103.675 171.156 103.675 171.772V171.952H99.1145V171.316H103.123L102.811 171.76C102.827 171.056 102.687 170.516 102.391 170.14C102.103 169.764 101.679 169.576 101.119 169.576C100.535 169.576 100.075 169.784 99.7385 170.2C99.4105 170.608 99.2465 171.176 99.2465 171.904C99.2465 172.688 99.4185 173.28 99.7625 173.68C100.115 174.08 100.627 174.28 101.299 174.28C101.651 174.28 101.987 174.224 102.307 174.112C102.635 173.992 102.947 173.812 103.243 173.572L103.567 174.28ZM105.15 175V168.964H106.122V175H105.15ZM105.054 166.408H106.242V167.512H105.054V166.408ZM113.454 175.084C112.918 175.084 112.446 174.96 112.038 174.712C111.638 174.456 111.326 174.096 111.102 173.632C110.886 173.16 110.778 172.608 110.778 171.976C110.778 171.344 110.89 170.792 111.114 170.32C111.338 169.848 111.65 169.48 112.05 169.216C112.458 168.952 112.926 168.82 113.454 168.82C114.006 168.82 114.474 168.956 114.858 169.228C115.242 169.5 115.502 169.888 115.638 170.392L115.494 170.488V168.964H116.454V175H115.494V173.44L115.638 173.512C115.502 174.016 115.242 174.404 114.858 174.676C114.474 174.948 114.006 175.084 113.454 175.084ZM113.646 174.28C114.238 174.28 114.694 174.08 115.014 173.68C115.334 173.272 115.494 172.696 115.494 171.952C115.494 171.208 115.33 170.636 115.002 170.236C114.682 169.836 114.23 169.636 113.646 169.636C113.054 169.636 112.59 169.844 112.254 170.26C111.926 170.668 111.762 171.24 111.762 171.976C111.762 172.712 111.926 173.28 112.254 173.68C112.59 174.08 113.054 174.28 113.646 174.28ZM120.865 175.084C120.273 175.084 119.761 174.956 119.329 174.7C118.897 174.444 118.561 174.084 118.321 173.62C118.089 173.156 117.973 172.608 117.973 171.976C117.973 171.352 118.093 170.804 118.333 170.332C118.573 169.852 118.913 169.48 119.353 169.216C119.793 168.952 120.313 168.82 120.913 168.82C121.321 168.82 121.713 168.892 122.089 169.036C122.473 169.172 122.789 169.364 123.037 169.612L122.713 170.332C122.417 170.1 122.125 169.928 121.837 169.816C121.557 169.696 121.265 169.636 120.961 169.636C120.353 169.636 119.869 169.84 119.509 170.248C119.157 170.656 118.981 171.232 118.981 171.976C118.981 172.712 119.157 173.28 119.509 173.68C119.861 174.08 120.345 174.28 120.961 174.28C121.257 174.28 121.549 174.224 121.837 174.112C122.125 173.992 122.417 173.816 122.713 173.584L123.037 174.304C122.781 174.544 122.457 174.736 122.065 174.88C121.681 175.016 121.281 175.084 120.865 175.084ZM129.219 174.28C128.955 174.528 128.615 174.724 128.199 174.868C127.791 175.012 127.371 175.084 126.939 175.084C126.315 175.084 125.775 174.96 125.319 174.712C124.871 174.464 124.523 174.108 124.275 173.644C124.035 173.172 123.915 172.612 123.915 171.964C123.915 171.34 124.035 170.792 124.275 170.32C124.515 169.848 124.847 169.48 125.271 169.216C125.703 168.952 126.199 168.82 126.759 168.82C127.295 168.82 127.755 168.94 128.139 169.18C128.523 169.412 128.815 169.748 129.015 170.188C129.223 170.628 129.327 171.156 129.327 171.772V171.952H124.767V171.316H128.775L128.463 171.76C128.479 171.056 128.339 170.516 128.043 170.14C127.755 169.764 127.331 169.576 126.771 169.576C126.187 169.576 125.727 169.784 125.391 170.2C125.063 170.608 124.899 171.176 124.899 171.904C124.899 172.688 125.071 173.28 125.415 173.68C125.767 174.08 126.279 174.28 126.951 174.28C127.303 174.28 127.639 174.224 127.959 174.112C128.287 173.992 128.599 173.812 128.895 173.572L129.219 174.28ZM132.842 175.084C131.826 175.084 131.022 174.824 130.43 174.304L130.754 173.584C131.074 173.832 131.402 174.016 131.738 174.136C132.082 174.248 132.462 174.304 132.878 174.304C133.334 174.304 133.678 174.228 133.91 174.076C134.15 173.916 134.27 173.688 134.27 173.392C134.27 173.152 134.19 172.964 134.03 172.828C133.87 172.684 133.606 172.568 133.238 172.48L132.218 172.24C131.714 172.128 131.322 171.928 131.042 171.64C130.77 171.352 130.634 171.008 130.634 170.608C130.634 170.256 130.73 169.948 130.922 169.684C131.114 169.412 131.382 169.2 131.726 169.048C132.07 168.896 132.478 168.82 132.95 168.82C133.374 168.82 133.774 168.888 134.15 169.024C134.526 169.16 134.842 169.356 135.098 169.612L134.774 170.32C134.486 170.08 134.19 169.904 133.886 169.792C133.59 169.672 133.278 169.612 132.95 169.612C132.518 169.612 132.182 169.696 131.942 169.864C131.71 170.032 131.594 170.26 131.594 170.548C131.594 170.796 131.666 170.992 131.81 171.136C131.962 171.28 132.202 171.392 132.53 171.472L133.55 171.724C134.118 171.844 134.534 172.044 134.798 172.324C135.07 172.596 135.206 172.944 135.206 173.368C135.206 173.888 134.994 174.304 134.57 174.616C134.146 174.928 133.57 175.084 132.842 175.084ZM138.795 175.084C137.779 175.084 136.975 174.824 136.383 174.304L136.707 173.584C137.027 173.832 137.355 174.016 137.691 174.136C138.035 174.248 138.415 174.304 138.831 174.304C139.287 174.304 139.631 174.228 139.863 174.076C140.103 173.916 140.223 173.688 140.223 173.392C140.223 173.152 140.143 172.964 139.983 172.828C139.823 172.684 139.559 172.568 139.191 172.48L138.171 172.24C137.667 172.128 137.275 171.928 136.995 171.64C136.723 171.352 136.587 171.008 136.587 170.608C136.587 170.256 136.683 169.948 136.875 169.684C137.067 169.412 137.335 169.2 137.679 169.048C138.023 168.896 138.431 168.82 138.903 168.82C139.327 168.82 139.727 168.888 140.103 169.024C140.479 169.16 140.795 169.356 141.051 169.612L140.727 170.32C140.439 170.08 140.143 169.904 139.839 169.792C139.543 169.672 139.231 169.612 138.903 169.612C138.471 169.612 138.135 169.696 137.895 169.864C137.663 170.032 137.547 170.26 137.547 170.548C137.547 170.796 137.619 170.992 137.763 171.136C137.915 171.28 138.155 171.392 138.483 171.472L139.503 171.724C140.071 171.844 140.487 172.044 140.751 172.324C141.023 172.596 141.159 172.944 141.159 173.368C141.159 173.888 140.947 174.304 140.523 174.616C140.099 174.928 139.523 175.084 138.795 175.084ZM145.204 175.084C144.628 175.084 144.124 174.956 143.692 174.7C143.268 174.444 142.936 174.084 142.696 173.62C142.464 173.148 142.348 172.592 142.348 171.952C142.348 171.32 142.464 170.768 142.696 170.296C142.936 169.824 143.268 169.46 143.692 169.204C144.124 168.948 144.628 168.82 145.204 168.82C145.78 168.82 146.28 168.948 146.704 169.204C147.136 169.46 147.468 169.824 147.7 170.296C147.94 170.768 148.06 171.32 148.06 171.952C148.06 172.592 147.94 173.148 147.7 173.62C147.468 174.084 147.136 174.444 146.704 174.7C146.28 174.956 145.78 175.084 145.204 175.084ZM145.204 174.28C145.796 174.28 146.252 174.084 146.572 173.692C146.9 173.292 147.064 172.712 147.064 171.952C147.064 171.208 146.9 170.636 146.572 170.236C146.244 169.836 145.788 169.636 145.204 169.636C144.62 169.636 144.16 169.836 143.824 170.236C143.496 170.636 143.332 171.208 143.332 171.952C143.332 172.712 143.492 173.292 143.812 173.692C144.14 174.084 144.604 174.28 145.204 174.28ZM155.021 175.084C154.485 175.084 154.013 174.96 153.605 174.712C153.205 174.456 152.893 174.096 152.669 173.632C152.453 173.16 152.345 172.608 152.345 171.976C152.345 171.344 152.457 170.792 152.681 170.32C152.905 169.848 153.217 169.48 153.617 169.216C154.025 168.952 154.493 168.82 155.021 168.82C155.573 168.82 156.041 168.956 156.425 169.228C156.809 169.5 157.069 169.888 157.205 170.392L157.061 170.488V168.964H158.021V175H157.061V173.44L157.205 173.512C157.069 174.016 156.809 174.404 156.425 174.676C156.041 174.948 155.573 175.084 155.021 175.084ZM155.213 174.28C155.805 174.28 156.261 174.08 156.581 173.68C156.901 173.272 157.061 172.696 157.061 171.952C157.061 171.208 156.897 170.636 156.569 170.236C156.249 169.836 155.797 169.636 155.213 169.636C154.621 169.636 154.157 169.844 153.821 170.26C153.493 170.668 153.329 171.24 153.329 171.976C153.329 172.712 153.493 173.28 153.821 173.68C154.157 174.08 154.621 174.28 155.213 174.28ZM162.396 175.084C161.82 175.084 161.316 174.956 160.884 174.7C160.46 174.444 160.128 174.084 159.888 173.62C159.656 173.148 159.54 172.592 159.54 171.952C159.54 171.32 159.656 170.768 159.888 170.296C160.128 169.824 160.46 169.46 160.884 169.204C161.316 168.948 161.82 168.82 162.396 168.82C162.972 168.82 163.472 168.948 163.896 169.204C164.328 169.46 164.66 169.824 164.892 170.296C165.132 170.768 165.252 171.32 165.252 171.952C165.252 172.592 165.132 173.148 164.892 173.62C164.66 174.084 164.328 174.444 163.896 174.7C163.472 174.956 162.972 175.084 162.396 175.084ZM162.396 174.28C162.988 174.28 163.444 174.084 163.764 173.692C164.092 173.292 164.256 172.712 164.256 171.952C164.256 171.208 164.092 170.636 163.764 170.236C163.436 169.836 162.98 169.636 162.396 169.636C161.812 169.636 161.352 169.836 161.016 170.236C160.688 170.636 160.524 171.208 160.524 171.952C160.524 172.712 160.684 173.292 161.004 173.692C161.332 174.084 161.796 174.28 162.396 174.28ZM171.936 175.084C170.92 175.084 170.116 174.824 169.524 174.304L169.848 173.584C170.168 173.832 170.496 174.016 170.832 174.136C171.176 174.248 171.556 174.304 171.972 174.304C172.428 174.304 172.772 174.228 173.004 174.076C173.244 173.916 173.364 173.688 173.364 173.392C173.364 173.152 173.284 172.964 173.124 172.828C172.964 172.684 172.7 172.568 172.332 172.48L171.312 172.24C170.808 172.128 170.416 171.928 170.136 171.64C169.864 171.352 169.728 171.008 169.728 170.608C169.728 170.256 169.824 169.948 170.016 169.684C170.208 169.412 170.476 169.2 170.82 169.048C171.164 168.896 171.572 168.82 172.044 168.82C172.468 168.82 172.868 168.888 173.244 169.024C173.62 169.16 173.936 169.356 174.192 169.612L173.868 170.32C173.58 170.08 173.284 169.904 172.98 169.792C172.684 169.672 172.372 169.612 172.044 169.612C171.612 169.612 171.276 169.696 171.036 169.864C170.804 170.032 170.688 170.26 170.688 170.548C170.688 170.796 170.76 170.992 170.904 171.136C171.056 171.28 171.296 171.392 171.624 171.472L172.644 171.724C173.212 171.844 173.628 172.044 173.892 172.324C174.164 172.596 174.3 172.944 174.3 173.368C174.3 173.888 174.088 174.304 173.664 174.616C173.24 174.928 172.664 175.084 171.936 175.084ZM180.793 174.28C180.529 174.528 180.189 174.724 179.773 174.868C179.365 175.012 178.945 175.084 178.513 175.084C177.889 175.084 177.349 174.96 176.893 174.712C176.445 174.464 176.097 174.108 175.849 173.644C175.609 173.172 175.489 172.612 175.489 171.964C175.489 171.34 175.609 170.792 175.849 170.32C176.089 169.848 176.421 169.48 176.845 169.216C177.277 168.952 177.773 168.82 178.333 168.82C178.869 168.82 179.329 168.94 179.713 169.18C180.097 169.412 180.389 169.748 180.589 170.188C180.797 170.628 180.901 171.156 180.901 171.772V171.952H176.341V171.316H180.349L180.037 171.76C180.053 171.056 179.913 170.516 179.617 170.14C179.329 169.764 178.905 169.576 178.345 169.576C177.761 169.576 177.301 169.784 176.965 170.2C176.637 170.608 176.473 171.176 176.473 171.904C176.473 172.688 176.645 173.28 176.989 173.68C177.341 174.08 177.853 174.28 178.525 174.28C178.877 174.28 179.213 174.224 179.533 174.112C179.861 173.992 180.173 173.812 180.469 173.572L180.793 174.28ZM182.376 175V170.656C182.376 170.376 182.368 170.096 182.352 169.816C182.344 169.528 182.32 169.244 182.28 168.964H183.204L183.336 170.452L183.204 170.416C183.316 169.888 183.556 169.492 183.924 169.228C184.3 168.956 184.72 168.82 185.184 168.82C185.288 168.82 185.384 168.828 185.472 168.844C185.568 168.852 185.656 168.868 185.736 168.892L185.712 169.78C185.528 169.716 185.316 169.684 185.076 169.684C184.66 169.684 184.324 169.776 184.068 169.96C183.82 170.144 183.636 170.38 183.516 170.668C183.404 170.948 183.348 171.244 183.348 171.556V175H182.376ZM188.863 175L186.295 168.976H187.315L189.499 174.292H189.211L191.419 168.976H192.391L189.787 175H188.863ZM193.462 175V168.964H194.434V175H193.462ZM193.366 166.408H194.554V167.512H193.366V166.408ZM198.854 175.084C198.262 175.084 197.75 174.956 197.318 174.7C196.886 174.444 196.55 174.084 196.31 173.62C196.078 173.156 195.962 172.608 195.962 171.976C195.962 171.352 196.082 170.804 196.322 170.332C196.562 169.852 196.902 169.48 197.342 169.216C197.782 168.952 198.302 168.82 198.902 168.82C199.31 168.82 199.702 168.892 200.078 169.036C200.462 169.172 200.778 169.364 201.026 169.612L200.702 170.332C200.406 170.1 200.114 169.928 199.826 169.816C199.546 169.696 199.254 169.636 198.95 169.636C198.342 169.636 197.858 169.84 197.498 170.248C197.146 170.656 196.97 171.232 196.97 171.976C196.97 172.712 197.146 173.28 197.498 173.68C197.85 174.08 198.334 174.28 198.95 174.28C199.246 174.28 199.538 174.224 199.826 174.112C200.114 173.992 200.406 173.816 200.702 173.584L201.026 174.304C200.77 174.544 200.446 174.736 200.054 174.88C199.67 175.016 199.27 175.084 198.854 175.084ZM198.782 177.34C198.622 177.34 198.442 177.32 198.242 177.28C198.042 177.248 197.866 177.192 197.714 177.112L197.87 176.584C198.038 176.648 198.194 176.692 198.338 176.716C198.49 176.74 198.638 176.752 198.782 176.752C199.006 176.752 199.174 176.712 199.286 176.632C199.398 176.56 199.454 176.46 199.454 176.332C199.454 176.116 199.314 176.008 199.034 176.008C198.93 176.008 198.83 176.016 198.734 176.032C198.646 176.056 198.562 176.084 198.482 176.116L198.242 175.924L198.374 174.76H199.058L198.962 175.636L198.662 175.612C198.766 175.572 198.866 175.54 198.962 175.516C199.066 175.5 199.166 175.492 199.262 175.492C199.494 175.492 199.706 175.56 199.898 175.696C200.09 175.832 200.186 176.044 200.186 176.332C200.186 176.62 200.062 176.86 199.814 177.052C199.574 177.244 199.23 177.34 198.782 177.34ZM204.759 175.084C204.183 175.084 203.679 174.956 203.247 174.7C202.823 174.444 202.491 174.084 202.251 173.62C202.019 173.148 201.903 172.592 201.903 171.952C201.903 171.32 202.019 170.768 202.251 170.296C202.491 169.824 202.823 169.46 203.247 169.204C203.679 168.948 204.183 168.82 204.759 168.82C205.335 168.82 205.835 168.948 206.259 169.204C206.691 169.46 207.023 169.824 207.255 170.296C207.495 170.768 207.615 171.32 207.615 171.952C207.615 172.592 207.495 173.148 207.255 173.62C207.023 174.084 206.691 174.444 206.259 174.7C205.835 174.956 205.335 175.084 204.759 175.084ZM204.759 174.28C205.351 174.28 205.807 174.084 206.127 173.692C206.455 173.292 206.619 172.712 206.619 171.952C206.619 171.208 206.455 170.636 206.127 170.236C205.799 169.836 205.343 169.636 204.759 169.636C204.175 169.636 203.715 169.836 203.379 170.236C203.051 170.636 202.887 171.208 202.887 171.952C202.887 172.712 203.047 173.292 203.367 173.692C203.695 174.084 204.159 174.28 204.759 174.28ZM209.133 166.804C209.397 166.652 209.677 166.54 209.973 166.468C210.277 166.396 210.565 166.36 210.837 166.36C211.301 166.36 211.705 166.44 212.049 166.6C212.401 166.76 212.673 166.98 212.865 167.26C213.057 167.54 213.153 167.872 213.153 168.256C213.153 168.624 213.081 168.952 212.937 169.24C212.801 169.528 212.625 169.796 212.409 170.044C212.201 170.284 211.985 170.528 211.761 170.776C211.545 171.024 211.357 171.292 211.197 171.58C211.037 171.86 210.941 172.184 210.909 172.552L210.873 172.768H210.297V172.468C210.297 172.052 210.357 171.688 210.477 171.376C210.605 171.064 210.761 170.784 210.945 170.536C211.129 170.288 211.313 170.052 211.497 169.828C211.681 169.596 211.833 169.36 211.953 169.12C212.081 168.88 212.145 168.612 212.145 168.316C212.145 167.972 212.025 167.7 211.785 167.5C211.545 167.3 211.213 167.2 210.789 167.2C210.525 167.2 210.249 167.244 209.961 167.332C209.681 167.412 209.405 167.536 209.133 167.704V166.804ZM209.973 175V173.764H211.209V175H209.973Z" fill="#616161"/>
<path d="M36.1878 219V210.456H39.5958C40.4758 210.456 41.1598 210.668 41.6478 211.092C42.1438 211.516 42.3918 212.1 42.3918 212.844C42.3918 213.58 42.1438 214.164 41.6478 214.596C41.1518 215.028 40.4678 215.244 39.5958 215.244H37.1718V219H36.1878ZM37.1718 214.428H39.5118C40.1438 214.428 40.6198 214.292 40.9398 214.02C41.2598 213.74 41.4198 213.348 41.4198 212.844C41.4198 212.34 41.2598 211.952 40.9398 211.68C40.6198 211.408 40.1438 211.272 39.5118 211.272H37.1718V214.428ZM46.181 219.084C45.605 219.084 45.101 218.956 44.669 218.7C44.245 218.444 43.913 218.084 43.673 217.62C43.441 217.148 43.325 216.592 43.325 215.952C43.325 215.32 43.441 214.768 43.673 214.296C43.913 213.824 44.245 213.46 44.669 213.204C45.101 212.948 45.605 212.82 46.181 212.82C46.757 212.82 47.257 212.948 47.681 213.204C48.113 213.46 48.445 213.824 48.677 214.296C48.917 214.768 49.037 215.32 49.037 215.952C49.037 216.592 48.917 217.148 48.677 217.62C48.445 218.084 48.113 218.444 47.681 218.7C47.257 218.956 46.757 219.084 46.181 219.084ZM46.181 218.28C46.773 218.28 47.229 218.084 47.549 217.692C47.877 217.292 48.041 216.712 48.041 215.952C48.041 215.208 47.877 214.636 47.549 214.236C47.221 213.836 46.765 213.636 46.181 213.636C45.597 213.636 45.137 213.836 44.801 214.236C44.473 214.636 44.309 215.208 44.309 215.952C44.309 216.712 44.469 217.292 44.789 217.692C45.117 218.084 45.581 218.28 46.181 218.28ZM50.5522 219V210.168H51.5242V219H50.5522ZM53.4116 219V212.964H54.3836V219H53.4116ZM54.2516 212.184H53.5676L54.7676 209.736H55.8956L54.2516 212.184ZM55.419 213.732V212.964H59.295V213.732H55.419ZM59.271 218.136V218.964C59.135 219.004 58.999 219.032 58.863 219.048C58.735 219.072 58.591 219.084 58.431 219.084C57.871 219.084 57.423 218.924 57.087 218.604C56.759 218.284 56.595 217.804 56.595 217.164V211.416L57.567 211.068V217.032C57.567 217.352 57.611 217.6 57.699 217.776C57.795 217.952 57.923 218.076 58.083 218.148C58.243 218.212 58.423 218.244 58.623 218.244C58.743 218.244 58.851 218.236 58.947 218.22C59.043 218.204 59.151 218.176 59.271 218.136ZM60.4663 219V212.964H61.4383V219H60.4663ZM60.3703 210.408H61.5583V211.512H60.3703V210.408ZM65.8576 219.084C65.2656 219.084 64.7536 218.956 64.3216 218.7C63.8896 218.444 63.5536 218.084 63.3136 217.62C63.0816 217.156 62.9656 216.608 62.9656 215.976C62.9656 215.352 63.0856 214.804 63.3256 214.332C63.5656 213.852 63.9056 213.48 64.3456 213.216C64.7856 212.952 65.3056 212.82 65.9056 212.82C66.3136 212.82 66.7056 212.892 67.0816 213.036C67.4656 213.172 67.7816 213.364 68.0296 213.612L67.7056 214.332C67.4096 214.1 67.1176 213.928 66.8296 213.816C66.5496 213.696 66.2576 213.636 65.9536 213.636C65.3456 213.636 64.8616 213.84 64.5016 214.248C64.1496 214.656 63.9736 215.232 63.9736 215.976C63.9736 216.712 64.1496 217.28 64.5016 217.68C64.8536 218.08 65.3376 218.28 65.9536 218.28C66.2496 218.28 66.5416 218.224 66.8296 218.112C67.1176 217.992 67.4096 217.816 67.7056 217.584L68.0296 218.304C67.7736 218.544 67.4496 218.736 67.0576 218.88C66.6736 219.016 66.2736 219.084 65.8576 219.084ZM71.5831 219.084C71.0471 219.084 70.5751 218.96 70.1671 218.712C69.7671 218.456 69.4551 218.096 69.2311 217.632C69.0151 217.16 68.9071 216.608 68.9071 215.976C68.9071 215.344 69.0191 214.792 69.2431 214.32C69.4671 213.848 69.7791 213.48 70.1791 213.216C70.5871 212.952 71.0551 212.82 71.5831 212.82C72.1351 212.82 72.6031 212.956 72.9871 213.228C73.3711 213.5 73.6311 213.888 73.7671 214.392L73.6231 214.488V212.964H74.5831V219H73.6231V217.44L73.7671 217.512C73.6311 218.016 73.3711 218.404 72.9871 218.676C72.6031 218.948 72.1351 219.084 71.5831 219.084ZM71.7751 218.28C72.3671 218.28 72.8231 218.08 73.1431 217.68C73.4631 217.272 73.6231 216.696 73.6231 215.952C73.6231 215.208 73.4591 214.636 73.1311 214.236C72.8111 213.836 72.3591 213.636 71.7751 213.636C71.1831 213.636 70.7191 213.844 70.3831 214.26C70.0551 214.668 69.8911 215.24 69.8911 215.976C69.8911 216.712 70.0551 217.28 70.3831 217.68C70.7191 218.08 71.1831 218.28 71.7751 218.28ZM78.5024 219.084C77.4864 219.084 76.6824 218.824 76.0904 218.304L76.4144 217.584C76.7344 217.832 77.0624 218.016 77.3984 218.136C77.7424 218.248 78.1224 218.304 78.5384 218.304C78.9944 218.304 79.3384 218.228 79.5704 218.076C79.8104 217.916 79.9304 217.688 79.9304 217.392C79.9304 217.152 79.8504 216.964 79.6904 216.828C79.5304 216.684 79.2664 216.568 78.8984 216.48L77.8784 216.24C77.3744 216.128 76.9824 215.928 76.7024 215.64C76.4304 215.352 76.2944 215.008 76.2944 214.608C76.2944 214.256 76.3904 213.948 76.5824 213.684C76.7744 213.412 77.0424 213.2 77.3864 213.048C77.7304 212.896 78.1384 212.82 78.6104 212.82C79.0344 212.82 79.4344 212.888 79.8104 213.024C80.1864 213.16 80.5024 213.356 80.7584 213.612L80.4344 214.32C80.1464 214.08 79.8504 213.904 79.5464 213.792C79.2504 213.672 78.9384 213.612 78.6104 213.612C78.1784 213.612 77.8424 213.696 77.6024 213.864C77.3704 214.032 77.2544 214.26 77.2544 214.548C77.2544 214.796 77.3264 214.992 77.4704 215.136C77.6224 215.28 77.8624 215.392 78.1904 215.472L79.2104 215.724C79.7784 215.844 80.1944 216.044 80.4584 216.324C80.7304 216.596 80.8664 216.944 80.8664 217.368C80.8664 217.888 80.6544 218.304 80.2304 218.616C79.8064 218.928 79.2304 219.084 78.5024 219.084ZM90.8604 219H89.9004V217.38L90.0444 217.512C89.9084 218.016 89.6484 218.404 89.2644 218.676C88.8804 218.948 88.4124 219.084 87.8604 219.084C87.3324 219.084 86.8644 218.956 86.4564 218.7C86.0564 218.436 85.7444 218.068 85.5204 217.596C85.2964 217.116 85.1844 216.56 85.1844 215.928C85.1844 215.296 85.2924 214.748 85.5084 214.284C85.7324 213.82 86.0444 213.46 86.4444 213.204C86.8524 212.948 87.3244 212.82 87.8604 212.82C88.4124 212.82 88.8804 212.96 89.2644 213.24C89.6484 213.512 89.9084 213.896 90.0444 214.392L89.8884 214.512V210.168H90.8604V219ZM88.0524 218.28C88.6364 218.28 89.0884 218.08 89.4084 217.68C89.7364 217.272 89.9004 216.696 89.9004 215.952C89.9004 215.216 89.7404 214.648 89.4204 214.248C89.1004 213.84 88.6444 213.636 88.0524 213.636C87.4604 213.636 86.9964 213.836 86.6604 214.236C86.3324 214.636 86.1684 215.2 86.1684 215.928C86.1684 216.672 86.3324 217.252 86.6604 217.668C86.9964 218.076 87.4604 218.28 88.0524 218.28ZM97.6837 218.28C97.4197 218.528 97.0797 218.724 96.6637 218.868C96.2557 219.012 95.8357 219.084 95.4037 219.084C94.7797 219.084 94.2397 218.96 93.7837 218.712C93.3357 218.464 92.9877 218.108 92.7397 217.644C92.4997 217.172 92.3797 216.612 92.3797 215.964C92.3797 215.34 92.4997 214.792 92.7397 214.32C92.9797 213.848 93.3117 213.48 93.7357 213.216C94.1677 212.952 94.6637 212.82 95.2237 212.82C95.7597 212.82 96.2197 212.94 96.6037 213.18C96.9877 213.412 97.2797 213.748 97.4797 214.188C97.6877 214.628 97.7917 215.156 97.7917 215.772V215.952H93.2317V215.316H97.2397L96.9277 215.76C96.9437 215.056 96.8037 214.516 96.5077 214.14C96.2197 213.764 95.7957 213.576 95.2357 213.576C94.6517 213.576 94.1917 213.784 93.8557 214.2C93.5277 214.608 93.3637 215.176 93.3637 215.904C93.3637 216.688 93.5357 217.28 93.8797 217.68C94.2317 218.08 94.7437 218.28 95.4157 218.28C95.7677 218.28 96.1037 218.224 96.4237 218.112C96.7517 217.992 97.0637 217.812 97.3597 217.572L97.6837 218.28ZM104.928 219.084C104.336 219.084 103.824 218.956 103.392 218.7C102.96 218.444 102.624 218.084 102.384 217.62C102.152 217.156 102.036 216.608 102.036 215.976C102.036 215.352 102.156 214.804 102.396 214.332C102.636 213.852 102.976 213.48 103.416 213.216C103.856 212.952 104.376 212.82 104.976 212.82C105.384 212.82 105.776 212.892 106.152 213.036C106.536 213.172 106.852 213.364 107.1 213.612L106.776 214.332C106.48 214.1 106.188 213.928 105.9 213.816C105.62 213.696 105.328 213.636 105.024 213.636C104.416 213.636 103.932 213.84 103.572 214.248C103.22 214.656 103.044 215.232 103.044 215.976C103.044 216.712 103.22 217.28 103.572 217.68C103.924 218.08 104.408 218.28 105.024 218.28C105.32 218.28 105.612 218.224 105.9 218.112C106.188 217.992 106.48 217.816 106.776 217.584L107.1 218.304C106.844 218.544 106.52 218.736 106.128 218.88C105.744 219.016 105.344 219.084 104.928 219.084ZM110.653 219.084C110.117 219.084 109.645 218.96 109.237 218.712C108.837 218.456 108.525 218.096 108.301 217.632C108.085 217.16 107.977 216.608 107.977 215.976C107.977 215.344 108.089 214.792 108.313 214.32C108.537 213.848 108.849 213.48 109.249 213.216C109.657 212.952 110.125 212.82 110.653 212.82C111.205 212.82 111.673 212.956 112.057 213.228C112.441 213.5 112.701 213.888 112.837 214.392L112.693 214.488V212.964H113.653V219H112.693V217.44L112.837 217.512C112.701 218.016 112.441 218.404 112.057 218.676C111.673 218.948 111.205 219.084 110.653 219.084ZM110.845 218.28C111.437 218.28 111.893 218.08 112.213 217.68C112.533 217.272 112.693 216.696 112.693 215.952C112.693 215.208 112.529 214.636 112.201 214.236C111.881 213.836 111.429 213.636 110.845 213.636C110.253 213.636 109.789 213.844 109.453 214.26C109.125 214.668 108.961 215.24 108.961 215.976C108.961 216.712 109.125 217.28 109.453 217.68C109.789 218.08 110.253 218.28 110.845 218.28ZM115.533 219V214.656C115.533 214.376 115.525 214.096 115.509 213.816C115.501 213.528 115.477 213.244 115.437 212.964H116.361L116.469 214.212L116.349 214.308C116.517 213.82 116.797 213.452 117.189 213.204C117.581 212.948 118.033 212.82 118.545 212.82C119.993 212.82 120.717 213.616 120.717 215.208V219H119.745V215.256C119.745 214.696 119.633 214.288 119.409 214.032C119.185 213.768 118.833 213.636 118.353 213.636C117.793 213.636 117.345 213.808 117.009 214.152C116.673 214.496 116.505 214.96 116.505 215.544V219H115.533ZM125.084 219.084C124.492 219.084 123.98 218.956 123.548 218.7C123.116 218.444 122.78 218.084 122.54 217.62C122.308 217.156 122.192 216.608 122.192 215.976C122.192 215.352 122.312 214.804 122.552 214.332C122.792 213.852 123.132 213.48 123.572 213.216C124.012 212.952 124.532 212.82 125.132 212.82C125.54 212.82 125.932 212.892 126.308 213.036C126.692 213.172 127.008 213.364 127.256 213.612L126.932 214.332C126.636 214.1 126.344 213.928 126.056 213.816C125.776 213.696 125.484 213.636 125.18 213.636C124.572 213.636 124.088 213.84 123.728 214.248C123.376 214.656 123.2 215.232 123.2 215.976C123.2 216.712 123.376 217.28 123.728 217.68C124.08 218.08 124.564 218.28 125.18 218.28C125.476 218.28 125.768 218.224 126.056 218.112C126.344 217.992 126.636 217.816 126.932 217.584L127.256 218.304C127 218.544 126.676 218.736 126.284 218.88C125.9 219.016 125.5 219.084 125.084 219.084ZM133.438 218.28C133.174 218.528 132.834 218.724 132.418 218.868C132.01 219.012 131.59 219.084 131.158 219.084C130.534 219.084 129.994 218.96 129.538 218.712C129.09 218.464 128.742 218.108 128.494 217.644C128.254 217.172 128.134 216.612 128.134 215.964C128.134 215.34 128.254 214.792 128.494 214.32C128.734 213.848 129.066 213.48 129.49 213.216C129.922 212.952 130.418 212.82 130.978 212.82C131.514 212.82 131.974 212.94 132.358 213.18C132.742 213.412 133.034 213.748 133.234 214.188C133.442 214.628 133.546 215.156 133.546 215.772V215.952H128.986V215.316H132.994L132.682 215.76C132.698 215.056 132.558 214.516 132.262 214.14C131.974 213.764 131.55 213.576 130.99 213.576C130.406 213.576 129.946 213.784 129.61 214.2C129.282 214.608 129.118 215.176 129.118 215.904C129.118 216.688 129.29 217.28 129.634 217.68C129.986 218.08 130.498 218.28 131.17 218.28C131.522 218.28 131.858 218.224 132.178 218.112C132.506 217.992 132.818 217.812 133.114 217.572L133.438 218.28ZM135.021 219V210.168H135.993V219H135.021ZM140.196 219.084C139.66 219.084 139.188 218.96 138.78 218.712C138.38 218.456 138.068 218.096 137.844 217.632C137.628 217.16 137.52 216.608 137.52 215.976C137.52 215.344 137.632 214.792 137.856 214.32C138.08 213.848 138.392 213.48 138.792 213.216C139.2 212.952 139.668 212.82 140.196 212.82C140.748 212.82 141.216 212.956 141.6 213.228C141.984 213.5 142.244 213.888 142.38 214.392L142.236 214.488V212.964H143.196V219H142.236V217.44L142.38 217.512C142.244 218.016 141.984 218.404 141.6 218.676C141.216 218.948 140.748 219.084 140.196 219.084ZM140.388 218.28C140.98 218.28 141.436 218.08 141.756 217.68C142.076 217.272 142.236 216.696 142.236 215.952C142.236 215.208 142.072 214.636 141.744 214.236C141.424 213.836 140.972 213.636 140.388 213.636C139.796 213.636 139.332 213.844 138.996 214.26C138.668 214.668 138.504 215.24 138.504 215.976C138.504 216.712 138.668 217.28 138.996 217.68C139.332 218.08 139.796 218.28 140.388 218.28ZM145.076 219V214.656C145.076 214.376 145.068 214.096 145.052 213.816C145.044 213.528 145.02 213.244 144.98 212.964H145.904L146.012 214.212L145.892 214.296C146.036 213.824 146.284 213.46 146.636 213.204C146.996 212.948 147.42 212.82 147.908 212.82C148.492 212.82 148.944 212.964 149.264 213.252C149.592 213.54 149.8 213.98 149.888 214.572L149.6 214.416C149.728 213.928 149.984 213.54 150.368 213.252C150.76 212.964 151.228 212.82 151.772 212.82C152.436 212.82 152.936 213.02 153.272 213.42C153.608 213.812 153.776 214.408 153.776 215.208V219H152.804V215.256C152.804 214.696 152.704 214.288 152.504 214.032C152.304 213.768 151.988 213.636 151.556 213.636C151.052 213.636 150.652 213.808 150.356 214.152C150.068 214.496 149.924 214.964 149.924 215.556V219H148.952V215.256C148.952 214.696 148.848 214.288 148.64 214.032C148.44 213.768 148.124 213.636 147.692 213.636C147.18 213.636 146.776 213.808 146.48 214.152C146.192 214.496 146.048 214.964 146.048 215.556V219H145.076ZM160.567 218.28C160.303 218.528 159.963 218.724 159.547 218.868C159.139 219.012 158.719 219.084 158.287 219.084C157.663 219.084 157.123 218.96 156.667 218.712C156.219 218.464 155.871 218.108 155.623 217.644C155.383 217.172 155.263 216.612 155.263 215.964C155.263 215.34 155.383 214.792 155.623 214.32C155.863 213.848 156.195 213.48 156.619 213.216C157.051 212.952 157.547 212.82 158.107 212.82C158.643 212.82 159.103 212.94 159.487 213.18C159.871 213.412 160.163 213.748 160.363 214.188C160.571 214.628 160.675 215.156 160.675 215.772V215.952H156.115V215.316H160.123L159.811 215.76C159.827 215.056 159.687 214.516 159.391 214.14C159.103 213.764 158.679 213.576 158.119 213.576C157.535 213.576 157.075 213.784 156.739 214.2C156.411 214.608 156.247 215.176 156.247 215.904C156.247 216.688 156.419 217.28 156.763 217.68C157.115 218.08 157.627 218.28 158.299 218.28C158.651 218.28 158.987 218.224 159.307 218.112C159.635 217.992 159.947 217.812 160.243 217.572L160.567 218.28ZM162.15 219V214.656C162.15 214.376 162.142 214.096 162.126 213.816C162.118 213.528 162.094 213.244 162.054 212.964H162.978L163.086 214.212L162.966 214.308C163.134 213.82 163.414 213.452 163.806 213.204C164.198 212.948 164.65 212.82 165.162 212.82C166.61 212.82 167.334 213.616 167.334 215.208V219H166.362V215.256C166.362 214.696 166.25 214.288 166.026 214.032C165.802 213.768 165.45 213.636 164.97 213.636C164.41 213.636 163.962 213.808 163.626 214.152C163.29 214.496 163.122 214.96 163.122 215.544V219H162.15ZM168.317 213.732V212.964H172.193V213.732H168.317ZM172.169 218.136V218.964C172.033 219.004 171.897 219.032 171.761 219.048C171.633 219.072 171.489 219.084 171.329 219.084C170.769 219.084 170.321 218.924 169.985 218.604C169.657 218.284 169.493 217.804 169.493 217.164V211.416L170.465 211.068V217.032C170.465 217.352 170.509 217.6 170.597 217.776C170.693 217.952 170.821 218.076 170.981 218.148C171.141 218.212 171.321 218.244 171.521 218.244C171.641 218.244 171.749 218.236 171.845 218.22C171.941 218.204 172.049 218.176 172.169 218.136ZM175.861 219.084C175.285 219.084 174.781 218.956 174.349 218.7C173.925 218.444 173.593 218.084 173.353 217.62C173.121 217.148 173.005 216.592 173.005 215.952C173.005 215.32 173.121 214.768 173.353 214.296C173.593 213.824 173.925 213.46 174.349 213.204C174.781 212.948 175.285 212.82 175.861 212.82C176.437 212.82 176.937 212.948 177.361 213.204C177.793 213.46 178.125 213.824 178.357 214.296C178.597 214.768 178.717 215.32 178.717 215.952C178.717 216.592 178.597 217.148 178.357 217.62C178.125 218.084 177.793 218.444 177.361 218.7C176.937 218.956 176.437 219.084 175.861 219.084ZM175.861 218.28C176.453 218.28 176.909 218.084 177.229 217.692C177.557 217.292 177.721 216.712 177.721 215.952C177.721 215.208 177.557 214.636 177.229 214.236C176.901 213.836 176.445 213.636 175.861 213.636C175.277 213.636 174.817 213.836 174.481 214.236C174.153 214.636 173.989 215.208 173.989 215.952C173.989 216.712 174.149 217.292 174.469 217.692C174.797 218.084 175.261 218.28 175.861 218.28Z" fill="#616161"/>
<defs>
<filter id="filter0_d" x="0" y="0" width="580" height="260" filterUnits="userSpaceOnUse" color-interpolation-filters="sRGB">
<feFlood flood-opacity="0" result="BackgroundImageFix"/>
<feColorMatrix in="SourceAlpha" type="matrix" values="0 0 0 0 0 0 0 0 0 0 0 0 0 0 0 0 0 0 127 0" result="hardAlpha"/>
<feOffset dy="4"/>
<feGaussianBlur stdDeviation="10"/>
<feColorMatrix type="matrix" values="0 0 0 0 0 0 0 0 0 0 0 0 0 0 0 0 0 0 0.05 0"/>
<feBlend mode="normal" in2="BackgroundImageFix" result="effect1_dropShadow"/>
<feBlend mode="normal" in="SourceGraphic" in2="effect1_dropShadow" result="shape"/>
</filter>
</defs>
</svg>
