<svg width="24" height="24" viewBox="0 0 24 24" fill="none" xmlns="http://www.w3.org/2000/svg">
<path d="M12.6562 10V8.65625H11.3438V10H12.6562ZM12.6562 15.3438V11.3438H11.3438V15.3438H12.6562ZM7.28125 7.3125C8.59375 6 10.1667 5.34375 12 5.34375C13.8333 5.34375 15.3958 6 16.6875 7.3125C18 8.60417 18.6562 10.1667 18.6562 12C18.6562 13.8333 18 15.4062 16.6875 16.7188C15.3958 18.0104 13.8333 18.6562 12 18.6562C10.1667 18.6562 8.59375 18.0104 7.28125 16.7188C5.98958 15.4062 5.34375 13.8333 5.34375 12C5.34375 10.1667 5.98958 8.60417 7.28125 7.3125Z" fill="#E1E1E1"/>
</svg>
