<svg width="32" height="32" viewBox="0 0 32 32" fill="none" xmlns="http://www.w3.org/2000/svg">
<path d="M18 23.3334L15.3333 26C12.756 28.5774 8.57733 28.5773 6 26C3.42267 23.4227 3.42267 19.244 6 16.6667L8.66667 14C11.244 11.4227 15.4227 11.4227 18 14C18.4085 14.4085 18.7522 14.8572 19.0312 15.3334M14 8.66668L16.6667 6.00001C19.244 3.42268 23.4227 3.42269 26 6.00002C28.5773 8.57734 28.5773 12.756 26 15.3334L23.3333 18C20.756 20.5773 16.5773 20.5773 14 18C13.5915 17.5915 13.2478 17.1428 12.9688 16.6667" stroke="black" stroke-width="3" stroke-linecap="round" stroke-linejoin="round"/>
</svg>
