<svg width="80" height="24" viewBox="0 0 80 24" fill="none" xmlns="http://www.w3.org/2000/svg">
<g clip-path="url(#clip0)">
<path d="M0.00474091 11.5954C0.00474091 9.48334 -0.00614582 7.3735 0.00691825 5.26147C0.0221597 3.05365 1.06075 1.42064 3.04431 0.538814C5.13892 -0.39309 7.17692 -0.133986 8.93621 1.42935C9.6678 2.0782 10.3558 2.78148 11.0112 3.50871C11.4576 4.00515 11.7624 3.94636 12.1826 3.48476C12.7988 2.80543 13.4651 2.16964 14.1226 1.53168C17.0621 -1.32499 22.0547 0.05762 23.0215 4.03781C23.47 5.88419 23.1194 7.62825 21.7325 9.05005C21.0488 9.75116 20.3694 10.4588 19.6509 11.1207C19.2285 11.5105 19.2503 11.7804 19.6596 12.1593C20.3564 12.8038 21.0227 13.481 21.6737 14.169C23.7465 16.3594 23.7051 19.6929 21.5909 21.7636C19.468 23.8429 16.1824 23.7907 14.0072 21.6395C13.4411 21.0799 12.838 20.5508 12.3329 19.9411C11.7624 19.2553 11.3356 19.3467 10.8 19.9738C10.284 20.5769 9.68957 21.1104 9.12128 21.6699C7.46868 23.2986 5.32399 23.721 3.20762 22.837C1.19357 21.9922 0.00474091 20.1393 0.00474091 17.8378C0.00474091 15.7563 0.00474091 13.6747 0.00474091 11.5954ZM2.1908 11.5954C2.1908 13.7379 2.19297 15.8804 2.18862 18.0229C2.18644 19.3816 2.9115 20.296 4.06767 20.8208C5.2848 21.3738 6.46057 21.1735 7.44691 20.2177C8.12842 19.5579 8.7642 18.8459 9.47184 18.2167C9.97263 17.7703 9.89642 17.4894 9.45006 17.0561C7.93245 15.5886 6.4475 14.0863 4.96473 12.5817C4.26363 11.8697 4.26145 11.4146 4.95385 10.707C6.00115 9.63358 7.05716 8.56668 8.13495 7.52373C9.44353 6.25652 8.83605 6.36756 10.2709 7.5368C10.665 7.85687 10.6911 8.11597 10.2949 8.4883C9.36079 9.37012 8.48114 10.3107 7.5536 11.2013C7.22264 11.5192 7.1878 11.7173 7.53835 12.0635C10.2339 14.7329 12.8968 17.435 15.5967 20.0979C16.9859 21.4674 18.7626 21.4544 20.0733 20.1349C21.3536 18.8481 21.3318 16.9843 20.0102 15.6322C19.3679 14.9746 18.6972 14.3475 18.0702 13.6769C17.7109 13.2915 17.4431 13.3133 17.0904 13.6813C16.263 14.5413 15.355 15.3295 14.5821 16.2331C13.9528 16.9691 13.6153 16.49 13.2169 16.0611C12.8315 15.6474 12.2284 15.3665 12.9904 14.6371C15.3942 12.3335 17.7218 9.9493 20.069 7.58688C21.1925 6.45684 21.3297 4.826 20.4282 3.57185C19.2764 1.96933 17.0338 1.77337 15.6141 3.15598C14.9566 3.79612 14.3382 4.48198 13.6545 5.09164C13.1842 5.50969 13.2452 5.78621 13.6719 6.18031C14.4144 6.864 15.1068 7.59994 15.821 8.31629C16.7442 9.24166 16.7093 9.209 15.8558 10.1692C15.3224 10.7723 15.0088 10.6613 14.495 10.1344C12.2305 7.81332 9.92255 5.53364 7.62545 3.2409C6.67395 2.29158 5.15634 1.9628 3.99146 2.51584C2.78086 3.09066 2.16467 4.06393 2.18209 5.44437C2.21039 7.49325 2.1908 9.54431 2.1908 11.5954Z" fill="#30455C"/>
<path d="M40.122 17.1705C40.0501 17.839 39.8563 18.3485 39.5363 18.7034C39.2162 19.0583 38.7524 19.2368 38.1406 19.2368C37.6855 19.2368 37.2805 19.1258 36.9256 18.9059C36.5707 18.686 36.1875 18.3136 35.776 17.7867L33.6661 15.1456V19.0234C33.5094 19.0518 33.2786 19.0909 32.9737 19.141C32.6689 19.1911 32.3597 19.2151 32.0462 19.2151C31.7326 19.2151 31.454 19.1933 31.2057 19.1519C30.9575 19.1084 30.7485 19.0234 30.5765 18.8972C30.4066 18.7687 30.2738 18.5945 30.1824 18.3746C30.0888 18.1547 30.043 17.8673 30.043 17.5124V5.17554C30.1998 5.13199 30.4306 5.08627 30.7354 5.03619C31.0403 4.98611 31.3494 4.96216 31.663 4.96216C31.9743 4.96216 32.2552 4.98393 32.5056 5.0253C32.7538 5.06885 32.9628 5.15376 33.1349 5.28005C33.3047 5.40851 33.4375 5.5827 33.529 5.80261C33.6204 6.02252 33.6683 6.30993 33.6683 6.66484V12.2889L37.3328 8.53954C38.0709 8.53954 38.6631 8.70284 39.1117 9.02944C39.558 9.35604 39.7823 9.76756 39.7823 10.264C39.7823 10.4774 39.7475 10.6733 39.6756 10.8497C39.6038 11.0282 39.4949 11.209 39.3446 11.3919C39.1944 11.5769 39.0028 11.7729 38.7698 11.9776C38.5347 12.1844 38.2625 12.4217 37.949 12.6917L36.7144 13.7565L40.122 17.1705Z" fill="#30455C"/>
<path d="M51.6466 13.8674C51.6466 14.7492 51.5116 15.5331 51.2416 16.2211C50.9716 16.9092 50.5928 17.4883 50.1029 17.9565C49.613 18.4246 49.0273 18.7795 48.3458 19.0212C47.6642 19.2629 46.9044 19.3826 46.0661 19.3826C45.2278 19.3826 44.4679 19.2542 43.7864 18.9994C43.1049 18.7447 42.5192 18.3789 42.0293 17.902C41.5394 17.4274 41.1583 16.8482 40.8905 16.1667C40.6205 15.4852 40.4855 14.7188 40.4855 13.8652C40.4855 13.027 40.6205 12.2671 40.8905 11.5856C41.1605 10.9041 41.5394 10.3249 42.0293 9.85022C42.5192 9.37556 43.1049 9.00977 43.7864 8.75284C44.4679 8.49809 45.2278 8.36963 46.0661 8.36963C46.9044 8.36963 47.6642 8.50027 48.3458 8.76373C49.0273 9.02719 49.613 9.39516 50.1029 9.872C50.5928 10.3488 50.9716 10.9258 51.2416 11.6073C51.5116 12.291 51.6466 13.0444 51.6466 13.8674ZM44.1914 13.8674C44.1914 14.734 44.359 15.3981 44.6922 15.8597C45.0253 16.3213 45.4913 16.5521 46.0878 16.5521C46.6844 16.5521 47.1417 16.3169 47.4618 15.8488C47.7818 15.3807 47.9408 14.7188 47.9408 13.8674C47.9408 13.0161 47.7775 12.3585 47.4509 11.8969C47.1243 11.4353 46.6627 11.2045 46.0661 11.2045C45.4695 11.2045 45.0079 11.4353 44.6813 11.8969C44.3547 12.3585 44.1914 13.0161 44.1914 13.8674Z" fill="#30455C"/>
<path d="M56.365 15.4875C56.365 15.8577 56.4825 16.119 56.7155 16.2757C56.9507 16.4325 57.2794 16.5109 57.7062 16.5109C57.9196 16.5109 58.1395 16.4935 58.3659 16.4586C58.5924 16.4238 58.7927 16.3781 58.9625 16.3193C59.091 16.476 59.1999 16.6502 59.2935 16.8418C59.3849 17.0334 59.4328 17.2642 59.4328 17.5342C59.4328 18.0742 59.2304 18.514 58.8254 18.8559C58.4204 19.1977 57.7062 19.3676 56.685 19.3676C55.4352 19.3676 54.4728 19.0823 53.7979 18.5162C53.1229 17.9479 52.7854 17.0247 52.7854 15.7466V6.62573C52.9422 6.58219 53.1643 6.53646 53.456 6.48638C53.7478 6.4363 54.0548 6.41235 54.3836 6.41235C55.0085 6.41235 55.494 6.5234 55.8424 6.74331C56.1908 6.96322 56.365 7.42917 56.365 8.13899V8.76824H59.1563C59.2412 8.92501 59.324 9.11879 59.4024 9.35395C59.4807 9.5891 59.5199 9.8482 59.5199 10.1313C59.5199 10.6277 59.4089 10.987 59.189 11.2069C58.9691 11.4268 58.6729 11.5378 58.305 11.5378H56.3671V15.4875H56.365Z" fill="#30455C"/>
<path d="M64.8544 8.37183C65.6209 8.37183 66.3198 8.45021 66.9534 8.60698C67.5848 8.76375 68.1248 9.00108 68.5734 9.32115C69.0197 9.64122 69.3659 10.0462 69.6076 10.5361C69.8493 11.026 69.969 11.6052 69.969 12.2714V17.0442C69.969 17.4143 69.8667 17.7148 69.6598 17.95C69.453 18.1851 69.2091 18.3876 68.9239 18.5574C68.0007 19.1105 66.7008 19.3892 65.0265 19.3892C64.2731 19.3892 63.5959 19.3173 62.9928 19.1758C62.3897 19.0343 61.8715 18.8209 61.4382 18.5378C61.0049 18.2548 60.6718 17.8912 60.4366 17.4514C60.2015 17.0115 60.0861 16.4999 60.0861 15.9185C60.0861 14.9387 60.3778 14.1853 60.9592 13.6606C61.5405 13.1359 62.4419 12.8093 63.6656 12.6808L66.457 12.3825V12.2323C66.457 11.8207 66.2763 11.5268 65.9148 11.3483C65.5534 11.1719 65.0308 11.0826 64.3493 11.0826C63.8093 11.0826 63.2846 11.1392 62.7729 11.2525C62.2612 11.3657 61.7996 11.5072 61.3881 11.6792C61.203 11.5507 61.0463 11.357 60.92 11.0935C60.7915 10.83 60.7284 10.5579 60.7284 10.2726C60.7284 9.9025 60.8177 9.60856 60.994 9.38865C61.1704 9.16873 61.4447 8.98148 61.8149 8.82471C62.2264 8.66794 62.7119 8.55472 63.2737 8.48287C63.8289 8.40666 64.358 8.37183 64.8544 8.37183ZM65.0243 16.7437C65.266 16.7437 65.5316 16.7198 65.8234 16.6697C66.1151 16.6196 66.3307 16.5521 66.4722 16.4672V14.7623L64.9394 14.8908C64.5409 14.9191 64.2143 15.004 63.9596 15.1455C63.7048 15.2871 63.5763 15.5005 63.5763 15.7857C63.5763 16.0709 63.6852 16.2995 63.9073 16.4781C64.1272 16.6544 64.4995 16.7437 65.0243 16.7437Z" fill="#30455C"/>
<path d="M80 15.9556C80 17.0355 79.595 17.8804 78.7851 18.49C77.9751 19.0997 76.7819 19.4067 75.2055 19.4067C74.6089 19.4067 74.0559 19.3631 73.5442 19.2782C73.0325 19.1933 72.5971 19.0605 72.2334 18.8841C71.872 18.7077 71.5868 18.4835 71.3821 18.2135C71.1753 17.9435 71.0729 17.6234 71.0729 17.2555C71.0729 16.9136 71.1448 16.6262 71.2863 16.3932C71.4278 16.1581 71.5977 15.9643 71.798 15.8075C72.2095 16.034 72.682 16.2365 73.2154 16.415C73.7489 16.5935 74.3629 16.6806 75.0575 16.6806C75.4973 16.6806 75.8348 16.6175 76.0699 16.489C76.3051 16.3606 76.4205 16.1907 76.4205 15.9774C76.4205 15.7792 76.3356 15.6224 76.1657 15.5092C75.9959 15.396 75.7107 15.3046 75.3144 15.2327L74.6764 15.1042C73.4419 14.8626 72.5209 14.4837 71.9177 13.9655C71.3146 13.4473 71.012 12.7048 71.012 11.7402C71.012 11.2155 71.1252 10.7387 71.3538 10.3119C71.5802 9.88515 71.9003 9.53024 72.3118 9.24718C72.7233 8.96413 73.2176 8.74422 73.7924 8.58745C74.3672 8.43068 75.003 8.35229 75.6998 8.35229C76.2245 8.35229 76.7188 8.39149 77.1804 8.46987C77.642 8.54826 78.0426 8.66583 78.3844 8.82042C78.7263 8.97719 78.9941 9.17969 79.1944 9.4279C79.3926 9.67612 79.4927 9.97006 79.4927 10.3119C79.4927 10.6385 79.4318 10.9194 79.312 11.1524C79.1922 11.3875 79.0377 11.5813 78.8548 11.7381C78.7415 11.6662 78.5695 11.5922 78.3431 11.5138C78.1166 11.4354 77.8662 11.3636 77.5984 11.3004C77.3284 11.2373 77.0563 11.1828 76.7776 11.1415C76.501 11.0979 76.2485 11.0783 76.022 11.0783C75.5539 11.0783 75.1903 11.1306 74.9355 11.2373C74.6808 11.344 74.5523 11.5116 74.5523 11.7381C74.5523 11.8948 74.6242 12.0233 74.7657 12.1213C74.9072 12.2214 75.1772 12.3129 75.5757 12.3978L76.2354 12.5459C77.5984 12.8594 78.5673 13.2883 79.1443 13.8348C79.7126 14.3835 80 15.089 80 15.9556Z" fill="#30455C"/>
</g>
<defs>
<clipPath id="clip0">
<rect width="80" height="23.2867" fill="white"/>
</clipPath>
</defs>
</svg>
