<svg width="27" height="28" viewBox="0 0 27 28" fill="none" xmlns="http://www.w3.org/2000/svg">
<path d="M10.1881 25.2146C11.3387 25.2146 12.2714 24.2819 12.2714 23.1313C12.2714 22.835 12.2096 22.5532 12.0981 22.298H8.27809C8.16659 22.5532 8.10474 22.835 8.10474 23.1313C8.10474 24.2819 9.03748 25.2146 10.1881 25.2146Z" stroke="#30455C" stroke-width="1.8"/>
<path d="M10.189 9.79779C7.19748 9.79779 4.77236 12.6396 4.77236 15.6311V18.4089C4.77236 19.2832 4.36071 20.1065 3.66125 20.6311C2.94939 21.165 3.32698 22.2978 4.2168 22.2978H16.1612C17.0511 22.2978 17.4287 21.165 16.7168 20.6311C16.0173 20.1065 15.6057 19.2832 15.6057 18.4089V15.6311C15.6057 12.6396 13.1806 9.79779 10.189 9.79779Z" stroke="#30455C" stroke-width="1.8" stroke-linecap="round" stroke-linejoin="round"/>
<circle cx="19" cy="8" r="8" fill="#D00000"/>
<path d="M18.6111 10.16V11H15.0991V10.16H16.3471V6.488L15.1871 7.184V6.264L16.7711 5.304H17.3711V10.16H18.6111ZM21.704 7.36C22.0613 7.36 22.376 7.43733 22.648 7.592C22.92 7.74133 23.1307 7.95467 23.28 8.232C23.4293 8.504 23.504 8.81867 23.504 9.176C23.504 9.54933 23.4187 9.88 23.248 10.168C23.0773 10.4507 22.832 10.672 22.512 10.832C22.192 10.9867 21.8213 11.064 21.4 11.064C21.0427 11.064 20.6907 11.0053 20.344 10.888C19.9973 10.7653 19.712 10.6027 19.488 10.4L19.832 9.648C20.3493 10.0427 20.8773 10.24 21.416 10.24C21.7733 10.24 22.0453 10.152 22.232 9.976C22.424 9.79467 22.52 9.53867 22.52 9.208C22.52 8.89333 22.4213 8.64267 22.224 8.456C22.032 8.264 21.7733 8.168 21.448 8.168C21.224 8.168 21.0133 8.21067 20.816 8.296C20.6187 8.376 20.4453 8.496 20.296 8.656H19.672V5.304H23.24V6.104H20.68V7.656C20.968 7.45867 21.3093 7.36 21.704 7.36Z" fill="white"/>
</svg>
