<svg width="21" height="21" viewBox="0 0 21 21" fill="none" xmlns="http://www.w3.org/2000/svg">
<path d="M10.1881 18.2146C11.3387 18.2146 12.2714 17.2819 12.2714 16.1313C12.2714 15.835 12.2096 15.5532 12.0981 15.298H8.27809C8.16659 15.5532 8.10474 15.835 8.10474 16.1313C8.10474 17.2819 9.03748 18.2146 10.1881 18.2146Z" stroke="#30455C" stroke-width="1.8"/>
<path d="M10.189 2.79779C7.19748 2.79779 4.77236 5.63958 4.77236 8.63112V11.4089C4.77236 12.2832 4.36071 13.1065 3.66125 13.6311C2.94939 14.165 3.32698 15.2978 4.2168 15.2978H16.1612C17.0511 15.2978 17.4287 14.165 16.7168 13.6311C16.0173 13.1065 15.6057 12.2832 15.6057 11.4089V8.63112C15.6057 5.63958 13.1806 2.79779 10.189 2.79779Z" stroke="#30455C" stroke-width="1.8" stroke-linecap="round" stroke-linejoin="round"/>
</svg>
