<svg width="193" height="222" viewBox="0 0 193 222" fill="none" xmlns="http://www.w3.org/2000/svg">
<g filter="url(#filter0_d)">
<rect x="20" y="16" width="153" height="190" rx="8" fill="white"/>
</g>
<rect x="27" y="170" width="138" height="16" rx="5" fill="#F7F7F7" fill-opacity="0.4"/>
<g filter="url(#filter1_d)">
<circle cx="98" cy="42" r="20" fill="white"/>
<circle cx="98" cy="42" r="19.5" stroke="#EAF4FF"/>
</g>
<path d="M54.4207 86.662H49.5487L48.5407 89H46.7207L51.2287 79.032H52.6987L57.2207 89H55.4147L54.4207 86.662ZM53.8187 85.262L51.9847 80.992L50.1507 85.262H53.8187ZM64.4819 81.944L61.3879 89H59.8619L56.8099 81.944H58.6439L60.6739 87.012L62.7459 81.944H64.4819ZM72.0304 81.93V89H70.3084V87.866C70.0937 88.258 69.7857 88.566 69.3844 88.79C68.9831 89.0047 68.5257 89.112 68.0124 89.112C67.3964 89.112 66.8504 88.9627 66.3744 88.664C65.8984 88.3653 65.5297 87.9407 65.2684 87.39C65.0071 86.8393 64.8764 86.2 64.8764 85.472C64.8764 84.744 65.0071 84.1 65.2684 83.54C65.5391 82.9707 65.9124 82.532 66.3884 82.224C66.8644 81.9067 67.4057 81.748 68.0124 81.748C68.5257 81.748 68.9831 81.86 69.3844 82.084C69.7857 82.2987 70.0937 82.602 70.3084 82.994V81.93H72.0304ZM68.4884 87.74C69.0671 87.74 69.5151 87.5393 69.8324 87.138C70.1497 86.7367 70.3084 86.172 70.3084 85.444C70.3084 84.6973 70.1497 84.1233 69.8324 83.722C69.5151 83.3207 69.0624 83.12 68.4744 83.12C67.8957 83.12 67.4431 83.33 67.1164 83.75C66.7991 84.1607 66.6404 84.7347 66.6404 85.472C66.6404 86.2 66.7991 86.76 67.1164 87.152C67.4431 87.544 67.9004 87.74 68.4884 87.74ZM76.5264 89.112C75.2477 89.112 74.2304 88.8133 73.4744 88.216L73.9644 86.984C74.7204 87.544 75.5837 87.824 76.5544 87.824C76.9744 87.824 77.2964 87.754 77.5204 87.614C77.7537 87.474 77.8704 87.278 77.8704 87.026C77.8704 86.8113 77.791 86.6433 77.6324 86.522C77.4737 86.3913 77.203 86.2793 76.8204 86.186L75.6444 85.92C74.3564 85.64 73.7124 84.982 73.7124 83.946C73.7124 83.5167 73.8337 83.1387 74.0764 82.812C74.319 82.476 74.6597 82.2147 75.0984 82.028C75.537 81.8413 76.0457 81.748 76.6244 81.748C77.1284 81.748 77.6137 81.8273 78.0804 81.986C78.547 82.1353 78.9577 82.3547 79.3124 82.644L78.7944 83.834C78.085 83.3113 77.357 83.05 76.6104 83.05C76.209 83.05 75.8964 83.1247 75.6724 83.274C75.4484 83.4233 75.3364 83.6287 75.3364 83.89C75.3364 84.0953 75.4017 84.2587 75.5324 84.38C75.6724 84.5013 75.9057 84.604 76.2324 84.688L77.4364 84.954C78.1364 85.1127 78.645 85.36 78.9624 85.696C79.289 86.0227 79.4524 86.452 79.4524 86.984C79.4524 87.6373 79.191 88.1553 78.6684 88.538C78.1457 88.9207 77.4317 89.112 76.5264 89.112ZM83.1077 83.246V86.41C83.1077 87.2407 83.495 87.656 84.2697 87.656C84.4844 87.656 84.7177 87.6187 84.9697 87.544V88.93C84.6617 89.042 84.2884 89.098 83.8497 89.098C83.047 89.098 82.431 88.874 82.0017 88.426C81.5724 87.978 81.3577 87.334 81.3577 86.494V83.246H79.9997V81.93H81.3577V80.208L83.1077 79.62V81.93H84.9837V83.246H83.1077ZM94.2702 89.126C92.8982 89.126 91.8575 88.776 91.1482 88.076C90.4482 87.3667 90.0982 86.3307 90.0982 84.968V79.032H91.8762V85.066C91.8762 85.9247 92.0768 86.578 92.4782 87.026C92.8795 87.4647 93.4768 87.684 94.2702 87.684C95.0448 87.684 95.6328 87.46 96.0342 87.012C96.4448 86.564 96.6502 85.9153 96.6502 85.066V79.032H98.4282V84.968C98.4282 86.3213 98.0735 87.3527 97.3642 88.062C96.6548 88.7713 95.6235 89.126 94.2702 89.126ZM100.391 78.696H102.127V89H100.391V78.696ZM106.268 83.246V86.41C106.268 87.2407 106.655 87.656 107.43 87.656C107.645 87.656 107.878 87.6187 108.13 87.544V88.93C107.822 89.042 107.449 89.098 107.01 89.098C106.207 89.098 105.591 88.874 105.162 88.426C104.733 87.978 104.518 87.334 104.518 86.494V83.246H103.16V81.93H104.518V80.208L106.268 79.62V81.93H108.144V83.246H106.268ZM109.347 81.93H111.083V89H109.347V81.93ZM111.181 78.724V80.446H109.235V78.724H111.181ZM121.341 81.748C122.144 81.748 122.741 81.9907 123.133 82.476C123.525 82.952 123.721 83.68 123.721 84.66V89H121.971V84.716C121.971 84.156 121.878 83.7547 121.691 83.512C121.514 83.26 121.215 83.134 120.795 83.134C120.31 83.134 119.927 83.3067 119.647 83.652C119.376 83.988 119.241 84.4547 119.241 85.052V89H117.491V84.716C117.491 84.1653 117.393 83.764 117.197 83.512C117.01 83.26 116.712 83.134 116.301 83.134C115.816 83.134 115.433 83.3067 115.153 83.652C114.873 83.988 114.733 84.4547 114.733 85.052V89H112.997V83.932C112.997 83.1853 112.96 82.518 112.885 81.93H114.523L114.649 83.05C114.854 82.63 115.148 82.308 115.531 82.084C115.923 81.86 116.371 81.748 116.875 81.748C117.958 81.748 118.662 82.196 118.989 83.092C119.213 82.672 119.53 82.3453 119.941 82.112C120.361 81.8693 120.828 81.748 121.341 81.748ZM132.351 81.93V89H130.629V87.866C130.414 88.258 130.106 88.566 129.705 88.79C129.303 89.0047 128.846 89.112 128.333 89.112C127.717 89.112 127.171 88.9627 126.695 88.664C126.219 88.3653 125.85 87.9407 125.589 87.39C125.327 86.8393 125.197 86.2 125.197 85.472C125.197 84.744 125.327 84.1 125.589 83.54C125.859 82.9707 126.233 82.532 126.709 82.224C127.185 81.9067 127.726 81.748 128.333 81.748C128.846 81.748 129.303 81.86 129.705 82.084C130.106 82.2987 130.414 82.602 130.629 82.994V81.93H132.351ZM128.809 87.74C129.387 87.74 129.835 87.5393 130.153 87.138C130.47 86.7367 130.629 86.172 130.629 85.444C130.629 84.6973 130.47 84.1233 130.153 83.722C129.835 83.3207 129.383 83.12 128.795 83.12C128.216 83.12 127.763 83.33 127.437 83.75C127.119 84.1607 126.961 84.7347 126.961 85.472C126.961 86.2 127.119 86.76 127.437 87.152C127.763 87.544 128.221 87.74 128.809 87.74ZM136.483 83.246V86.41C136.483 87.2407 136.87 87.656 137.645 87.656C137.859 87.656 138.093 87.6187 138.345 87.544V88.93C138.037 89.042 137.663 89.098 137.225 89.098C136.422 89.098 135.806 88.874 135.377 88.426C134.947 87.978 134.733 87.334 134.733 86.494V83.246H133.375V81.93H134.733V80.208L136.483 79.62V81.93H138.359V83.246H136.483ZM145.749 85.556H140.877C140.915 86.312 141.101 86.872 141.437 87.236C141.783 87.5907 142.291 87.768 142.963 87.768C143.738 87.768 144.457 87.516 145.119 87.012L145.623 88.216C145.287 88.4867 144.872 88.706 144.377 88.874C143.892 89.0327 143.397 89.112 142.893 89.112C141.736 89.112 140.826 88.7853 140.163 88.132C139.501 87.4787 139.169 86.5827 139.169 85.444C139.169 84.7253 139.314 84.086 139.603 83.526C139.893 82.966 140.299 82.532 140.821 82.224C141.344 81.9067 141.937 81.748 142.599 81.748C143.57 81.748 144.335 82.0653 144.895 82.7C145.465 83.3253 145.749 84.1887 145.749 85.29V85.556ZM142.641 83.008C142.175 83.008 141.792 83.148 141.493 83.428C141.204 83.6987 141.017 84.0953 140.933 84.618H144.223C144.167 84.086 144.004 83.6847 143.733 83.414C143.472 83.1433 143.108 83.008 142.641 83.008Z" fill="black"/>
<path d="M66.5814 182.08C65.6347 182.08 64.9147 181.833 64.4214 181.34C63.9347 180.847 63.6914 180.123 63.6914 179.17V174.88H64.7014V179.24C64.7014 179.9 64.858 180.4 65.1714 180.74C65.4914 181.073 65.9614 181.24 66.5814 181.24C67.1947 181.24 67.658 181.07 67.9714 180.73C68.2914 180.39 68.4514 179.893 68.4514 179.24V174.88H69.4714V179.17C69.4714 180.123 69.2247 180.847 68.7314 181.34C68.2447 181.833 67.528 182.08 66.5814 182.08ZM66.2414 174.27L67.2614 172.73H68.3014L66.9114 174.27H66.2414ZM70.9949 174.64H71.9949V182H70.9949V174.64ZM74.7854 177.74V180.27C74.7854 180.617 74.8587 180.863 75.0054 181.01C75.1587 181.15 75.3687 181.22 75.6354 181.22C75.8087 181.22 75.9854 181.193 76.1654 181.14V181.96C75.9454 182.033 75.6954 182.07 75.4154 182.07C74.8954 182.07 74.492 181.923 74.2054 181.63C73.9187 181.337 73.7754 180.91 73.7754 180.35V177.74H72.7954V176.96H73.7754V175.7L74.7854 175.35V176.96H76.1754V177.74H74.7854ZM77.1082 176.96H78.1082V182H77.1082V176.96ZM78.1882 174.76V175.82H77.0182V174.76H78.1882ZM85.3386 176.84C86.4586 176.84 87.0186 177.513 87.0186 178.86V182H86.0086V178.91C86.0086 178.477 85.932 178.16 85.7786 177.96C85.632 177.76 85.392 177.66 85.0586 177.66C84.672 177.66 84.3653 177.793 84.1386 178.06C83.9186 178.327 83.8086 178.69 83.8086 179.15V182H82.7986V178.91C82.7986 178.477 82.722 178.16 82.5686 177.96C82.422 177.76 82.182 177.66 81.8486 177.66C81.462 177.66 81.1553 177.793 80.9286 178.06C80.702 178.327 80.5886 178.69 80.5886 179.15V182H79.5886V178.38C79.5886 177.853 79.562 177.38 79.5086 176.96H80.4486L80.5386 177.8C80.6853 177.493 80.8953 177.257 81.1686 177.09C81.442 176.923 81.762 176.84 82.1286 176.84C82.9086 176.84 83.4186 177.163 83.6586 177.81C83.812 177.51 84.0353 177.273 84.3286 177.1C84.6286 176.927 84.9653 176.84 85.3386 176.84ZM93.0756 176.96V182H92.0756V181.14C91.9289 181.44 91.7089 181.67 91.4156 181.83C91.1289 181.99 90.7923 182.07 90.4056 182.07C89.9589 182.07 89.5656 181.963 89.2256 181.75C88.8923 181.537 88.6323 181.237 88.4456 180.85C88.2589 180.457 88.1656 180 88.1656 179.48C88.1656 178.96 88.2589 178.5 88.4456 178.1C88.6389 177.7 88.9056 177.39 89.2456 177.17C89.5856 176.95 89.9723 176.84 90.4056 176.84C90.7923 176.84 91.1289 176.923 91.4156 177.09C91.7023 177.25 91.9223 177.48 92.0756 177.78V176.96H93.0756ZM90.6456 181.27C91.0989 181.27 91.4489 181.113 91.6956 180.8C91.9489 180.48 92.0756 180.033 92.0756 179.46C92.0756 178.88 91.9489 178.433 91.6956 178.12C91.4489 177.807 91.0956 177.65 90.6356 177.65C90.1823 177.65 89.8256 177.813 89.5656 178.14C89.3123 178.46 89.1856 178.907 89.1856 179.48C89.1856 180.047 89.3123 180.487 89.5656 180.8C89.8256 181.113 90.1856 181.27 90.6456 181.27ZM101.805 176.97L99.6154 182H98.7054L96.5354 176.97H97.6054L99.1854 180.86L100.795 176.97H101.805ZM107.128 176.96V182H106.128V181.14C105.982 181.44 105.762 181.67 105.468 181.83C105.182 181.99 104.845 182.07 104.458 182.07C104.012 182.07 103.618 181.963 103.278 181.75C102.945 181.537 102.685 181.237 102.498 180.85C102.312 180.457 102.218 180 102.218 179.48C102.218 178.96 102.312 178.5 102.498 178.1C102.692 177.7 102.958 177.39 103.298 177.17C103.638 176.95 104.025 176.84 104.458 176.84C104.845 176.84 105.182 176.923 105.468 177.09C105.755 177.25 105.975 177.48 106.128 177.78V176.96H107.128ZM104.698 181.27C105.152 181.27 105.502 181.113 105.748 180.8C106.002 180.48 106.128 180.033 106.128 179.46C106.128 178.88 106.002 178.433 105.748 178.12C105.502 177.807 105.148 177.65 104.688 177.65C104.235 177.65 103.878 177.813 103.618 178.14C103.365 178.46 103.238 178.907 103.238 179.48C103.238 180.047 103.365 180.487 103.618 180.8C103.878 181.113 104.238 181.27 104.698 181.27ZM113.262 176.96V181.91C113.262 182.677 113.059 183.253 112.652 183.64C112.252 184.033 111.655 184.23 110.862 184.23C110.095 184.23 109.425 184.063 108.852 183.73L109.022 182.94C109.335 183.107 109.635 183.23 109.922 183.31C110.215 183.39 110.525 183.43 110.852 183.43C111.792 183.43 112.262 182.95 112.262 181.99V180.9C112.109 181.193 111.885 181.427 111.592 181.6C111.299 181.767 110.959 181.85 110.572 181.85C110.132 181.85 109.739 181.747 109.392 181.54C109.052 181.333 108.785 181.04 108.592 180.66C108.405 180.28 108.312 179.843 108.312 179.35C108.312 178.857 108.405 178.42 108.592 178.04C108.785 177.66 109.052 177.367 109.392 177.16C109.739 176.947 110.132 176.84 110.572 176.84C110.959 176.84 111.299 176.923 111.592 177.09C111.885 177.25 112.109 177.48 112.262 177.78V176.96H113.262ZM110.802 181.04C111.255 181.04 111.612 180.89 111.872 180.59C112.132 180.29 112.262 179.877 112.262 179.35C112.262 178.823 112.132 178.41 111.872 178.11C111.619 177.803 111.262 177.65 110.802 177.65C110.349 177.65 109.989 177.803 109.722 178.11C109.462 178.41 109.332 178.823 109.332 179.35C109.332 179.87 109.462 180.283 109.722 180.59C109.989 180.89 110.349 181.04 110.802 181.04ZM119.355 176.96V182H118.355V181.14C118.208 181.44 117.988 181.67 117.695 181.83C117.408 181.99 117.072 182.07 116.685 182.07C116.238 182.07 115.845 181.963 115.505 181.75C115.172 181.537 114.912 181.237 114.725 180.85C114.538 180.457 114.445 180 114.445 179.48C114.445 178.96 114.538 178.5 114.725 178.1C114.918 177.7 115.185 177.39 115.525 177.17C115.865 176.95 116.252 176.84 116.685 176.84C117.072 176.84 117.408 176.923 117.695 177.09C117.982 177.25 118.202 177.48 118.355 177.78V176.96H119.355ZM116.925 181.27C117.378 181.27 117.728 181.113 117.975 180.8C118.228 180.48 118.355 180.033 118.355 179.46C118.355 178.88 118.228 178.433 117.975 178.12C117.728 177.807 117.375 177.65 116.915 177.65C116.462 177.65 116.105 177.813 115.845 178.14C115.592 178.46 115.465 178.907 115.465 179.48C115.465 180.047 115.592 180.487 115.845 180.8C116.105 181.113 116.465 181.27 116.925 181.27Z" fill="#C4C4C4"/>
<path d="M73.5661 130.7C73.7161 130.7 73.8421 130.754 73.9441 130.862C74.0461 130.964 74.0971 131.093 74.0971 131.249V136.451C74.0971 136.607 74.0401 136.739 73.9261 136.847C73.8121 136.949 73.6711 137 73.5031 137C73.3351 137 73.1971 136.949 73.0891 136.847C72.9811 136.739 72.9271 136.607 72.9271 136.451V132.185L72.3691 132.527C72.2791 132.581 72.1831 132.608 72.0811 132.608C71.9311 132.608 71.8021 132.551 71.6941 132.437C71.5921 132.323 71.5411 132.197 71.5411 132.059C71.5411 131.963 71.5651 131.873 71.6131 131.789C71.6671 131.705 71.7361 131.639 71.8201 131.591L73.1791 130.781C73.2811 130.727 73.4101 130.7 73.5661 130.7ZM77.2494 132.77C77.6454 132.77 78.0024 132.863 78.3204 133.049C78.6444 133.229 78.8964 133.478 79.0764 133.796C79.2624 134.114 79.3554 134.468 79.3554 134.858C79.3554 135.26 79.2414 135.632 79.0134 135.974C78.7854 136.316 78.4824 136.589 78.1044 136.793C77.7264 136.991 77.3184 137.09 76.8804 137.09C76.6464 137.09 76.4034 137.054 76.1514 136.982C75.9054 136.91 75.7044 136.811 75.5484 136.685C75.4764 136.625 75.4164 136.541 75.3684 136.433C75.3204 136.325 75.2964 136.223 75.2964 136.127C75.2964 136.019 75.3414 135.923 75.4314 135.839C75.5274 135.749 75.6504 135.704 75.8004 135.704C75.9084 135.704 76.0434 135.761 76.2054 135.875C76.4574 136.031 76.6794 136.109 76.8714 136.109C77.1174 136.109 77.3484 136.052 77.5644 135.938C77.7804 135.824 77.9514 135.671 78.0774 135.479C78.2094 135.287 78.2754 135.08 78.2754 134.858C78.2754 134.534 78.1644 134.27 77.9424 134.066C77.7204 133.862 77.4564 133.76 77.1504 133.76C77.0124 133.76 76.8894 133.778 76.7814 133.814C76.6734 133.85 76.5444 133.904 76.3944 133.976C76.2864 134.03 76.1994 134.069 76.1334 134.093C76.0734 134.117 76.0104 134.129 75.9444 134.129C75.7104 134.129 75.5424 134.066 75.4404 133.94C75.3444 133.814 75.2964 133.664 75.2964 133.49C75.2964 133.43 75.2994 133.388 75.3054 133.364L75.5844 131.132C75.6084 131.006 75.6684 130.904 75.7644 130.826C75.8664 130.742 75.9864 130.7 76.1244 130.7H78.7254C78.8694 130.7 78.9894 130.748 79.0854 130.844C79.1814 130.94 79.2294 131.06 79.2294 131.204C79.2294 131.342 79.1814 131.459 79.0854 131.555C78.9894 131.645 78.8694 131.69 78.7254 131.69H76.4934L76.3224 132.995C76.4364 132.929 76.5804 132.875 76.7544 132.833C76.9284 132.791 77.0934 132.77 77.2494 132.77ZM81.9393 136.928C81.9393 137.066 81.8883 137.24 81.7863 137.45C81.6843 137.66 81.5523 137.843 81.3903 137.999C81.2283 138.155 81.0603 138.233 80.8863 138.233C80.7543 138.233 80.6493 138.203 80.5713 138.143C80.4933 138.089 80.4543 137.999 80.4543 137.873C80.4543 137.777 80.4783 137.708 80.5263 137.666C80.5743 137.63 80.6253 137.603 80.6793 137.585C80.7393 137.567 80.7813 137.552 80.8053 137.54C80.9733 137.45 81.0573 137.33 81.0573 137.18C81.0573 137.114 81.0243 137.054 80.9583 137C80.8983 136.952 80.8173 136.928 80.7153 136.928C80.6133 136.928 80.5293 136.949 80.4633 136.991C80.3913 136.961 80.3343 136.922 80.2923 136.874C80.2563 136.826 80.2383 136.754 80.2383 136.658C80.2383 136.538 80.2833 136.427 80.3733 136.325C80.4633 136.217 80.5743 136.133 80.7063 136.073C80.8383 136.007 80.9673 135.974 81.0933 135.974C81.3573 135.974 81.5643 136.058 81.7143 136.226C81.8643 136.388 81.9393 136.622 81.9393 136.928ZM84.9218 130.583C85.3358 130.583 85.7048 130.7 86.0288 130.934C86.3528 131.162 86.6018 131.465 86.7758 131.843C86.9498 132.215 87.0368 132.614 87.0368 133.04C87.0368 133.478 86.9588 133.961 86.8028 134.489C86.6528 135.011 86.3738 135.506 85.9658 135.974C85.5638 136.442 85.0148 136.775 84.3188 136.973C84.2468 136.991 84.1778 137 84.1118 137C83.9558 137 83.8268 136.961 83.7248 136.883C83.6228 136.799 83.5718 136.67 83.5718 136.496C83.5718 136.364 83.6138 136.25 83.6978 136.154C83.7878 136.052 83.9048 135.98 84.0488 135.938C84.4268 135.83 84.7748 135.638 85.0928 135.362C85.4168 135.086 85.6538 134.756 85.8038 134.372C85.5038 134.63 85.1618 134.759 84.7778 134.759C84.4658 134.759 84.1568 134.666 83.8508 134.48C83.5508 134.288 83.3048 134.033 83.1128 133.715C82.9208 133.391 82.8248 133.043 82.8248 132.671C82.8248 132.293 82.9178 131.945 83.1038 131.627C83.2958 131.303 83.5508 131.048 83.8688 130.862C84.1868 130.676 84.5378 130.583 84.9218 130.583ZM84.9218 133.769C85.2098 133.769 85.4498 133.664 85.6418 133.454C85.8398 133.244 85.9388 132.983 85.9388 132.671C85.9388 132.359 85.8398 132.098 85.6418 131.888C85.4498 131.678 85.2098 131.573 84.9218 131.573C84.6398 131.573 84.3998 131.678 84.2018 131.888C84.0038 132.098 83.9048 132.359 83.9048 132.671C83.9048 132.983 84.0038 133.244 84.2018 133.454C84.3998 133.664 84.6398 133.769 84.9218 133.769ZM90.1585 137.09C89.6545 137.09 89.2195 136.955 88.8535 136.685C88.4935 136.415 88.2205 136.037 88.0345 135.551C87.8485 135.059 87.7555 134.492 87.7555 133.85C87.7555 133.208 87.8485 132.644 88.0345 132.158C88.2205 131.666 88.4935 131.285 88.8535 131.015C89.2195 130.745 89.6545 130.61 90.1585 130.61C90.6625 130.61 91.0945 130.745 91.4545 131.015C91.8205 131.285 92.0965 131.666 92.2825 132.158C92.4685 132.644 92.5615 133.208 92.5615 133.85C92.5615 134.492 92.4685 135.059 92.2825 135.551C92.0965 136.037 91.8205 136.415 91.4545 136.685C91.0945 136.955 90.6625 137.09 90.1585 137.09ZM90.1585 136.01C90.5425 136.01 90.8425 135.827 91.0585 135.461C91.2805 135.095 91.3915 134.558 91.3915 133.85C91.3915 133.142 91.2805 132.605 91.0585 132.239C90.8425 131.873 90.5425 131.69 90.1585 131.69C89.7745 131.69 89.4715 131.873 89.2495 132.239C89.0335 132.605 88.9255 133.142 88.9255 133.85C88.9255 134.558 89.0335 135.095 89.2495 135.461C89.4715 135.827 89.7745 136.01 90.1585 136.01ZM98.2828 132.365C98.6788 132.365 99.0388 132.467 99.3628 132.671C99.6868 132.869 99.9388 133.148 100.119 133.508C100.305 133.862 100.398 134.261 100.398 134.705C100.398 135.155 100.305 135.56 100.119 135.92C99.9388 136.274 99.6868 136.553 99.3628 136.757C99.0448 136.961 98.6878 137.063 98.2918 137.063C97.9438 137.063 97.6228 136.982 97.3288 136.82C97.0408 136.652 96.8098 136.43 96.6358 136.154V138.53C96.6358 138.608 96.6088 138.671 96.5548 138.719C96.5068 138.773 96.4438 138.8 96.3658 138.8C96.2878 138.8 96.2218 138.773 96.1678 138.719C96.1198 138.671 96.0958 138.608 96.0958 138.53V132.662C96.0958 132.584 96.1198 132.518 96.1678 132.464C96.2218 132.41 96.2878 132.383 96.3658 132.383C96.4438 132.383 96.5068 132.41 96.5548 132.464C96.6088 132.518 96.6358 132.584 96.6358 132.662V133.274C96.7918 132.992 97.0168 132.77 97.3108 132.608C97.6048 132.446 97.9288 132.365 98.2828 132.365ZM98.2378 136.559C98.5498 136.559 98.8288 136.481 99.0748 136.325C99.3268 136.163 99.5218 135.941 99.6598 135.659C99.8038 135.377 99.8758 135.059 99.8758 134.705C99.8758 134.357 99.8038 134.045 99.6598 133.769C99.5218 133.487 99.3268 133.268 99.0748 133.112C98.8288 132.95 98.5498 132.869 98.2378 132.869C97.9198 132.869 97.6348 132.947 97.3828 133.103C97.1308 133.259 96.9358 133.478 96.7978 133.76C96.6598 134.036 96.5908 134.351 96.5908 134.705C96.5908 135.059 96.6598 135.377 96.7978 135.659C96.9358 135.941 97.1308 136.163 97.3828 136.325C97.6348 136.481 97.9198 136.559 98.2378 136.559ZM105.758 134.696C105.758 135.146 105.659 135.554 105.461 135.92C105.263 136.286 104.99 136.574 104.642 136.784C104.294 136.988 103.907 137.09 103.481 137.09C103.055 137.09 102.668 136.988 102.32 136.784C101.972 136.574 101.699 136.286 101.501 135.92C101.303 135.554 101.204 135.146 101.204 134.696C101.204 134.246 101.303 133.838 101.501 133.472C101.699 133.106 101.972 132.818 102.32 132.608C102.668 132.398 103.055 132.293 103.481 132.293C103.907 132.293 104.294 132.398 104.642 132.608C104.99 132.818 105.263 133.106 105.461 133.472C105.659 133.838 105.758 134.246 105.758 134.696ZM105.218 134.696C105.218 134.336 105.143 134.012 104.993 133.724C104.843 133.436 104.633 133.211 104.363 133.049C104.099 132.881 103.805 132.797 103.481 132.797C103.157 132.797 102.863 132.881 102.599 133.049C102.335 133.211 102.125 133.436 101.969 133.724C101.819 134.012 101.744 134.336 101.744 134.696C101.744 135.05 101.819 135.371 101.969 135.659C102.125 135.947 102.335 136.175 102.599 136.343C102.863 136.505 103.157 136.586 103.481 136.586C103.805 136.586 104.099 136.505 104.363 136.343C104.633 136.181 104.843 135.956 104.993 135.668C105.143 135.38 105.218 135.056 105.218 134.696ZM109.013 132.293C109.133 132.293 109.241 132.317 109.337 132.365C109.433 132.413 109.481 132.485 109.481 132.581C109.481 132.665 109.457 132.734 109.409 132.788C109.361 132.836 109.304 132.86 109.238 132.86C109.208 132.86 109.148 132.845 109.058 132.815C108.974 132.785 108.893 132.77 108.815 132.77C108.593 132.77 108.371 132.857 108.149 133.031C107.933 133.199 107.753 133.418 107.609 133.688C107.471 133.958 107.402 134.231 107.402 134.507V136.73C107.402 136.808 107.375 136.874 107.321 136.928C107.273 136.976 107.21 137 107.132 137C107.054 137 106.988 136.976 106.934 136.928C106.886 136.874 106.862 136.808 106.862 136.73V132.698C106.862 132.62 106.886 132.557 106.934 132.509C106.988 132.455 107.054 132.428 107.132 132.428C107.21 132.428 107.273 132.455 107.321 132.509C107.375 132.557 107.402 132.62 107.402 132.698V133.49C107.54 133.148 107.747 132.866 108.023 132.644C108.305 132.416 108.635 132.299 109.013 132.293ZM118.006 132.365C118.546 132.365 118.942 132.533 119.194 132.869C119.452 133.199 119.581 133.637 119.581 134.183V136.73C119.581 136.808 119.554 136.874 119.5 136.928C119.452 136.976 119.389 137 119.311 137C119.233 137 119.167 136.976 119.113 136.928C119.065 136.874 119.041 136.808 119.041 136.73V134.21C119.041 133.814 118.945 133.493 118.753 133.247C118.567 132.995 118.276 132.869 117.88 132.869C117.628 132.869 117.388 132.929 117.16 133.049C116.938 133.169 116.758 133.334 116.62 133.544C116.482 133.748 116.413 133.97 116.413 134.21V136.73C116.413 136.808 116.386 136.874 116.332 136.928C116.284 136.976 116.221 137 116.143 137C116.065 137 115.999 136.976 115.945 136.928C115.897 136.874 115.873 136.808 115.873 136.73V134.183C115.873 133.793 115.783 133.478 115.603 133.238C115.423 132.992 115.141 132.869 114.757 132.869C114.511 132.869 114.277 132.929 114.055 133.049C113.839 133.169 113.662 133.331 113.524 133.535C113.392 133.733 113.326 133.949 113.326 134.183V136.73C113.326 136.808 113.299 136.874 113.245 136.928C113.197 136.976 113.134 137 113.056 137C112.978 137 112.912 136.976 112.858 136.928C112.81 136.874 112.786 136.808 112.786 136.73V132.698C112.786 132.62 112.81 132.557 112.858 132.509C112.912 132.455 112.978 132.428 113.056 132.428C113.134 132.428 113.197 132.455 113.245 132.509C113.299 132.557 113.326 132.62 113.326 132.698V133.22C113.488 132.974 113.707 132.77 113.983 132.608C114.259 132.446 114.55 132.365 114.856 132.365C115.204 132.365 115.504 132.449 115.756 132.617C116.008 132.785 116.188 133.031 116.296 133.355C116.422 133.091 116.653 132.86 116.989 132.662C117.325 132.464 117.664 132.365 118.006 132.365ZM124.883 134.435C124.883 134.507 124.856 134.57 124.802 134.624C124.748 134.672 124.685 134.696 124.613 134.696H121.211C121.211 135.056 121.283 135.38 121.427 135.668C121.577 135.95 121.787 136.175 122.057 136.343C122.333 136.505 122.657 136.586 123.029 136.586C123.317 136.586 123.575 136.526 123.803 136.406C124.031 136.286 124.214 136.133 124.352 135.947C124.418 135.893 124.481 135.866 124.541 135.866C124.601 135.866 124.655 135.89 124.703 135.938C124.751 135.986 124.775 136.04 124.775 136.1C124.775 136.166 124.745 136.229 124.685 136.289C124.493 136.523 124.25 136.715 123.956 136.865C123.668 137.015 123.362 137.09 123.038 137.09C122.576 137.09 122.168 136.991 121.814 136.793C121.46 136.595 121.184 136.319 120.986 135.965C120.788 135.605 120.689 135.191 120.689 134.723C120.689 134.231 120.785 133.802 120.977 133.436C121.175 133.064 121.436 132.782 121.76 132.59C122.084 132.392 122.429 132.293 122.795 132.293C123.155 132.293 123.491 132.377 123.803 132.545C124.121 132.713 124.379 132.959 124.577 133.283C124.775 133.607 124.877 133.991 124.883 134.435ZM122.795 132.815C122.447 132.815 122.123 132.935 121.823 133.175C121.529 133.415 121.34 133.76 121.256 134.21H124.325V134.138C124.295 133.868 124.205 133.634 124.055 133.436C123.905 133.232 123.716 133.079 123.488 132.977C123.266 132.869 123.035 132.815 122.795 132.815ZM123.866 131.528C123.908 131.576 123.929 131.627 123.929 131.681C123.929 131.711 123.914 131.741 123.884 131.771C123.86 131.801 123.827 131.816 123.785 131.816C123.737 131.816 123.698 131.807 123.668 131.789C123.638 131.771 123.596 131.738 123.542 131.69L122.831 131.123L122.147 131.699C122.135 131.705 122.111 131.723 122.075 131.753C122.045 131.777 122.018 131.795 121.994 131.807C121.97 131.819 121.943 131.825 121.913 131.825C121.871 131.825 121.835 131.81 121.805 131.78C121.775 131.75 121.76 131.717 121.76 131.681C121.76 131.633 121.784 131.585 121.832 131.537L122.489 130.817C122.555 130.715 122.654 130.664 122.786 130.664H122.93C123.002 130.664 123.059 130.676 123.101 130.7C123.143 130.718 123.182 130.757 123.218 130.817L123.866 131.528ZM125.735 136.271C125.687 136.193 125.663 136.127 125.663 136.073C125.663 135.995 125.702 135.935 125.78 135.893C125.816 135.857 125.864 135.839 125.924 135.839C125.996 135.839 126.062 135.869 126.122 135.929C126.476 136.397 126.947 136.631 127.535 136.631C127.823 136.631 128.072 136.565 128.282 136.433C128.498 136.295 128.606 136.097 128.606 135.839C128.606 135.587 128.507 135.398 128.309 135.272C128.111 135.146 127.835 135.038 127.481 134.948C126.983 134.822 126.593 134.66 126.311 134.462C126.029 134.258 125.888 133.961 125.888 133.571C125.888 133.325 125.957 133.106 126.095 132.914C126.233 132.716 126.419 132.563 126.653 132.455C126.893 132.347 127.163 132.293 127.463 132.293C127.721 132.293 127.979 132.344 128.237 132.446C128.501 132.542 128.726 132.698 128.912 132.914C128.966 132.956 128.993 133.016 128.993 133.094C128.993 133.166 128.963 133.229 128.903 133.283C128.861 133.319 128.807 133.337 128.741 133.337C128.681 133.337 128.627 133.313 128.579 133.265C128.435 133.103 128.264 132.98 128.066 132.896C127.868 132.812 127.655 132.77 127.427 132.77C127.145 132.77 126.902 132.836 126.698 132.968C126.5 133.1 126.401 133.298 126.401 133.562C126.413 133.802 126.521 133.985 126.725 134.111C126.935 134.237 127.241 134.351 127.643 134.453C127.955 134.531 128.213 134.618 128.417 134.714C128.621 134.81 128.786 134.945 128.912 135.119C129.044 135.293 129.11 135.524 129.11 135.812C129.11 136.202 128.954 136.514 128.642 136.748C128.33 136.976 127.943 137.09 127.481 137.09C126.749 137.09 126.167 136.817 125.735 136.271Z" fill="black"/>
<path d="M84.7419 115.01C84.8859 115.01 85.0059 115.058 85.1019 115.154C85.1979 115.25 85.2459 115.37 85.2459 115.514C85.2459 115.652 85.1979 115.769 85.1019 115.865C85.0059 115.955 84.8859 116 84.7419 116H81.6819C81.5259 116 81.4029 115.952 81.3129 115.856C81.2229 115.76 81.1779 115.637 81.1779 115.487C81.1779 115.337 81.2319 115.205 81.3399 115.091L83.3019 112.994C83.5239 112.754 83.6979 112.514 83.8239 112.274C83.9559 112.028 84.0219 111.803 84.0219 111.599C84.0219 111.329 83.9259 111.095 83.7339 110.897C83.5419 110.699 83.3199 110.6 83.0679 110.6C82.8939 110.6 82.7169 110.66 82.5369 110.78C82.3629 110.894 82.2039 111.047 82.0599 111.239C81.9519 111.383 81.8139 111.455 81.6459 111.455C81.5139 111.455 81.3909 111.404 81.2769 111.302C81.1689 111.2 81.1149 111.086 81.1149 110.96C81.1149 110.87 81.1449 110.78 81.2049 110.69C81.2649 110.594 81.3549 110.486 81.4749 110.366C81.7029 110.138 81.9669 109.955 82.2669 109.817C82.5669 109.679 82.8549 109.61 83.1309 109.61C83.5269 109.61 83.8749 109.694 84.1749 109.862C84.4749 110.03 84.7059 110.261 84.8679 110.555C85.0299 110.849 85.1109 111.182 85.1109 111.554C85.1109 111.92 85.0119 112.298 84.8139 112.688C84.6219 113.072 84.3609 113.441 84.0309 113.795L82.8879 115.01H84.7419ZM92.163 111.311C92.223 111.311 92.28 111.332 92.334 111.374C92.388 111.416 92.415 111.47 92.415 111.536C92.415 111.59 92.403 111.641 92.379 111.689L90.615 115.829C90.591 115.877 90.555 115.919 90.507 115.955C90.465 115.985 90.42 116 90.372 116C90.312 116.006 90.258 115.994 90.21 115.964C90.162 115.934 90.126 115.889 90.102 115.829L88.329 111.689C88.329 111.677 88.323 111.659 88.311 111.635C88.305 111.611 88.302 111.587 88.302 111.563C88.302 111.491 88.326 111.431 88.374 111.383C88.422 111.329 88.491 111.302 88.581 111.302C88.635 111.302 88.683 111.32 88.725 111.356C88.773 111.386 88.809 111.428 88.833 111.482L90.363 115.127L91.902 111.482C91.926 111.428 91.959 111.386 92.001 111.356C92.049 111.32 92.103 111.305 92.163 111.311ZM97.1701 111.401C97.2481 111.401 97.3111 111.428 97.3591 111.482C97.4131 111.536 97.4401 111.602 97.4401 111.68V115.73C97.4401 115.808 97.4131 115.874 97.3591 115.928C97.3111 115.976 97.2481 116 97.1701 116C97.0921 116 97.0261 115.976 96.9721 115.928C96.9241 115.874 96.9001 115.808 96.9001 115.73V115.127C96.7501 115.397 96.5251 115.625 96.2251 115.811C95.9251 115.997 95.5981 116.09 95.2441 116.09C94.8421 116.09 94.4791 115.985 94.1551 115.775C93.8371 115.565 93.5851 115.277 93.3991 114.911C93.2191 114.545 93.1291 114.134 93.1291 113.678C93.1291 113.222 93.2221 112.814 93.4081 112.454C93.5941 112.088 93.8461 111.803 94.1641 111.599C94.4881 111.395 94.8451 111.293 95.2351 111.293C95.5951 111.293 95.9251 111.38 96.2251 111.554C96.5251 111.728 96.7501 111.956 96.9001 112.238V111.68C96.9001 111.602 96.9241 111.536 96.9721 111.482C97.0261 111.428 97.0921 111.401 97.1701 111.401ZM95.2981 115.586C95.6101 115.586 95.8891 115.505 96.1351 115.343C96.3871 115.175 96.5821 114.947 96.7201 114.659C96.8641 114.365 96.9361 114.038 96.9361 113.678C96.9361 113.33 96.8641 113.012 96.7201 112.724C96.5821 112.436 96.3871 112.211 96.1351 112.049C95.8891 111.881 95.6101 111.797 95.2981 111.797C94.9861 111.797 94.7041 111.878 94.4521 112.04C94.2061 112.202 94.0111 112.427 93.8671 112.715C93.7291 112.997 93.6601 113.318 93.6601 113.678C93.6601 114.038 93.7291 114.365 93.8671 114.659C94.0051 114.947 94.1971 115.175 94.4431 115.343C94.6951 115.505 94.9801 115.586 95.2981 115.586ZM102.737 111.401C102.815 111.401 102.878 111.428 102.926 111.482C102.98 111.53 103.007 111.596 103.007 111.68V115.577C103.007 116.045 102.908 116.444 102.71 116.774C102.518 117.11 102.251 117.365 101.909 117.539C101.573 117.713 101.186 117.8 100.748 117.8C100.538 117.8 100.316 117.773 100.082 117.719C99.8542 117.665 99.6562 117.596 99.4882 117.512C99.3262 117.428 99.2332 117.341 99.2092 117.251C99.1672 117.209 99.1462 117.161 99.1462 117.107C99.1462 117.047 99.1732 116.999 99.2272 116.963C99.2512 116.945 99.2812 116.936 99.3172 116.936C99.3532 116.936 99.4222 116.957 99.5242 116.999L99.7132 117.08C100.085 117.224 100.433 117.296 100.757 117.296C101.291 117.296 101.708 117.143 102.008 116.837C102.314 116.537 102.467 116.129 102.467 115.613V115.055C102.317 115.379 102.08 115.634 101.756 115.82C101.432 116 101.093 116.09 100.739 116.09C100.325 116.09 99.9502 115.988 99.6142 115.784C99.2842 115.574 99.0232 115.286 98.8312 114.92C98.6392 114.554 98.5432 114.143 98.5432 113.687C98.5432 113.237 98.6392 112.829 98.8312 112.463C99.0232 112.097 99.2842 111.812 99.6142 111.608C99.9502 111.398 100.322 111.293 100.73 111.293C101.108 111.293 101.453 111.389 101.765 111.581C102.083 111.767 102.317 111.992 102.467 112.256V111.68C102.467 111.602 102.491 111.536 102.539 111.482C102.593 111.428 102.659 111.401 102.737 111.401ZM100.784 115.586C101.114 115.586 101.408 115.508 101.666 115.352C101.93 115.19 102.134 114.965 102.278 114.677C102.428 114.383 102.503 114.053 102.503 113.687C102.503 113.321 102.428 112.994 102.278 112.706C102.134 112.418 101.93 112.196 101.666 112.04C101.408 111.878 101.114 111.797 100.784 111.797C100.46 111.797 100.166 111.881 99.9022 112.049C99.6442 112.211 99.4402 112.436 99.2902 112.724C99.1462 113.012 99.0742 113.333 99.0742 113.687C99.0742 114.047 99.1462 114.371 99.2902 114.659C99.4402 114.947 99.6442 115.175 99.9022 115.343C100.166 115.505 100.46 115.586 100.784 115.586ZM108.121 111.401C108.199 111.401 108.262 111.428 108.31 111.482C108.364 111.536 108.391 111.602 108.391 111.68V115.73C108.391 115.808 108.364 115.874 108.31 115.928C108.262 115.976 108.199 116 108.121 116C108.043 116 107.977 115.976 107.923 115.928C107.875 115.874 107.851 115.808 107.851 115.73V115.127C107.701 115.397 107.476 115.625 107.176 115.811C106.876 115.997 106.549 116.09 106.195 116.09C105.793 116.09 105.43 115.985 105.106 115.775C104.788 115.565 104.536 115.277 104.35 114.911C104.17 114.545 104.08 114.134 104.08 113.678C104.08 113.222 104.173 112.814 104.359 112.454C104.545 112.088 104.797 111.803 105.115 111.599C105.439 111.395 105.796 111.293 106.186 111.293C106.546 111.293 106.876 111.38 107.176 111.554C107.476 111.728 107.701 111.956 107.851 112.238V111.68C107.851 111.602 107.875 111.536 107.923 111.482C107.977 111.428 108.043 111.401 108.121 111.401ZM106.249 115.586C106.561 115.586 106.84 115.505 107.086 115.343C107.338 115.175 107.533 114.947 107.671 114.659C107.815 114.365 107.887 114.038 107.887 113.678C107.887 113.33 107.815 113.012 107.671 112.724C107.533 112.436 107.338 112.211 107.086 112.049C106.84 111.881 106.561 111.797 106.249 111.797C105.937 111.797 105.655 111.878 105.403 112.04C105.157 112.202 104.962 112.427 104.818 112.715C104.68 112.997 104.611 113.318 104.611 113.678C104.611 114.038 104.68 114.365 104.818 114.659C104.956 114.947 105.148 115.175 105.394 115.343C105.646 115.505 105.931 115.586 106.249 115.586ZM109.539 115.271C109.491 115.193 109.467 115.127 109.467 115.073C109.467 114.995 109.506 114.935 109.584 114.893C109.62 114.857 109.668 114.839 109.728 114.839C109.8 114.839 109.866 114.869 109.926 114.929C110.28 115.397 110.751 115.631 111.339 115.631C111.627 115.631 111.876 115.565 112.086 115.433C112.302 115.295 112.41 115.097 112.41 114.839C112.41 114.587 112.311 114.398 112.113 114.272C111.915 114.146 111.639 114.038 111.285 113.948C110.787 113.822 110.397 113.66 110.115 113.462C109.833 113.258 109.692 112.961 109.692 112.571C109.692 112.325 109.761 112.106 109.899 111.914C110.037 111.716 110.223 111.563 110.457 111.455C110.697 111.347 110.967 111.293 111.267 111.293C111.525 111.293 111.783 111.344 112.041 111.446C112.305 111.542 112.53 111.698 112.716 111.914C112.77 111.956 112.797 112.016 112.797 112.094C112.797 112.166 112.767 112.229 112.707 112.283C112.665 112.319 112.611 112.337 112.545 112.337C112.485 112.337 112.431 112.313 112.383 112.265C112.239 112.103 112.068 111.98 111.87 111.896C111.672 111.812 111.459 111.77 111.231 111.77C110.949 111.77 110.706 111.836 110.502 111.968C110.304 112.1 110.205 112.298 110.205 112.562C110.217 112.802 110.325 112.985 110.529 113.111C110.739 113.237 111.045 113.351 111.447 113.453C111.759 113.531 112.017 113.618 112.221 113.714C112.425 113.81 112.59 113.945 112.716 114.119C112.848 114.293 112.914 114.524 112.914 114.812C112.914 115.202 112.758 115.514 112.446 115.748C112.134 115.976 111.747 116.09 111.285 116.09C110.553 116.09 109.971 115.817 109.539 115.271Z" fill="black"/>
<defs>
<filter id="filter0_d" x="0" y="0" width="193" height="230" filterUnits="userSpaceOnUse" color-interpolation-filters="sRGB">
<feFlood flood-opacity="0" result="BackgroundImageFix"/>
<feColorMatrix in="SourceAlpha" type="matrix" values="0 0 0 0 0 0 0 0 0 0 0 0 0 0 0 0 0 0 127 0" result="hardAlpha"/>
<feOffset dy="4"/>
<feGaussianBlur stdDeviation="10"/>
<feColorMatrix type="matrix" values="0 0 0 0 0.882353 0 0 0 0 0.882353 0 0 0 0 0.882353 0 0 0 1 0"/>
<feBlend mode="normal" in2="BackgroundImageFix" result="effect1_dropShadow"/>
<feBlend mode="normal" in="SourceGraphic" in2="effect1_dropShadow" result="shape"/>
</filter>
<filter id="filter1_d" x="74" y="22" width="48" height="48" filterUnits="userSpaceOnUse" color-interpolation-filters="sRGB">
<feFlood flood-opacity="0" result="BackgroundImageFix"/>
<feColorMatrix in="SourceAlpha" type="matrix" values="0 0 0 0 0 0 0 0 0 0 0 0 0 0 0 0 0 0 127 0" result="hardAlpha"/>
<feOffset dy="4"/>
<feGaussianBlur stdDeviation="2"/>
<feColorMatrix type="matrix" values="0 0 0 0 0.960784 0 0 0 0 0.960784 0 0 0 0 0.960784 0 0 0 1 0"/>
<feBlend mode="normal" in2="BackgroundImageFix" result="effect1_dropShadow"/>
<feBlend mode="normal" in="SourceGraphic" in2="effect1_dropShadow" result="shape"/>
</filter>
</defs>
</svg>
