<svg width="188" height="222" viewBox="0 0 188 222" fill="none" xmlns="http://www.w3.org/2000/svg">
<g filter="url(#filter0_d)">
<rect x="15" y="16" width="153" height="190" rx="8" fill="white"/>
</g>
<rect x="22" y="170" width="138" height="16" rx="5" fill="#F7F7F7" fill-opacity="0.4"/>
<g filter="url(#filter1_d)">
<circle cx="93" cy="42" r="20" fill="white"/>
<circle cx="93" cy="42" r="19.5" stroke="#EAF4FF"/>
</g>
<path d="M45.5399 79.032H49.2079C50.8412 79.032 52.1059 79.466 53.0019 80.334C53.9072 81.202 54.3599 82.4247 54.3599 84.002C54.3599 85.5887 53.9072 86.8207 53.0019 87.698C52.1059 88.566 50.8412 89 49.2079 89H45.5399V79.032ZM49.0959 87.53C51.3919 87.53 52.5399 86.354 52.5399 84.002C52.5399 81.6687 51.3919 80.502 49.0959 80.502H47.3459V87.53H49.0959ZM62.266 85.556H57.394C57.4313 86.312 57.618 86.872 57.954 87.236C58.2993 87.5907 58.808 87.768 59.48 87.768C60.2546 87.768 60.9733 87.516 61.636 87.012L62.14 88.216C61.804 88.4867 61.3886 88.706 60.894 88.874C60.4086 89.0327 59.914 89.112 59.41 89.112C58.2526 89.112 57.3426 88.7853 56.68 88.132C56.0173 87.4787 55.686 86.5827 55.686 85.444C55.686 84.7253 55.8306 84.086 56.12 83.526C56.4093 82.966 56.8153 82.532 57.338 82.224C57.8606 81.9067 58.4533 81.748 59.116 81.748C60.0866 81.748 60.852 82.0653 61.412 82.7C61.9813 83.3253 62.266 84.1887 62.266 85.29V85.556ZM59.158 83.008C58.6913 83.008 58.3086 83.148 58.01 83.428C57.7206 83.6987 57.534 84.0953 57.45 84.618H60.74C60.684 84.086 60.5206 83.6847 60.25 83.414C59.9886 83.1433 59.6246 83.008 59.158 83.008ZM69.9359 85.556H65.0639C65.1012 86.312 65.2879 86.872 65.6239 87.236C65.9692 87.5907 66.4779 87.768 67.1499 87.768C67.9246 87.768 68.6432 87.516 69.3059 87.012L69.8099 88.216C69.4739 88.4867 69.0586 88.706 68.5639 88.874C68.0786 89.0327 67.5839 89.112 67.0799 89.112C65.9226 89.112 65.0126 88.7853 64.3499 88.132C63.6872 87.4787 63.3559 86.5827 63.3559 85.444C63.3559 84.7253 63.5006 84.086 63.7899 83.526C64.0792 82.966 64.4852 82.532 65.0079 82.224C65.5306 81.9067 66.1232 81.748 66.7859 81.748C67.7566 81.748 68.5219 82.0653 69.0819 82.7C69.6512 83.3253 69.9359 84.1887 69.9359 85.29V85.556ZM66.8279 83.008C66.3612 83.008 65.9786 83.148 65.6799 83.428C65.3906 83.6987 65.2039 84.0953 65.1199 84.618H68.4099C68.3539 84.086 68.1906 83.6847 67.9199 83.414C67.6586 83.1433 67.2946 83.008 66.8279 83.008ZM77.1611 87.67V89H71.0151V87.782L74.9211 83.246H71.0991V81.93H77.0071V83.12L73.0871 87.67H77.1611ZM84.6468 85.556H79.7748C79.8122 86.312 79.9988 86.872 80.3348 87.236C80.6802 87.5907 81.1888 87.768 81.8608 87.768C82.6355 87.768 83.3542 87.516 84.0168 87.012L84.5208 88.216C84.1848 88.4867 83.7695 88.706 83.2748 88.874C82.7895 89.0327 82.2948 89.112 81.7908 89.112C80.6335 89.112 79.7235 88.7853 79.0608 88.132C78.3982 87.4787 78.0668 86.5827 78.0668 85.444C78.0668 84.7253 78.2115 84.086 78.5008 83.526C78.7902 82.966 79.1962 82.532 79.7188 82.224C80.2415 81.9067 80.8342 81.748 81.4968 81.748C82.4675 81.748 83.2328 82.0653 83.7928 82.7C84.3622 83.3253 84.6468 84.1887 84.6468 85.29V85.556ZM81.5388 83.008C81.0722 83.008 80.6895 83.148 80.3908 83.428C80.1015 83.6987 79.9148 84.0953 79.8308 84.618H83.1208C83.0648 84.086 82.9015 83.6847 82.6308 83.414C82.3695 83.1433 82.0055 83.008 81.5388 83.008ZM89.9368 81.762C90.2074 81.762 90.4408 81.7993 90.6368 81.874L90.6228 83.47C90.3241 83.3487 90.0161 83.288 89.6988 83.288C89.1014 83.288 88.6441 83.4607 88.3268 83.806C88.0188 84.1513 87.8648 84.6087 87.8648 85.178V89H86.1288V83.932C86.1288 83.1853 86.0914 82.518 86.0168 81.93H87.6548L87.7948 83.176C87.9721 82.7187 88.2521 82.3687 88.6348 82.126C89.0174 81.8833 89.4514 81.762 89.9368 81.762ZM95.579 79.032H102.089V80.474H97.371V83.204H101.809V84.66H97.371V89H95.579V79.032ZM110.09 81.93V89H108.368V87.866C108.153 88.258 107.845 88.566 107.444 88.79C107.043 89.0047 106.585 89.112 106.072 89.112C105.456 89.112 104.91 88.9627 104.434 88.664C103.958 88.3653 103.589 87.9407 103.328 87.39C103.067 86.8393 102.936 86.2 102.936 85.472C102.936 84.744 103.067 84.1 103.328 83.54C103.599 82.9707 103.972 82.532 104.448 82.224C104.924 81.9067 105.465 81.748 106.072 81.748C106.585 81.748 107.043 81.86 107.444 82.084C107.845 82.2987 108.153 82.602 108.368 82.994V81.93H110.09ZM106.548 87.74C107.127 87.74 107.575 87.5393 107.892 87.138C108.209 86.7367 108.368 86.172 108.368 85.444C108.368 84.6973 108.209 84.1233 107.892 83.722C107.575 83.3207 107.122 83.12 106.534 83.12C105.955 83.12 105.503 83.33 105.176 83.75C104.859 84.1607 104.7 84.7347 104.7 85.472C104.7 86.2 104.859 86.76 105.176 87.152C105.503 87.544 105.96 87.74 106.548 87.74ZM120.34 81.748C121.143 81.748 121.74 81.9907 122.132 82.476C122.524 82.952 122.72 83.68 122.72 84.66V89H120.97V84.716C120.97 84.156 120.877 83.7547 120.69 83.512C120.513 83.26 120.214 83.134 119.794 83.134C119.309 83.134 118.926 83.3067 118.646 83.652C118.375 83.988 118.24 84.4547 118.24 85.052V89H116.49V84.716C116.49 84.1653 116.392 83.764 116.196 83.512C116.009 83.26 115.711 83.134 115.3 83.134C114.815 83.134 114.432 83.3067 114.152 83.652C113.872 83.988 113.732 84.4547 113.732 85.052V89H111.996V83.932C111.996 83.1853 111.959 82.518 111.884 81.93H113.522L113.648 83.05C113.853 82.63 114.147 82.308 114.53 82.084C114.922 81.86 115.37 81.748 115.874 81.748C116.957 81.748 117.661 82.196 117.988 83.092C118.212 82.672 118.529 82.3453 118.94 82.112C119.36 81.8693 119.827 81.748 120.34 81.748ZM124.588 81.93H126.324V89H124.588V81.93ZM126.422 78.724V80.446H124.476V78.724H126.422ZM128.238 78.696H129.974V89H128.238V78.696ZM138.581 81.93L135.291 89.476C134.917 90.3533 134.441 90.9927 133.863 91.394C133.284 91.7953 132.57 92.0613 131.721 92.192L131.329 90.848C131.991 90.6987 132.486 90.5073 132.813 90.274C133.149 90.05 133.419 89.714 133.625 89.266L133.849 88.748L130.909 81.93H132.743L134.773 87.012L136.845 81.93H138.581Z" fill="black"/>
<path d="M61.5814 182.08C60.6347 182.08 59.9147 181.833 59.4214 181.34C58.9347 180.847 58.6914 180.123 58.6914 179.17V174.88H59.7014V179.24C59.7014 179.9 59.858 180.4 60.1714 180.74C60.4914 181.073 60.9614 181.24 61.5814 181.24C62.1947 181.24 62.658 181.07 62.9714 180.73C63.2914 180.39 63.4514 179.893 63.4514 179.24V174.88H64.4714V179.17C64.4714 180.123 64.2247 180.847 63.7314 181.34C63.2447 181.833 62.528 182.08 61.5814 182.08ZM61.2414 174.27L62.2614 172.73H63.3014L61.9114 174.27H61.2414ZM65.9949 174.64H66.9949V182H65.9949V174.64ZM69.7854 177.74V180.27C69.7854 180.617 69.8587 180.863 70.0054 181.01C70.1587 181.15 70.3687 181.22 70.6354 181.22C70.8087 181.22 70.9854 181.193 71.1654 181.14V181.96C70.9454 182.033 70.6954 182.07 70.4154 182.07C69.8954 182.07 69.492 181.923 69.2054 181.63C68.9187 181.337 68.7754 180.91 68.7754 180.35V177.74H67.7954V176.96H68.7754V175.7L69.7854 175.35V176.96H71.1754V177.74H69.7854ZM72.1082 176.96H73.1082V182H72.1082V176.96ZM73.1882 174.76V175.82H72.0182V174.76H73.1882ZM80.3386 176.84C81.4586 176.84 82.0186 177.513 82.0186 178.86V182H81.0086V178.91C81.0086 178.477 80.932 178.16 80.7786 177.96C80.632 177.76 80.392 177.66 80.0586 177.66C79.672 177.66 79.3653 177.793 79.1386 178.06C78.9186 178.327 78.8086 178.69 78.8086 179.15V182H77.7986V178.91C77.7986 178.477 77.722 178.16 77.5686 177.96C77.422 177.76 77.182 177.66 76.8486 177.66C76.462 177.66 76.1553 177.793 75.9286 178.06C75.702 178.327 75.5886 178.69 75.5886 179.15V182H74.5886V178.38C74.5886 177.853 74.562 177.38 74.5086 176.96H75.4486L75.5386 177.8C75.6853 177.493 75.8953 177.257 76.1686 177.09C76.442 176.923 76.762 176.84 77.1286 176.84C77.9086 176.84 78.4186 177.163 78.6586 177.81C78.812 177.51 79.0353 177.273 79.3286 177.1C79.6286 176.927 79.9653 176.84 80.3386 176.84ZM88.0756 176.96V182H87.0756V181.14C86.9289 181.44 86.7089 181.67 86.4156 181.83C86.1289 181.99 85.7923 182.07 85.4056 182.07C84.9589 182.07 84.5656 181.963 84.2256 181.75C83.8923 181.537 83.6323 181.237 83.4456 180.85C83.2589 180.457 83.1656 180 83.1656 179.48C83.1656 178.96 83.2589 178.5 83.4456 178.1C83.6389 177.7 83.9056 177.39 84.2456 177.17C84.5856 176.95 84.9723 176.84 85.4056 176.84C85.7923 176.84 86.1289 176.923 86.4156 177.09C86.7023 177.25 86.9223 177.48 87.0756 177.78V176.96H88.0756ZM85.6456 181.27C86.0989 181.27 86.4489 181.113 86.6956 180.8C86.9489 180.48 87.0756 180.033 87.0756 179.46C87.0756 178.88 86.9489 178.433 86.6956 178.12C86.4489 177.807 86.0956 177.65 85.6356 177.65C85.1823 177.65 84.8256 177.813 84.5656 178.14C84.3123 178.46 84.1856 178.907 84.1856 179.48C84.1856 180.047 84.3123 180.487 84.5656 180.8C84.8256 181.113 85.1856 181.27 85.6456 181.27ZM96.8054 176.97L94.6154 182H93.7054L91.5354 176.97H92.6054L94.1854 180.86L95.7954 176.97H96.8054ZM102.128 176.96V182H101.128V181.14C100.982 181.44 100.762 181.67 100.468 181.83C100.182 181.99 99.845 182.07 99.4583 182.07C99.0117 182.07 98.6183 181.963 98.2783 181.75C97.945 181.537 97.685 181.237 97.4983 180.85C97.3117 180.457 97.2183 180 97.2183 179.48C97.2183 178.96 97.3117 178.5 97.4983 178.1C97.6917 177.7 97.9583 177.39 98.2983 177.17C98.6383 176.95 99.025 176.84 99.4583 176.84C99.845 176.84 100.182 176.923 100.468 177.09C100.755 177.25 100.975 177.48 101.128 177.78V176.96H102.128ZM99.6983 181.27C100.152 181.27 100.502 181.113 100.748 180.8C101.002 180.48 101.128 180.033 101.128 179.46C101.128 178.88 101.002 178.433 100.748 178.12C100.502 177.807 100.148 177.65 99.6883 177.65C99.235 177.65 98.8783 177.813 98.6183 178.14C98.365 178.46 98.2383 178.907 98.2383 179.48C98.2383 180.047 98.365 180.487 98.6183 180.8C98.8783 181.113 99.2383 181.27 99.6983 181.27ZM108.262 176.96V181.91C108.262 182.677 108.059 183.253 107.652 183.64C107.252 184.033 106.655 184.23 105.862 184.23C105.095 184.23 104.425 184.063 103.852 183.73L104.022 182.94C104.335 183.107 104.635 183.23 104.922 183.31C105.215 183.39 105.525 183.43 105.852 183.43C106.792 183.43 107.262 182.95 107.262 181.99V180.9C107.109 181.193 106.885 181.427 106.592 181.6C106.299 181.767 105.959 181.85 105.572 181.85C105.132 181.85 104.739 181.747 104.392 181.54C104.052 181.333 103.785 181.04 103.592 180.66C103.405 180.28 103.312 179.843 103.312 179.35C103.312 178.857 103.405 178.42 103.592 178.04C103.785 177.66 104.052 177.367 104.392 177.16C104.739 176.947 105.132 176.84 105.572 176.84C105.959 176.84 106.299 176.923 106.592 177.09C106.885 177.25 107.109 177.48 107.262 177.78V176.96H108.262ZM105.802 181.04C106.255 181.04 106.612 180.89 106.872 180.59C107.132 180.29 107.262 179.877 107.262 179.35C107.262 178.823 107.132 178.41 106.872 178.11C106.619 177.803 106.262 177.65 105.802 177.65C105.349 177.65 104.989 177.803 104.722 178.11C104.462 178.41 104.332 178.823 104.332 179.35C104.332 179.87 104.462 180.283 104.722 180.59C104.989 180.89 105.349 181.04 105.802 181.04ZM114.355 176.96V182H113.355V181.14C113.208 181.44 112.988 181.67 112.695 181.83C112.408 181.99 112.072 182.07 111.685 182.07C111.238 182.07 110.845 181.963 110.505 181.75C110.172 181.537 109.912 181.237 109.725 180.85C109.538 180.457 109.445 180 109.445 179.48C109.445 178.96 109.538 178.5 109.725 178.1C109.918 177.7 110.185 177.39 110.525 177.17C110.865 176.95 111.252 176.84 111.685 176.84C112.072 176.84 112.408 176.923 112.695 177.09C112.982 177.25 113.202 177.48 113.355 177.78V176.96H114.355ZM111.925 181.27C112.378 181.27 112.728 181.113 112.975 180.8C113.228 180.48 113.355 180.033 113.355 179.46C113.355 178.88 113.228 178.433 112.975 178.12C112.728 177.807 112.375 177.65 111.915 177.65C111.462 177.65 111.105 177.813 110.845 178.14C110.592 178.46 110.465 178.907 110.465 179.48C110.465 180.047 110.592 180.487 110.845 180.8C111.105 181.113 111.465 181.27 111.925 181.27Z" fill="#C4C4C4"/>
<path d="M68.5661 130.7C68.7161 130.7 68.8421 130.754 68.9441 130.862C69.0461 130.964 69.0971 131.093 69.0971 131.249V136.451C69.0971 136.607 69.0401 136.739 68.9261 136.847C68.8121 136.949 68.6711 137 68.5031 137C68.3351 137 68.1971 136.949 68.0891 136.847C67.9811 136.739 67.9271 136.607 67.9271 136.451V132.185L67.3691 132.527C67.2791 132.581 67.1831 132.608 67.0811 132.608C66.9311 132.608 66.8021 132.551 66.6941 132.437C66.5921 132.323 66.5411 132.197 66.5411 132.059C66.5411 131.963 66.5651 131.873 66.6131 131.789C66.6671 131.705 66.7361 131.639 66.8201 131.591L68.1791 130.781C68.2811 130.727 68.4101 130.7 68.5661 130.7ZM72.2494 132.77C72.6454 132.77 73.0024 132.863 73.3204 133.049C73.6444 133.229 73.8964 133.478 74.0764 133.796C74.2624 134.114 74.3554 134.468 74.3554 134.858C74.3554 135.26 74.2414 135.632 74.0134 135.974C73.7854 136.316 73.4824 136.589 73.1044 136.793C72.7264 136.991 72.3184 137.09 71.8804 137.09C71.6464 137.09 71.4034 137.054 71.1514 136.982C70.9054 136.91 70.7044 136.811 70.5484 136.685C70.4764 136.625 70.4164 136.541 70.3684 136.433C70.3204 136.325 70.2964 136.223 70.2964 136.127C70.2964 136.019 70.3414 135.923 70.4314 135.839C70.5274 135.749 70.6504 135.704 70.8004 135.704C70.9084 135.704 71.0434 135.761 71.2054 135.875C71.4574 136.031 71.6794 136.109 71.8714 136.109C72.1174 136.109 72.3484 136.052 72.5644 135.938C72.7804 135.824 72.9514 135.671 73.0774 135.479C73.2094 135.287 73.2754 135.08 73.2754 134.858C73.2754 134.534 73.1644 134.27 72.9424 134.066C72.7204 133.862 72.4564 133.76 72.1504 133.76C72.0124 133.76 71.8894 133.778 71.7814 133.814C71.6734 133.85 71.5444 133.904 71.3944 133.976C71.2864 134.03 71.1994 134.069 71.1334 134.093C71.0734 134.117 71.0104 134.129 70.9444 134.129C70.7104 134.129 70.5424 134.066 70.4404 133.94C70.3444 133.814 70.2964 133.664 70.2964 133.49C70.2964 133.43 70.2994 133.388 70.3054 133.364L70.5844 131.132C70.6084 131.006 70.6684 130.904 70.7644 130.826C70.8664 130.742 70.9864 130.7 71.1244 130.7H73.7254C73.8694 130.7 73.9894 130.748 74.0854 130.844C74.1814 130.94 74.2294 131.06 74.2294 131.204C74.2294 131.342 74.1814 131.459 74.0854 131.555C73.9894 131.645 73.8694 131.69 73.7254 131.69H71.4934L71.3224 132.995C71.4364 132.929 71.5804 132.875 71.7544 132.833C71.9284 132.791 72.0934 132.77 72.2494 132.77ZM76.9393 136.928C76.9393 137.066 76.8883 137.24 76.7863 137.45C76.6843 137.66 76.5523 137.843 76.3903 137.999C76.2283 138.155 76.0603 138.233 75.8863 138.233C75.7543 138.233 75.6493 138.203 75.5713 138.143C75.4933 138.089 75.4543 137.999 75.4543 137.873C75.4543 137.777 75.4783 137.708 75.5263 137.666C75.5743 137.63 75.6253 137.603 75.6793 137.585C75.7393 137.567 75.7813 137.552 75.8053 137.54C75.9733 137.45 76.0573 137.33 76.0573 137.18C76.0573 137.114 76.0243 137.054 75.9583 137C75.8983 136.952 75.8173 136.928 75.7153 136.928C75.6133 136.928 75.5293 136.949 75.4633 136.991C75.3913 136.961 75.3343 136.922 75.2923 136.874C75.2563 136.826 75.2383 136.754 75.2383 136.658C75.2383 136.538 75.2833 136.427 75.3733 136.325C75.4633 136.217 75.5743 136.133 75.7063 136.073C75.8383 136.007 75.9673 135.974 76.0933 135.974C76.3573 135.974 76.5643 136.058 76.7143 136.226C76.8643 136.388 76.9393 136.622 76.9393 136.928ZM79.9218 130.583C80.3358 130.583 80.7048 130.7 81.0288 130.934C81.3528 131.162 81.6018 131.465 81.7758 131.843C81.9498 132.215 82.0368 132.614 82.0368 133.04C82.0368 133.478 81.9588 133.961 81.8028 134.489C81.6528 135.011 81.3738 135.506 80.9658 135.974C80.5638 136.442 80.0148 136.775 79.3188 136.973C79.2468 136.991 79.1778 137 79.1118 137C78.9558 137 78.8268 136.961 78.7248 136.883C78.6228 136.799 78.5718 136.67 78.5718 136.496C78.5718 136.364 78.6138 136.25 78.6978 136.154C78.7878 136.052 78.9048 135.98 79.0488 135.938C79.4268 135.83 79.7748 135.638 80.0928 135.362C80.4168 135.086 80.6538 134.756 80.8038 134.372C80.5038 134.63 80.1618 134.759 79.7778 134.759C79.4658 134.759 79.1568 134.666 78.8508 134.48C78.5508 134.288 78.3048 134.033 78.1128 133.715C77.9208 133.391 77.8248 133.043 77.8248 132.671C77.8248 132.293 77.9178 131.945 78.1038 131.627C78.2958 131.303 78.5508 131.048 78.8688 130.862C79.1868 130.676 79.5378 130.583 79.9218 130.583ZM79.9218 133.769C80.2098 133.769 80.4498 133.664 80.6418 133.454C80.8398 133.244 80.9388 132.983 80.9388 132.671C80.9388 132.359 80.8398 132.098 80.6418 131.888C80.4498 131.678 80.2098 131.573 79.9218 131.573C79.6398 131.573 79.3998 131.678 79.2018 131.888C79.0038 132.098 78.9048 132.359 78.9048 132.671C78.9048 132.983 79.0038 133.244 79.2018 133.454C79.3998 133.664 79.6398 133.769 79.9218 133.769ZM85.1585 137.09C84.6545 137.09 84.2195 136.955 83.8535 136.685C83.4935 136.415 83.2205 136.037 83.0345 135.551C82.8485 135.059 82.7555 134.492 82.7555 133.85C82.7555 133.208 82.8485 132.644 83.0345 132.158C83.2205 131.666 83.4935 131.285 83.8535 131.015C84.2195 130.745 84.6545 130.61 85.1585 130.61C85.6625 130.61 86.0945 130.745 86.4545 131.015C86.8205 131.285 87.0965 131.666 87.2825 132.158C87.4685 132.644 87.5615 133.208 87.5615 133.85C87.5615 134.492 87.4685 135.059 87.2825 135.551C87.0965 136.037 86.8205 136.415 86.4545 136.685C86.0945 136.955 85.6625 137.09 85.1585 137.09ZM85.1585 136.01C85.5425 136.01 85.8425 135.827 86.0585 135.461C86.2805 135.095 86.3915 134.558 86.3915 133.85C86.3915 133.142 86.2805 132.605 86.0585 132.239C85.8425 131.873 85.5425 131.69 85.1585 131.69C84.7745 131.69 84.4715 131.873 84.2495 132.239C84.0335 132.605 83.9255 133.142 83.9255 133.85C83.9255 134.558 84.0335 135.095 84.2495 135.461C84.4715 135.827 84.7745 136.01 85.1585 136.01ZM93.2828 132.365C93.6788 132.365 94.0388 132.467 94.3628 132.671C94.6868 132.869 94.9388 133.148 95.1188 133.508C95.3048 133.862 95.3978 134.261 95.3978 134.705C95.3978 135.155 95.3048 135.56 95.1188 135.92C94.9388 136.274 94.6868 136.553 94.3628 136.757C94.0448 136.961 93.6878 137.063 93.2918 137.063C92.9438 137.063 92.6228 136.982 92.3288 136.82C92.0408 136.652 91.8098 136.43 91.6358 136.154V138.53C91.6358 138.608 91.6088 138.671 91.5548 138.719C91.5068 138.773 91.4438 138.8 91.3658 138.8C91.2878 138.8 91.2218 138.773 91.1678 138.719C91.1198 138.671 91.0958 138.608 91.0958 138.53V132.662C91.0958 132.584 91.1198 132.518 91.1678 132.464C91.2218 132.41 91.2878 132.383 91.3658 132.383C91.4438 132.383 91.5068 132.41 91.5548 132.464C91.6088 132.518 91.6358 132.584 91.6358 132.662V133.274C91.7918 132.992 92.0168 132.77 92.3108 132.608C92.6048 132.446 92.9288 132.365 93.2828 132.365ZM93.2378 136.559C93.5498 136.559 93.8288 136.481 94.0748 136.325C94.3268 136.163 94.5218 135.941 94.6598 135.659C94.8038 135.377 94.8758 135.059 94.8758 134.705C94.8758 134.357 94.8038 134.045 94.6598 133.769C94.5218 133.487 94.3268 133.268 94.0748 133.112C93.8288 132.95 93.5498 132.869 93.2378 132.869C92.9198 132.869 92.6348 132.947 92.3828 133.103C92.1308 133.259 91.9358 133.478 91.7978 133.76C91.6598 134.036 91.5908 134.351 91.5908 134.705C91.5908 135.059 91.6598 135.377 91.7978 135.659C91.9358 135.941 92.1308 136.163 92.3828 136.325C92.6348 136.481 92.9198 136.559 93.2378 136.559ZM100.758 134.696C100.758 135.146 100.659 135.554 100.461 135.92C100.263 136.286 99.9898 136.574 99.6418 136.784C99.2938 136.988 98.9068 137.09 98.4808 137.09C98.0548 137.09 97.6678 136.988 97.3198 136.784C96.9718 136.574 96.6988 136.286 96.5008 135.92C96.3028 135.554 96.2038 135.146 96.2038 134.696C96.2038 134.246 96.3028 133.838 96.5008 133.472C96.6988 133.106 96.9718 132.818 97.3198 132.608C97.6678 132.398 98.0548 132.293 98.4808 132.293C98.9068 132.293 99.2938 132.398 99.6418 132.608C99.9898 132.818 100.263 133.106 100.461 133.472C100.659 133.838 100.758 134.246 100.758 134.696ZM100.218 134.696C100.218 134.336 100.143 134.012 99.9928 133.724C99.8428 133.436 99.6328 133.211 99.3628 133.049C99.0988 132.881 98.8048 132.797 98.4808 132.797C98.1568 132.797 97.8628 132.881 97.5988 133.049C97.3348 133.211 97.1248 133.436 96.9688 133.724C96.8188 134.012 96.7438 134.336 96.7438 134.696C96.7438 135.05 96.8188 135.371 96.9688 135.659C97.1248 135.947 97.3348 136.175 97.5988 136.343C97.8628 136.505 98.1568 136.586 98.4808 136.586C98.8048 136.586 99.0988 136.505 99.3628 136.343C99.6328 136.181 99.8428 135.956 99.9928 135.668C100.143 135.38 100.218 135.056 100.218 134.696ZM104.013 132.293C104.133 132.293 104.241 132.317 104.337 132.365C104.433 132.413 104.481 132.485 104.481 132.581C104.481 132.665 104.457 132.734 104.409 132.788C104.361 132.836 104.304 132.86 104.238 132.86C104.208 132.86 104.148 132.845 104.058 132.815C103.974 132.785 103.893 132.77 103.815 132.77C103.593 132.77 103.371 132.857 103.149 133.031C102.933 133.199 102.753 133.418 102.609 133.688C102.471 133.958 102.402 134.231 102.402 134.507V136.73C102.402 136.808 102.375 136.874 102.321 136.928C102.273 136.976 102.21 137 102.132 137C102.054 137 101.988 136.976 101.934 136.928C101.886 136.874 101.862 136.808 101.862 136.73V132.698C101.862 132.62 101.886 132.557 101.934 132.509C101.988 132.455 102.054 132.428 102.132 132.428C102.21 132.428 102.273 132.455 102.321 132.509C102.375 132.557 102.402 132.62 102.402 132.698V133.49C102.54 133.148 102.747 132.866 103.023 132.644C103.305 132.416 103.635 132.299 104.013 132.293ZM113.006 132.365C113.546 132.365 113.942 132.533 114.194 132.869C114.452 133.199 114.581 133.637 114.581 134.183V136.73C114.581 136.808 114.554 136.874 114.5 136.928C114.452 136.976 114.389 137 114.311 137C114.233 137 114.167 136.976 114.113 136.928C114.065 136.874 114.041 136.808 114.041 136.73V134.21C114.041 133.814 113.945 133.493 113.753 133.247C113.567 132.995 113.276 132.869 112.88 132.869C112.628 132.869 112.388 132.929 112.16 133.049C111.938 133.169 111.758 133.334 111.62 133.544C111.482 133.748 111.413 133.97 111.413 134.21V136.73C111.413 136.808 111.386 136.874 111.332 136.928C111.284 136.976 111.221 137 111.143 137C111.065 137 110.999 136.976 110.945 136.928C110.897 136.874 110.873 136.808 110.873 136.73V134.183C110.873 133.793 110.783 133.478 110.603 133.238C110.423 132.992 110.141 132.869 109.757 132.869C109.511 132.869 109.277 132.929 109.055 133.049C108.839 133.169 108.662 133.331 108.524 133.535C108.392 133.733 108.326 133.949 108.326 134.183V136.73C108.326 136.808 108.299 136.874 108.245 136.928C108.197 136.976 108.134 137 108.056 137C107.978 137 107.912 136.976 107.858 136.928C107.81 136.874 107.786 136.808 107.786 136.73V132.698C107.786 132.62 107.81 132.557 107.858 132.509C107.912 132.455 107.978 132.428 108.056 132.428C108.134 132.428 108.197 132.455 108.245 132.509C108.299 132.557 108.326 132.62 108.326 132.698V133.22C108.488 132.974 108.707 132.77 108.983 132.608C109.259 132.446 109.55 132.365 109.856 132.365C110.204 132.365 110.504 132.449 110.756 132.617C111.008 132.785 111.188 133.031 111.296 133.355C111.422 133.091 111.653 132.86 111.989 132.662C112.325 132.464 112.664 132.365 113.006 132.365ZM119.883 134.435C119.883 134.507 119.856 134.57 119.802 134.624C119.748 134.672 119.685 134.696 119.613 134.696H116.211C116.211 135.056 116.283 135.38 116.427 135.668C116.577 135.95 116.787 136.175 117.057 136.343C117.333 136.505 117.657 136.586 118.029 136.586C118.317 136.586 118.575 136.526 118.803 136.406C119.031 136.286 119.214 136.133 119.352 135.947C119.418 135.893 119.481 135.866 119.541 135.866C119.601 135.866 119.655 135.89 119.703 135.938C119.751 135.986 119.775 136.04 119.775 136.1C119.775 136.166 119.745 136.229 119.685 136.289C119.493 136.523 119.25 136.715 118.956 136.865C118.668 137.015 118.362 137.09 118.038 137.09C117.576 137.09 117.168 136.991 116.814 136.793C116.46 136.595 116.184 136.319 115.986 135.965C115.788 135.605 115.689 135.191 115.689 134.723C115.689 134.231 115.785 133.802 115.977 133.436C116.175 133.064 116.436 132.782 116.76 132.59C117.084 132.392 117.429 132.293 117.795 132.293C118.155 132.293 118.491 132.377 118.803 132.545C119.121 132.713 119.379 132.959 119.577 133.283C119.775 133.607 119.877 133.991 119.883 134.435ZM117.795 132.815C117.447 132.815 117.123 132.935 116.823 133.175C116.529 133.415 116.34 133.76 116.256 134.21H119.325V134.138C119.295 133.868 119.205 133.634 119.055 133.436C118.905 133.232 118.716 133.079 118.488 132.977C118.266 132.869 118.035 132.815 117.795 132.815ZM118.866 131.528C118.908 131.576 118.929 131.627 118.929 131.681C118.929 131.711 118.914 131.741 118.884 131.771C118.86 131.801 118.827 131.816 118.785 131.816C118.737 131.816 118.698 131.807 118.668 131.789C118.638 131.771 118.596 131.738 118.542 131.69L117.831 131.123L117.147 131.699C117.135 131.705 117.111 131.723 117.075 131.753C117.045 131.777 117.018 131.795 116.994 131.807C116.97 131.819 116.943 131.825 116.913 131.825C116.871 131.825 116.835 131.81 116.805 131.78C116.775 131.75 116.76 131.717 116.76 131.681C116.76 131.633 116.784 131.585 116.832 131.537L117.489 130.817C117.555 130.715 117.654 130.664 117.786 130.664H117.93C118.002 130.664 118.059 130.676 118.101 130.7C118.143 130.718 118.182 130.757 118.218 130.817L118.866 131.528ZM120.735 136.271C120.687 136.193 120.663 136.127 120.663 136.073C120.663 135.995 120.702 135.935 120.78 135.893C120.816 135.857 120.864 135.839 120.924 135.839C120.996 135.839 121.062 135.869 121.122 135.929C121.476 136.397 121.947 136.631 122.535 136.631C122.823 136.631 123.072 136.565 123.282 136.433C123.498 136.295 123.606 136.097 123.606 135.839C123.606 135.587 123.507 135.398 123.309 135.272C123.111 135.146 122.835 135.038 122.481 134.948C121.983 134.822 121.593 134.66 121.311 134.462C121.029 134.258 120.888 133.961 120.888 133.571C120.888 133.325 120.957 133.106 121.095 132.914C121.233 132.716 121.419 132.563 121.653 132.455C121.893 132.347 122.163 132.293 122.463 132.293C122.721 132.293 122.979 132.344 123.237 132.446C123.501 132.542 123.726 132.698 123.912 132.914C123.966 132.956 123.993 133.016 123.993 133.094C123.993 133.166 123.963 133.229 123.903 133.283C123.861 133.319 123.807 133.337 123.741 133.337C123.681 133.337 123.627 133.313 123.579 133.265C123.435 133.103 123.264 132.98 123.066 132.896C122.868 132.812 122.655 132.77 122.427 132.77C122.145 132.77 121.902 132.836 121.698 132.968C121.5 133.1 121.401 133.298 121.401 133.562C121.413 133.802 121.521 133.985 121.725 134.111C121.935 134.237 122.241 134.351 122.643 134.453C122.955 134.531 123.213 134.618 123.417 134.714C123.621 134.81 123.786 134.945 123.912 135.119C124.044 135.293 124.11 135.524 124.11 135.812C124.11 136.202 123.954 136.514 123.642 136.748C123.33 136.976 122.943 137.09 122.481 137.09C121.749 137.09 121.167 136.817 120.735 136.271Z" fill="black"/>
<path d="M79.7419 115.01C79.8859 115.01 80.0059 115.058 80.1019 115.154C80.1979 115.25 80.2459 115.37 80.2459 115.514C80.2459 115.652 80.1979 115.769 80.1019 115.865C80.0059 115.955 79.8859 116 79.7419 116H76.6819C76.5259 116 76.4029 115.952 76.3129 115.856C76.2229 115.76 76.1779 115.637 76.1779 115.487C76.1779 115.337 76.2319 115.205 76.3399 115.091L78.3019 112.994C78.5239 112.754 78.6979 112.514 78.8239 112.274C78.9559 112.028 79.0219 111.803 79.0219 111.599C79.0219 111.329 78.9259 111.095 78.7339 110.897C78.5419 110.699 78.3199 110.6 78.0679 110.6C77.8939 110.6 77.7169 110.66 77.5369 110.78C77.3629 110.894 77.2039 111.047 77.0599 111.239C76.9519 111.383 76.8139 111.455 76.6459 111.455C76.5139 111.455 76.3909 111.404 76.2769 111.302C76.1689 111.2 76.1149 111.086 76.1149 110.96C76.1149 110.87 76.1449 110.78 76.2049 110.69C76.2649 110.594 76.3549 110.486 76.4749 110.366C76.7029 110.138 76.9669 109.955 77.2669 109.817C77.5669 109.679 77.8549 109.61 78.1309 109.61C78.5269 109.61 78.8749 109.694 79.1749 109.862C79.4749 110.03 79.7059 110.261 79.8679 110.555C80.0299 110.849 80.1109 111.182 80.1109 111.554C80.1109 111.92 80.0119 112.298 79.8139 112.688C79.6219 113.072 79.3609 113.441 79.0309 113.795L77.8879 115.01H79.7419ZM87.163 111.311C87.223 111.311 87.28 111.332 87.334 111.374C87.388 111.416 87.415 111.47 87.415 111.536C87.415 111.59 87.403 111.641 87.379 111.689L85.615 115.829C85.591 115.877 85.555 115.919 85.507 115.955C85.465 115.985 85.42 116 85.372 116C85.312 116.006 85.258 115.994 85.21 115.964C85.162 115.934 85.126 115.889 85.102 115.829L83.329 111.689C83.329 111.677 83.323 111.659 83.311 111.635C83.305 111.611 83.302 111.587 83.302 111.563C83.302 111.491 83.326 111.431 83.374 111.383C83.422 111.329 83.491 111.302 83.581 111.302C83.635 111.302 83.683 111.32 83.725 111.356C83.773 111.386 83.809 111.428 83.833 111.482L85.363 115.127L86.902 111.482C86.926 111.428 86.959 111.386 87.001 111.356C87.049 111.32 87.103 111.305 87.163 111.311ZM92.1701 111.401C92.2481 111.401 92.3111 111.428 92.3591 111.482C92.4131 111.536 92.4401 111.602 92.4401 111.68V115.73C92.4401 115.808 92.4131 115.874 92.3591 115.928C92.3111 115.976 92.2481 116 92.1701 116C92.0921 116 92.0261 115.976 91.9721 115.928C91.9241 115.874 91.9001 115.808 91.9001 115.73V115.127C91.7501 115.397 91.5251 115.625 91.2251 115.811C90.9251 115.997 90.5981 116.09 90.2441 116.09C89.8421 116.09 89.4791 115.985 89.1551 115.775C88.8371 115.565 88.5851 115.277 88.3991 114.911C88.2191 114.545 88.1291 114.134 88.1291 113.678C88.1291 113.222 88.2221 112.814 88.4081 112.454C88.5941 112.088 88.8461 111.803 89.1641 111.599C89.4881 111.395 89.8451 111.293 90.2351 111.293C90.5951 111.293 90.9251 111.38 91.2251 111.554C91.5251 111.728 91.7501 111.956 91.9001 112.238V111.68C91.9001 111.602 91.9241 111.536 91.9721 111.482C92.0261 111.428 92.0921 111.401 92.1701 111.401ZM90.2981 115.586C90.6101 115.586 90.8891 115.505 91.1351 115.343C91.3871 115.175 91.5821 114.947 91.7201 114.659C91.8641 114.365 91.9361 114.038 91.9361 113.678C91.9361 113.33 91.8641 113.012 91.7201 112.724C91.5821 112.436 91.3871 112.211 91.1351 112.049C90.8891 111.881 90.6101 111.797 90.2981 111.797C89.9861 111.797 89.7041 111.878 89.4521 112.04C89.2061 112.202 89.0111 112.427 88.8671 112.715C88.7291 112.997 88.6601 113.318 88.6601 113.678C88.6601 114.038 88.7291 114.365 88.8671 114.659C89.0051 114.947 89.1971 115.175 89.4431 115.343C89.6951 115.505 89.9801 115.586 90.2981 115.586ZM97.7372 111.401C97.8152 111.401 97.8782 111.428 97.9262 111.482C97.9802 111.53 98.0072 111.596 98.0072 111.68V115.577C98.0072 116.045 97.9082 116.444 97.7102 116.774C97.5182 117.11 97.2512 117.365 96.9092 117.539C96.5732 117.713 96.1862 117.8 95.7482 117.8C95.5382 117.8 95.3162 117.773 95.0822 117.719C94.8542 117.665 94.6562 117.596 94.4882 117.512C94.3262 117.428 94.2332 117.341 94.2092 117.251C94.1672 117.209 94.1462 117.161 94.1462 117.107C94.1462 117.047 94.1732 116.999 94.2272 116.963C94.2512 116.945 94.2812 116.936 94.3172 116.936C94.3532 116.936 94.4222 116.957 94.5242 116.999L94.7132 117.08C95.0852 117.224 95.4332 117.296 95.7572 117.296C96.2912 117.296 96.7082 117.143 97.0082 116.837C97.3142 116.537 97.4672 116.129 97.4672 115.613V115.055C97.3172 115.379 97.0802 115.634 96.7562 115.82C96.4322 116 96.0932 116.09 95.7392 116.09C95.3252 116.09 94.9502 115.988 94.6142 115.784C94.2842 115.574 94.0232 115.286 93.8312 114.92C93.6392 114.554 93.5432 114.143 93.5432 113.687C93.5432 113.237 93.6392 112.829 93.8312 112.463C94.0232 112.097 94.2842 111.812 94.6142 111.608C94.9502 111.398 95.3222 111.293 95.7302 111.293C96.1082 111.293 96.4532 111.389 96.7652 111.581C97.0832 111.767 97.3172 111.992 97.4672 112.256V111.68C97.4672 111.602 97.4912 111.536 97.5392 111.482C97.5932 111.428 97.6592 111.401 97.7372 111.401ZM95.7842 115.586C96.1142 115.586 96.4082 115.508 96.6662 115.352C96.9302 115.19 97.1342 114.965 97.2782 114.677C97.4282 114.383 97.5032 114.053 97.5032 113.687C97.5032 113.321 97.4282 112.994 97.2782 112.706C97.1342 112.418 96.9302 112.196 96.6662 112.04C96.4082 111.878 96.1142 111.797 95.7842 111.797C95.4602 111.797 95.1662 111.881 94.9022 112.049C94.6442 112.211 94.4402 112.436 94.2902 112.724C94.1462 113.012 94.0742 113.333 94.0742 113.687C94.0742 114.047 94.1462 114.371 94.2902 114.659C94.4402 114.947 94.6442 115.175 94.9022 115.343C95.1662 115.505 95.4602 115.586 95.7842 115.586ZM103.121 111.401C103.199 111.401 103.262 111.428 103.31 111.482C103.364 111.536 103.391 111.602 103.391 111.68V115.73C103.391 115.808 103.364 115.874 103.31 115.928C103.262 115.976 103.199 116 103.121 116C103.043 116 102.977 115.976 102.923 115.928C102.875 115.874 102.851 115.808 102.851 115.73V115.127C102.701 115.397 102.476 115.625 102.176 115.811C101.876 115.997 101.549 116.09 101.195 116.09C100.793 116.09 100.43 115.985 100.106 115.775C99.7883 115.565 99.5363 115.277 99.3503 114.911C99.1703 114.545 99.0803 114.134 99.0803 113.678C99.0803 113.222 99.1733 112.814 99.3593 112.454C99.5453 112.088 99.7973 111.803 100.115 111.599C100.439 111.395 100.796 111.293 101.186 111.293C101.546 111.293 101.876 111.38 102.176 111.554C102.476 111.728 102.701 111.956 102.851 112.238V111.68C102.851 111.602 102.875 111.536 102.923 111.482C102.977 111.428 103.043 111.401 103.121 111.401ZM101.249 115.586C101.561 115.586 101.84 115.505 102.086 115.343C102.338 115.175 102.533 114.947 102.671 114.659C102.815 114.365 102.887 114.038 102.887 113.678C102.887 113.33 102.815 113.012 102.671 112.724C102.533 112.436 102.338 112.211 102.086 112.049C101.84 111.881 101.561 111.797 101.249 111.797C100.937 111.797 100.655 111.878 100.403 112.04C100.157 112.202 99.9623 112.427 99.8183 112.715C99.6803 112.997 99.6113 113.318 99.6113 113.678C99.6113 114.038 99.6803 114.365 99.8183 114.659C99.9563 114.947 100.148 115.175 100.394 115.343C100.646 115.505 100.931 115.586 101.249 115.586ZM104.539 115.271C104.491 115.193 104.467 115.127 104.467 115.073C104.467 114.995 104.506 114.935 104.584 114.893C104.62 114.857 104.668 114.839 104.728 114.839C104.8 114.839 104.866 114.869 104.926 114.929C105.28 115.397 105.751 115.631 106.339 115.631C106.627 115.631 106.876 115.565 107.086 115.433C107.302 115.295 107.41 115.097 107.41 114.839C107.41 114.587 107.311 114.398 107.113 114.272C106.915 114.146 106.639 114.038 106.285 113.948C105.787 113.822 105.397 113.66 105.115 113.462C104.833 113.258 104.692 112.961 104.692 112.571C104.692 112.325 104.761 112.106 104.899 111.914C105.037 111.716 105.223 111.563 105.457 111.455C105.697 111.347 105.967 111.293 106.267 111.293C106.525 111.293 106.783 111.344 107.041 111.446C107.305 111.542 107.53 111.698 107.716 111.914C107.77 111.956 107.797 112.016 107.797 112.094C107.797 112.166 107.767 112.229 107.707 112.283C107.665 112.319 107.611 112.337 107.545 112.337C107.485 112.337 107.431 112.313 107.383 112.265C107.239 112.103 107.068 111.98 106.87 111.896C106.672 111.812 106.459 111.77 106.231 111.77C105.949 111.77 105.706 111.836 105.502 111.968C105.304 112.1 105.205 112.298 105.205 112.562C105.217 112.802 105.325 112.985 105.529 113.111C105.739 113.237 106.045 113.351 106.447 113.453C106.759 113.531 107.017 113.618 107.221 113.714C107.425 113.81 107.59 113.945 107.716 114.119C107.848 114.293 107.914 114.524 107.914 114.812C107.914 115.202 107.758 115.514 107.446 115.748C107.134 115.976 106.747 116.09 106.285 116.09C105.553 116.09 104.971 115.817 104.539 115.271Z" fill="black"/>
<defs>
<filter id="filter0_d" x="-5" y="0" width="193" height="230" filterUnits="userSpaceOnUse" color-interpolation-filters="sRGB">
<feFlood flood-opacity="0" result="BackgroundImageFix"/>
<feColorMatrix in="SourceAlpha" type="matrix" values="0 0 0 0 0 0 0 0 0 0 0 0 0 0 0 0 0 0 127 0" result="hardAlpha"/>
<feOffset dy="4"/>
<feGaussianBlur stdDeviation="10"/>
<feColorMatrix type="matrix" values="0 0 0 0 0.882353 0 0 0 0 0.882353 0 0 0 0 0.882353 0 0 0 1 0"/>
<feBlend mode="normal" in2="BackgroundImageFix" result="effect1_dropShadow"/>
<feBlend mode="normal" in="SourceGraphic" in2="effect1_dropShadow" result="shape"/>
</filter>
<filter id="filter1_d" x="69" y="22" width="48" height="48" filterUnits="userSpaceOnUse" color-interpolation-filters="sRGB">
<feFlood flood-opacity="0" result="BackgroundImageFix"/>
<feColorMatrix in="SourceAlpha" type="matrix" values="0 0 0 0 0 0 0 0 0 0 0 0 0 0 0 0 0 0 127 0" result="hardAlpha"/>
<feOffset dy="4"/>
<feGaussianBlur stdDeviation="2"/>
<feColorMatrix type="matrix" values="0 0 0 0 0.960784 0 0 0 0 0.960784 0 0 0 0 0.960784 0 0 0 1 0"/>
<feBlend mode="normal" in2="BackgroundImageFix" result="effect1_dropShadow"/>
<feBlend mode="normal" in="SourceGraphic" in2="effect1_dropShadow" result="shape"/>
</filter>
</defs>
</svg>
