<svg width="48" height="49" viewBox="0 0 48 49" fill="none" xmlns="http://www.w3.org/2000/svg">
<path d="M22.0004 45.7429C33.9297 45.7429 43.6004 36.0723 43.6004 24.1429C43.6004 12.2136 33.9297 2.54297 22.0004 2.54297C10.071 2.54297 0.400391 12.2136 0.400391 24.1429C0.400391 36.0723 10.071 45.7429 22.0004 45.7429Z" fill="#00D95A"/>
<path d="M28.8572 30.9941C28.5452 31.4635 27.997 31.62 27.5276 31.3071C23.8527 29.0391 19.2385 28.5696 13.7641 29.8205C13.2164 29.977 12.747 29.5858 12.591 29.1168C12.435 28.5696 12.8252 28.1002 13.2946 27.9442C19.239 26.6151 24.4004 27.1623 28.4665 29.6645C29.0142 29.8992 29.0919 30.5251 28.8572 30.9941ZM30.7345 26.6928C30.3433 27.24 29.6396 27.4752 29.0919 27.0835C24.8689 24.5031 18.4561 23.7211 13.5294 25.285C12.9039 25.4415 12.1998 25.1285 12.0433 24.5031C11.8873 23.8776 12.1998 23.1735 12.8252 23.0175C18.5343 21.2971 25.5735 22.1573 30.4215 25.129C30.891 25.3632 31.1252 26.1456 30.7345 26.6928ZM32.9247 21.9226C32.534 22.4703 31.5946 22.7045 30.8914 22.3138C25.886 19.3416 17.5186 19.0287 12.7474 20.5147C11.9655 20.7495 11.1836 20.2805 10.9489 19.5763C10.7146 18.7944 11.1836 18.012 11.8878 17.7773C17.4399 16.1352 26.5906 16.4477 32.377 19.8888C33.0807 20.2805 33.3159 21.2184 32.9247 21.9226Z" fill="white"/>
</svg>
