<svg width="24" height="24" viewBox="0 0 24 24" fill="none" xmlns="http://www.w3.org/2000/svg">
<path fill-rule="evenodd" clip-rule="evenodd" d="M6 9V2.8C4.23269 2.8 2.8 4.23269 2.8 6C2.8 7.76731 4.23269 9.2 6 9.2L6.00327 9.2C6.0011 9.1336 6 9.06693 6 9ZM1 6C1 3.23858 3.23858 1 6 1H18C20.7614 1 23 3.23858 23 6C23 8.76142 20.7614 11 18 11C17.8866 11 17.7741 10.9962 17.6625 10.9888C16.938 13.0519 15.1177 14.5994 12.9 14.933V19.6H14.5C14.9971 19.6 15.4 20.0029 15.4 20.5C15.4 20.7305 15.3133 20.9408 15.1708 21.1H16C16.4971 21.1 16.9 21.5029 16.9 22C16.9 22.4971 16.4971 22.9 16 22.9H12H8C7.50294 22.9 7.1 22.4971 7.1 22C7.1 21.5029 7.50294 21.1 8 21.1H8.82917C8.68666 20.9408 8.6 20.7305 8.6 20.5C8.6 20.0029 9.00294 19.6 9.5 19.6H11.1V14.933C8.88227 14.5994 7.06205 13.0519 6.33746 10.9888C6.22594 10.9962 6.11341 11 6 11C3.23858 11 1 8.76142 1 6ZM18 9C18 9.06693 17.9989 9.1336 17.9967 9.2L18 9.2C19.7673 9.2 21.2 7.76731 21.2 6C21.2 4.23269 19.7673 2.8 18 2.8V9ZM12.3606 4.7505C12.2153 4.44812 11.7847 4.44812 11.6394 4.75051L11.0813 5.91241C11.0229 6.03379 10.9075 6.11768 10.774 6.13563L9.49649 6.30745C9.16402 6.35217 9.03097 6.76166 9.27366 6.99326L10.2062 7.88319C10.3036 7.97615 10.3477 8.11189 10.3236 8.24436L10.0922 9.51246C10.032 9.84248 10.3803 10.0956 10.6756 9.93631L11.8101 9.32441C11.9286 9.26049 12.0714 9.26049 12.1899 9.32441L13.3244 9.93631C13.6197 10.0956 13.968 9.84248 13.9078 9.51246L13.6764 8.24436C13.6523 8.11189 13.6964 7.97615 13.7938 7.88319L14.7263 6.99326C14.969 6.76166 14.836 6.35217 14.5035 6.30745L13.226 6.13563C13.0925 6.11768 12.9771 6.03379 12.9187 5.91241L12.3606 4.7505Z" fill="#262F56"/>
</svg>
